<?xml version="1.0" encoding="UTF-8"?>
<svg id="svg8" xmlns="http://www.w3.org/2000/svg" viewBox="0 0 512 512">
  <defs>
    <style>
      .cls-1 {
        fill: #fff;
        stroke-width: 0px;
      }
    </style>
  </defs>
  <path class="cls-1" d="M475.7,461.79c-24.36-24.56-48.88-48.97-73.42-73.35-1.61-1.6-3.96-2.44-4.79-2.94,35.15-62.95,28.38-118.49-19.94-169.45,3.29,0,6.4.09,9.5-.02,5.56-.2,8.55-3.16,8.64-8.78.12-7.48-.27-14.98.14-22.45.26-4.7.99-9.56,2.55-13.98,5.74-16.28,11.95-32.4,17.91-48.6,1.26-3.42,3.13-6.92,3.19-10.42.34-20.72-7.56-44.54-34.53-52.21-8.62-2.45-18.06-3.2-27.05-2.86-16.04.62-30.59,6.08-39.89,20.08-9.27,13.96-13.31,28.97-6.6,45.7,6.61,16.48,12.64,33.21,18.36,50.02,1.84,5.42,1.9,11.44,2.96,18.43-25.13-9.14-49.75-6.3-73.31-6.95-4.29-10.73-8.34-20.84-12.63-31.57,5.41-5.32,11.24-10.99,16.99-16.74,5.64-5.64,5.67-9.27.16-14.82-6.79-6.85-13.62-13.67-20.46-20.46-5.64-5.6-9.26-5.63-14.82-.08-5.86,5.85-11.65,11.78-16.87,17.06-10.97-4.38-21.09-8.41-31.67-12.63,0-7.12.03-14.75,0-22.38-.04-7.22-2.78-10.02-9.89-10.06-9.15-.05-18.29-.03-27.44,0-7.89.02-10.53,2.61-10.56,10.38-.03,7.61,0,15.22,0,22.06-10.83,4.33-20.93,8.38-31.7,12.68-5.3-5.4-10.96-11.24-16.71-17-5.64-5.65-9.26-5.67-14.81-.16-6.84,6.8-13.67,13.61-20.46,20.46-5.61,5.65-5.64,9.26-.1,14.81,5.85,5.86,11.76,11.67,17.05,16.9-4.36,10.94-8.39,21.05-12.61,31.63-3.96,0-8.45.26-12.89-.07-4.89-.36-8.76.98-11.57,5.06v37.93c2.82,4.06,6.69,5.42,11.58,5.06,4.58-.34,9.21-.07,13.47-.07,1.91,5.71,3.37,10.83,5.33,15.75,2.02,5.06,4.55,9.93,7.19,15.61-5.72,5.59-11.68,11.34-17.55,17.19-5.56,5.54-5.5,9.17.11,14.81,6.56,6.61,13.16,13.18,19.76,19.76,6.47,6.45,9.65,6.42,16.24-.17,5.62-5.62,11.2-11.27,16.11-16.21,11.04,4.4,21.16,8.43,31.41,12.51.01.06.13.39.13.71.02,6.99.02,13.97.04,20.96.02,8.4,2.52,10.85,11.09,10.87,8.26.01,16.51,0,24.66,0,12.54,42.24,38.31,72.22,79.21,87.54,40.84,15.29,79.94,9.59,116.71-13.72,24.55,24.58,48.93,48.89,73.17,73.32,5.18,5.22,10.42,10.15,17.55,12.55h9.98c1.33-.6,2.63-1.24,3.98-1.8,16.45-6.82,20.14-26.77,7.11-39.91ZM379.48,200.05c-8.46,0-16.74.36-24.97-.15-4.03-.25-7.6-2.29-6.75-7.73.38-2.41.06-4.93.06-7.72h31.65v15.6ZM325.98,116.5c-5.49-14.7,1.99-33.62,16.49-39.95,14.04-6.13,28.61-6.13,42.65,0,14.49,6.33,22,25.29,16.51,39.96-5.93,15.86-12.03,31.67-17.78,47.59-1.18,3.28-2.74,4.32-6.09,4.12-4.81-.29-9.64-.07-14.47-.07,0-.15,0-.31,0-.46-5.96,0-13.28,2.1-17.48-.61-3.95-2.55-4.67-10.17-6.72-15.6-4.4-11.65-8.76-23.31-13.12-34.98ZM165.21,327.48h-17c0-7.07.02-14.16,0-21.25-.03-6.96-1.76-9.12-8.6-10.53-12.01-2.46-23.2-6.88-33.52-13.54-5.33-3.44-8.25-3.06-12.78,1.46-5.51,5.51-10.91,11.13-16.67,17.02-4.54-4.57-8.39-8.45-12.77-12.87,5.1-5.1,10.22-10.22,15.33-15.34,6.4-6.41,6.65-8.3,1.89-15.91-6.25-9.98-10.29-20.79-12.6-32.3-1.24-6.18-3.62-8.1-9.89-8.16-4.48-.04-8.96,0-13.81,0v-15.97c4.72,0,9.48.05,14.25-.01,5.68-.08,8.3-2.12,9.35-7.61,2.41-12.56,7.03-24.18,13.96-34.93,3.11-4.82,2.71-7.89-1.37-11.99-5.61-5.64-11.36-11.14-17.2-16.85,4.59-4.2,8.72-7.97,13.41-12.25,4.53,4.52,9.77,9.76,15.01,14.99,5.91,5.9,8.13,6.19,15.12,1.78,10.1-6.37,21.05-10.51,32.73-12.85,6.17-1.24,8.11-3.63,8.15-9.91.05-7.14.01-14.27.01-21.78h15.97c0,7.07-.02,14.16,0,21.25.03,6.96,1.77,9.13,8.61,10.52,12.01,2.44,23.2,6.87,33.51,13.54,5.31,3.43,8.26,3.06,12.79-1.47,5.51-5.51,10.9-11.13,16.49-16.84,4.2,4.59,7.98,8.71,12.27,13.39-4.53,4.53-9.76,9.77-15,15.01-5.93,5.93-6.2,8.08-1.8,15.11,5.96,9.53,10.24,19.75,12.28,30.82.24,1.31-.5,3.62-1.52,4.21-9.72,5.62-19.59,10.97-29.55,16.47.04-20.38-7.78-37.52-25.47-49.32-12.92-8.62-27.25-11.13-42.44-7.97-29.93,6.23-49.26,36.19-42.86,66.39,6.1,28.76,35.83,51.98,73.02,41.35-8.65,21.53-12.28,43.34-9.3,66.34ZM196.1,207.56c.16,22.33-17.78,40.43-40.06,40.43-21.77,0-39.68-17.87-39.77-39.68-.09-22.09,17.75-40.09,39.79-40.15,21.86-.07,39.89,17.68,40.04,39.4ZM292.14,423.62c-62.39-.2-112.18-50.17-111.99-112.41.19-61.19,50.59-111.29,111.8-111.12,62.13.17,112,50.46,111.77,112.7-.23,60.88-50.71,111.02-111.58,110.83ZM464.87,485.17c-1.58,1.66-5.31,1.68-8.08,1.65-1.34-.01-2.81-1.64-3.96-2.79-24.82-24.77-49.61-49.57-74.4-74.38-.57-.57-1.06-1.21-1.51-1.73,3.77-3.55,7.36-6.94,11.36-10.7.39.34,1.51,1.2,2.51,2.2,24.22,24.2,48.44,48.4,72.61,72.64,1.39,1.39,3.4,3.07,3.45,4.67.09,2.87-.23,6.59-1.99,8.44Z"/>
  <path class="cls-1" d="M316.73,43.77c2.32,4.33,6.51,5.71,10.48,3.85,4.21-1.98,5.79-6.28,3.65-10.92-2.43-5.27-4.87-10.59-7.89-15.53-1.39-2.28-4.18-3.71-5.33-4.67-7.48-.05-11.31,5.67-8.87,11.22,2.4,5.47,5.14,10.79,7.96,16.05Z"/>
  <path class="cls-1" d="M400.26,47.55c4.23,2.07,8.43.45,11.02-4.47,2.47-4.68,4.81-9.42,7.09-14.19.7-1.46,1.05-3.08,2.01-6-1.94-1.87-3.8-4.75-6.44-5.94-3.72-1.68-7.21.09-9.18,3.72-2.76,5.08-5.34,10.26-7.83,15.48-2.34,4.9-.97,9.29,3.32,11.4Z"/>
  <path class="cls-1" d="M280.68,63.57c5.11,2.75,10.36,5.26,15.59,7.8,1.17.57,2.49.8,3.28,1.04,4.45-.39,7.18-2.39,8.11-6.18.93-3.8-.51-6.97-3.99-8.82-5.27-2.81-10.6-5.52-16.03-8.02-4.61-2.12-8.92-.5-10.88,3.73-1.85,3.97-.44,8.11,3.92,10.45Z"/>
  <path class="cls-1" d="M420.35,66.61c.69,2.59,3.95,4.49,6.74,7.38,8.34-4.73,15.96-8.58,22.9-13.4,1.42-.98,1.44-6.47.04-8.35-1.57-2.11-6.05-4.09-8.25-3.31-6.64,2.36-13.07,5.66-18.96,9.53-1.91,1.25-3.11,5.73-2.47,8.15Z"/>
  <path class="cls-1" d="M355.86,24.32c0,2.83-.17,5.67.04,8.48.34,4.43,3.64,7.5,7.79,7.56,4.14.06,7.75-2.97,7.97-7.35.29-5.64.27-11.31.02-16.95-.2-4.45-3.61-7.5-7.78-7.56-4.36-.06-7.72,3.12-8.03,7.84-.17,2.65-.03,5.32-.03,7.98,0,0,.01,0,.02,0Z"/>
  <path class="cls-1" d="M291.66,216.06c-52.38-.06-95.59,43.17-95.54,95.56.05,53,42.9,96.06,95.57,96.03,53.44-.03,96.1-42.92,96.04-96.55-.06-52.27-43.23-94.98-96.06-95.04ZM292.23,391.69c-44.31,0-80.03-35.56-80.13-79.78-.1-44.05,35.73-79.8,80.03-79.87,43.49-.07,79.53,35.81,79.64,79.3.11,44.29-35.6,80.36-79.55,80.36Z"/>
  <path class="cls-1" d="M290.42,359.74c-25.8-1.33-44.93-20.59-46.47-46.47-.15-2.57-1.26-5.98-3.12-7.31-2-1.43-5.66-1.7-8.18-.99-3.8,1.07-4.6,4.72-4.59,8.5.04,32.55,28.59,61.52,61.4,62.24,6.35.14,10.11-2.56,10.42-7.47.31-4.94-3.3-8.19-9.45-8.5Z"/>
</svg>