<?xml version="1.0" encoding="UTF-8"?>
<svg id="svg8" xmlns="http://www.w3.org/2000/svg" viewBox="0 0 512 512">
  <defs>
    <style>
      .cls-1 {
        fill: #fff;
        stroke-width: 0px;
      }
    </style>
  </defs>
  <path class="cls-1" d="M440.28,393.36c-11.07-10.45-24.32-17.36-38.4-22.62-51.27-19.18-104.73-23.41-158.87-22.62-.6,0-1.2.38-1.72.56v28.87c24.5,1.39,48.58,2.1,72.54,4.29,28.53,2.6,56.61,8.2,82.92,20.01,8.77,3.94,16.9,9.76,24.46,15.81,5.22,4.18,4.94,9.17.07,13.85-4.38,4.21-9.37,8.02-14.66,10.98-17.42,9.74-36.46,15.12-55.88,19-60,11.96-120.2,12.07-180.41,1.78-21.97-3.76-43.54-9.45-63.35-20.06-6.04-3.23-11.59-7.74-16.59-12.47-4.21-3.98-4.04-8.15-.04-12.38,3.49-3.69,7.39-7.55,11.89-9.65,12.14-5.66,24.57-10.78,37.13-15.43,9.28-3.43,9.46-2.95,9.46-12.88,0-6.89,0-13.78,0-21.25-19.14,4.37-36.87,9.79-53.49,18.34-18.33,9.43-34.25,21.18-38.78,43.1v6.99c4.73,25.34,23.82,37.16,44.75,46.86,26.45,12.25,54.68,18.31,83.4,21.9,16.78,2.1,33.72,2.95,50.58,4.4,1.3.11,2.59.47,3.88.71h33.93c8.76-.66,17.52-1.29,26.28-1.97,30.22-2.35,60.05-6.96,88.98-16.25,18.92-6.07,37.17-13.66,51.96-27.53,20.22-18.97,20.15-43.28-.03-62.33Z"/>
  <path class="cls-1" d="M179.51,425.58c.86,8.79,8.02,14.78,16.76,14.12,8.34-.63,13.91-7.37,13.91-17.02.02-63.69.01-127.38.01-191.08v-6.45h6.81c73.65,0,147.3-.03,220.95.05,7.14,0,12.76-2.21,15.89-8.87,3.15-6.68,1.23-12.55-3.36-17.92-5.4-6.32-10.67-12.75-15.99-19.14-16.91-20.3-33.82-40.6-51.06-61.3,1.44-1.77,2.57-3.2,3.74-4.6,21.07-25.29,42.12-50.59,63.23-75.86,3.33-3.99,5.6-8.26,4.78-13.62-1.31-8.58-7.56-13.34-17.58-13.34-79.47-.01-158.94,0-238.41,0-14.48,0-19.76,5.32-19.76,19.9,0,129.88,0,259.76,0,389.63,0,1.83-.09,3.67.08,5.48ZM210.42,41.64h196.53c-3.27,3.97-6.16,7.5-9.08,11.01-14.9,17.89-29.82,35.76-44.7,53.67-6.83,8.21-6.87,14.99-.05,23.21,16.79,20.21,33.64,40.37,50.46,60.55.95,1.14,1.84,2.31,3.36,4.22h-196.52V41.64Z"/>
</svg>