<?xml version="1.0" encoding="UTF-8"?>
<svg id="svg8" xmlns="http://www.w3.org/2000/svg" viewBox="0 0 512 512">
  <defs>
    <style>
      .cls-1 {
        fill: #fff;
        stroke-width: 0px;
      }
    </style>
  </defs>
  <path class="cls-1" d="M505.57,120.29c-1.88-.53-3.94-.56-5.93-.56-16.97-.04-33.93-.06-50.9,0-2.98.01-4.93-.28-6.55-3.61-1.1-2.27-4.84-4.5-7.38-4.48-2.53.02-6.2,2.33-7.27,4.61-1.49,3.18-3.25,3.49-6.07,3.47-16.8-.06-33.6-.04-50.4-.03-8.63,0-12.69,2.69-12.78,8.4-.09,5.87,4.09,8.66,13.03,8.66,16.8,0,33.6-.02,50.4.04,1.93,0,4.7-.93,4.71,2.66.01,4.59,0,9.18,0,14.35-5.59,0-10.54.1-15.48-.03-6.04-.15-10.97,1.87-15.03,6.43-1.01,1.13-3.06,1.88-4.64,1.89-22.79.12-45.58.04-68.36.14-2.68.01-3.99-.76-5.25-3.26-12.71-25.29-33.41-39.12-61.67-39.1-28.26.02-48.85,13.91-61.83,39.06-.76,1.48-3.02,3.1-4.59,3.11-22.95.2-45.91.18-68.86.05-1.57,0-3.6-.79-4.62-1.93-4.07-4.56-9.02-6.54-15.05-6.39-4.94.12-9.88.03-14.99.03v-17.05h5.86c16.47,0,32.93.01,49.4-.02,1.99,0,4.03,0,5.95-.43,4.33-.97,6.51-4.03,6.44-8.29-.07-4.04-2.24-6.95-6.34-7.87-1.92-.43-3.96-.44-5.94-.44-16.97-.03-33.93-.07-50.9.03-2.91.02-4.49-.54-6.02-3.55-1.16-2.28-4.79-4.56-7.31-4.56-2.54,0-6.12,2.26-7.35,4.55-1.57,2.93-3.14,3.57-6.07,3.56-17.13-.1-34.27.06-51.4-.11-5.04-.05-9.06,1.25-11.83,5.61v5.98c2.78,4.32,6.78,5.66,11.83,5.61,16.8-.18,33.6-.07,50.4-.06,1.77,0,3.55.15,5.39.23v16.81c-5.55,0-10.69-.09-15.82.02-10.85.24-17.67,7.07-17.77,17.91-.1,10.63-.09,21.26,0,31.89.09,10.99,7.15,18.1,18.13,18.17,16.3.1,32.61.29,48.9-.16,4.04-.11,8.01-2.53,12.01-3.91,1.3-.45,2.81-1.71,3.81-1.37,5.93,2.04,11.73,4.43,17.67,6.74-.45,1.67-.75,2.95-1.14,4.19-10.04,31.96-20.09,63.91-30.13,95.86-5.67,18.03-11.42,36.04-16.95,54.11-3.84,12.54,3.85,22.89,16.91,23.06,4.16.05,8.32.02,12.48,0,11.35-.02,16.2-3.43,20.09-14.12,16.63-45.65,33.26-91.3,49.9-136.95.67-1.83,1.43-3.63,2.25-5.71,8.73,3.33,17.1,6.48,25.42,9.75.99.39,2.07,1.22,2.55,2.14,2.89,5.53,5.63,11.14,8.72,17.33-3.77,0-6.73-.01-9.69,0-16.9.07-27.42,10.47-27.46,27.31-.06,21.26-.04,42.52,0,63.78.03,17.61,10.21,27.91,27.77,28.01,14.47.08,28.94.02,43.41.02,12.81,0,25.62.17,38.42-.05,16.1-.28,26.39-10.76,26.46-26.79.09-21.92.1-43.85,0-65.77-.07-15.62-10.78-26.31-26.27-26.49-3.39-.04-6.79,0-10.88,0,3.13-6.3,5.81-11.79,8.61-17.21.41-.8,1.26-1.6,2.09-1.92,8.58-3.39,17.2-6.68,25.96-10.05.83,2.03,1.5,3.53,2.06,5.07,7.09,19.48,14.17,38.96,21.25,58.44,9.64,26.49,19.29,52.98,28.95,79.46,3.77,10.33,8.73,13.77,19.83,13.79,3.49,0,6.99,0,10.48,0,16.07-.02,23.27-9.86,18.43-25.28-11.42-36.39-22.87-72.76-34.3-109.15-4.45-14.17-8.88-28.36-13.4-42.79,6.01-2.31,11.53-4.59,17.17-6.48,1.18-.4,2.86.56,4.27,1.02,4.17,1.36,8.28,3.86,12.48,3.99,16.12.47,32.26.26,48.4.17,11.25-.06,18.24-7.16,18.31-18.5.07-10.46.08-20.93,0-31.39-.1-11.08-6.95-17.89-18.12-18.08-5.11-.09-10.23-.02-15.53-.02v-17.05c2.18,0,3.98,0,5.79,0,16.63,0,33.27.02,49.9-.02,1.98,0,4.05-.02,5.93-.55,4-1.13,6.04-4.1,5.96-8.17-.07-3.85-2.11-6.67-5.89-7.74ZM102.34,204.57h-50.35v-33.49h50.35v33.49ZM119.32,383.2h-16.51c16.1-51.31,32.08-102.23,48.32-153.97,7.39,2.82,14.14,5.4,21.3,8.13-17.78,48.83-35.44,97.32-53.11,145.84ZM296.3,289.77c7.87,0,10.75,2.94,10.76,10.89.03,21.09.03,42.18,0,63.27,0,8.07-2.7,10.84-10.7,10.88-13.47.07-26.94.02-40.41.02-13.3,0-26.61.04-39.91-.01-8.36-.03-11-2.72-11.01-11.08-.02-20.92-.02-41.85,0-62.77,0-8.32,2.79-11.19,10.95-11.19,26.77-.02,53.55-.03,80.32,0ZM235.96,256.03h40.19c-2.6,5.25-4.89,10.18-7.52,14.93-.54.97-2.34,1.7-3.58,1.73-5.98.18-11.97.18-17.96,0-1.25-.04-3.06-.75-3.6-1.71-2.63-4.74-4.92-9.67-7.53-14.95ZM409.34,383.36c-5.19,0-9.7.34-14.1-.19-1.45-.17-3.23-2.37-3.84-4.02-13.28-36.11-26.42-72.26-39.58-108.41-3.97-10.89-7.94-21.79-12.13-33.29,7.01-2.7,13.85-5.33,21.27-8.18,16.17,51.49,32.18,102.5,48.37,154.09ZM392.14,196.91c-.1,1.29-2.32,2.93-3.89,3.54-24.42,9.51-49.18,18.21-73.27,28.49-17.97,7.67-36.14,9.96-55.54,10.33-24.22.46-46.79-3.13-69-12.98-21.65-9.61-44.17-17.28-66.37-25.62-3.32-1.25-4.64-2.91-4.4-6.49.32-4.76.08-9.56.08-14.99h5.79c23.6,0,47.2,0,70.81,0,7.18,0,8.99-1.29,11.4-7.92,7.7-21.13,26.25-34.4,48.17-34.46,21.88-.06,40.63,13.23,48.31,34.25,2.52,6.9,4.27,8.13,11.76,8.13,23.44.01,46.87,0,70.31,0h6.02c0,6.2.24,11.99-.18,17.72ZM460.13,171.09v33.42h-50.39v-33.42h50.39Z"/>
  <path class="cls-1" d="M256.06,357.72c14.3-.09,25.69-11.57,25.49-25.68-.2-13.94-11.65-25.25-25.55-25.23-14.05.01-25.57,11.67-25.51,25.81.06,13.86,11.61,25.19,25.57,25.1ZM256.4,323.82c4.66.21,8.28,4.25,8.04,8.97-.23,4.57-3.87,7.95-8.5,7.9-4.8-.05-8.46-3.84-8.31-8.59.15-4.7,4.16-8.49,8.77-8.28Z"/>
</svg>