<?xml version="1.0" encoding="UTF-8"?>
<svg id="Layer_1" xmlns="http://www.w3.org/2000/svg" viewBox="0 0 234.3996 61.0737">
  <defs>
    <style>
      .cls-1 {
        fill: #fff;
      }
    </style>
  </defs>
  <path class="cls-1" d="M24.3382,47.2185c5.7139,0,10.3431-4.6321,10.3431-10.3458,0-5.7196-4.6292-10.3516-10.3431-10.3516s-10.3487,4.6321-10.3487,10.3516c0,5.7137,4.6327,10.3458,10.3487,10.3458Z"/>
  <path class="cls-1" d="M24.167,61.0737c13.4251,0,24.3052-10.8847,24.3052-24.3077,0-.3819-.0089-.7606-.0266-1.1381V7.8597h3.186L43.5023,0l-8.1234,7.8597h3.1905v9.3839c-2.7334-2.0199-6.4766-3.8034-10.4033-4.328v-2.5745l-7.7657,8.0556,7.7657,8.1261v-2.6119c5.8507,1.8639,9.6974,6.9555,9.6974,12.9506,0,7.5762-6.0853,13.6476-13.6582,13.6476-7.5691,0-13.5485-6.1133-13.5485-13.6895,0-6.9664,5.1478-12.4587,11.5752-13.3629l-4.8301-5.0815,5.5492-5.772C10.1056,13.2165,0,24.1277,0,36.6482c0,13.423,10.7416,24.4256,24.167,24.4256Z"/>
  <path class="cls-1" d="M234.3996,61.0194l-8.178-52.9028h-14.2582l-35.6255,51.5727-7.973-51.5727h-14.2576l-36.1755,52.3682,13.9631-51.993h-14.5582l-13.7484,51.1912-7.9727-51.5664h-14.2576l-36.5444,52.9028h15.833l6.3041-9.3804h20.2599l1.2759,9.3804h44.9088l6.3041-9.3804h20.2611l1.2747,9.3804h30.0174l6.3034-9.3804h20.2605l1.2759,9.3804h15.3072ZM74.3044,40.3083l9.83-15.0828,1.8758,15.0828h-11.7058ZM147.0524,40.3083l9.83-15.0828,1.8777,15.0828h-11.7076ZM204.9097,40.3083l9.83-15.0828,1.8764,15.0828h-11.7064Z"/>
</svg>