<?xml version="1.0" encoding="UTF-8"?>
<svg id="Layer_1" xmlns="http://www.w3.org/2000/svg" viewBox="0 0 398.3872 91.0803">
  <defs>
    <style>
      .cls-1 {
        fill: #fff;
      }
    </style>
  </defs>
  <path class="cls-1" d="M60.6262,55.3379c6.6444-14.2667,1.8598-31.2476-11.2556-39.9467,5.0991-5.2401,10.6211-10.4331,16.4486-15.3912-6.7989,4.042-13.2515,8.6398-19.2919,13.7463C30.9467,5.6219,11.7299,11.6663,3.6055,27.247-2.4109,38.7848-.7951,52.8234,7.6851,62.6927c-6.086,13.1824-7.0494,23.7565-1.7859,27.3282,5.757,3.8302,18.258-3.1252,25.8478-14.4278,0,0-11.608,10.4566-17.976,8.0598-3.9242-1.4804-3.9242-7.4959-.7049-16.0962,12.5994,9.2433,30.0463,7.9686,41.1686-3.0077l1.1279,2.1148c13.8638-1.1279,55.2439-2.2323,55.2439-2.2323-.094-1.9503-27.4927-.0705-49.9803-9.0937ZM3.808,41.9205c.0165-15.4693,12.5702-27.9963,28.0395-27.9798,3.9861.0043,7.9254.8593,11.5547,2.5079-13.7357,12.0144-25.2043,26.3959-33.8607,42.4609-3.7305-4.8768-5.746-10.8491-5.7335-16.9891ZM31.7941,69.9066c-6.2831.012-12.3859-2.0996-17.318-5.992,5.5455-12.501,16.8246-29.2785,32.2158-45.6802,11.964,7.5336,16.4301,22.8071,10.4096,35.5995-4.8577-2.1801-9.3451-5.1057-13.2999-8.6708l8.4358,15.8377c-5.2798,5.6819-12.687,8.9087-20.4433,8.9058Z"/>
  <polygon class="cls-1" points="250.3963 39.0067 255.5659 32.1218 237.5194 32.1218 241.9605 26.2238 260.0305 26.2238 265.2236 19.3389 229.1776 19.3389 204.3872 52.2361 240.4331 52.2361 245.6027 45.3512 227.5562 45.3512 232.3263 39.0067 250.3963 39.0067 250.3963 39.0067"/>
  <polygon class="cls-1" points="275.4217 19.3389 250.6313 52.2361 268.6308 52.2361 293.3977 19.3389 275.4217 19.3389 275.4217 19.3389"/>
  <polygon class="cls-1" points="335.3417 19.3389 322.7702 36.0225 318.9166 19.3389 304.8647 19.3389 280.0743 52.2361 291.9643 52.2361 304.4183 35.717 308.2485 52.2361 322.4413 52.2361 347.2317 19.3389 335.3417 19.3389 335.3417 19.3389"/>
  <path class="cls-1" d="M394.1337,19.3389h-28.9026c-4.7599-.0055-9.2441,2.2322-12.1015,6.039l-14.9213,19.8088c-.5825.7623-.8965,1.6959-.8929,2.6553,0,2.4306,1.9635,4.4047,4.3941,4.4176h28.9026c4.7673.0093,9.2602-2.2285,12.125-6.039l3.5952-4.6996h4.1826l5.2166-7.0494h-22.1351l-7.0494,9.2817c-.7421.9925-1.9094,1.5762-3.1487,1.5744h-5.0991c-.6359,0-1.1514-.5155-1.1514-1.1514h0c-.0019-.2474.081-.4879.235-.6815l11.749-15.7437c.7396-.9955,1.9086-1.58,3.1487-1.5744h5.0991c.6359,0,1.1514.5155,1.1514,1.1514h0c-.0065.2459-.0886.4838-.235.6815l-1.9269,2.5613h17.9525l3.1722-4.2296c1.4665-1.9336,1.0878-4.6899-.8458-6.1564-.7704-.5843-1.712-.8982-2.679-.893l.1645.047Z"/>
  <path class="cls-1" d="M214.4208,23.7565c0-2.4268-1.9673-4.3941-4.3941-4.3941h-28.9026c-4.7673-.0093-9.2602,2.2285-12.125,6.039l-14.9212,19.8088c-1.4535,1.9596-1.0433,4.7264.9162,6.1799.7549.5599,1.6686.8645,2.6085.8695h28.9026c4.7673.0092,9.2602-2.2285,12.125-6.039l14.9212-19.8088c.5725-.7661.8779-1.6989.8694-2.6553ZM194.33,28.0567l-11.749,15.7202c-.7396.9955-1.9086,1.58-3.1487,1.5744h-5.1931c-.6359-.0064-1.1461-.5271-1.1397-1.163.0024-.2412.0805-.4755.2233-.6699l11.749-15.7437c.7469-.9868,1.9112-1.5689,3.1487-1.5744h5.0991c.6359,0,1.1514.5155,1.1514,1.1514-.0065.2459-.0886.4838-.235.6814l.094.0235Z"/>
  <path class="cls-1" d="M146.441,36.5864c3.4928-.792,6.5908-2.799,8.7413-5.663l3.4307-4.5351c1.4665-1.9336,1.0878-4.6899-.8457-6.1564-.7704-.5843-1.712-.8982-2.679-.893h-36.4689l-24.7904,32.8972h37.7378c4.7673.0093,9.2602-2.2285,12.125-6.039l3.5012-4.6996c.4622-.6077.7101-1.3513.7049-2.1148-.0018-1.121-.5333-2.1751-1.4334-2.8433l-.0235.047ZM129.7574,40.8631l-2.2323,2.9608c-.7421.9926-1.9094,1.5762-3.1487,1.5744h-7.3549l4.6996-6.3445h7.0494c.6359,0,1.1514.5155,1.1514,1.1514h0c0,.247-.0826.487-.235.6814l.0705-.0235ZM139.3916,28.0801l-1.9033,2.5143c-.7494.9808-1.9144,1.5546-3.1487,1.5509h-7.3549l4.4411-5.898h7.0494c.6359,0,1.1514.5155,1.1514,1.1514h0c-.0065.2459-.0886.4838-.235.6814Z"/>
</svg>