<?xml version="1.0" encoding="UTF-8"?>
<svg id="Layer_1" xmlns="http://www.w3.org/2000/svg" viewBox="0 0 222.7731 36.797">
  <defs>
    <style>
      .cls-1 {
        fill: #fff;
      }
    </style>
  </defs>
  <path class="cls-1" d="M222.7731,10.1877h-4.7835v26.0139h4.7835V10.1877Z"/>
  <path class="cls-1" d="M168.5071,36.1775v-14.6136c0-4.1412-3.094-7.2829-7.2115-7.2829-3.4986,0-7.0687,2.6895-7.0687,7.8065v14.1139h-4.7839V1.0955l4.7839-.0238s-.0237,11.2815,0,11.2577c.6427-.5474,3.1179-2.7371,8.0446-2.7371,5.9978,0,11.0434,4.9981,11.0434,10.9244v15.6608h-4.8078Z"/>
  <path class="cls-1" d="M222.7731,1.0955h-4.7835v4.7839h4.7835V1.0955Z"/>
  <path class="cls-1" d="M182.956,31.3697h-4.8078v4.8078h4.8078v-4.8078Z"/>
  <path class="cls-1" d="M35.5111,16.7321c.3332.476.4999,1.0472.4999,1.6422,0,.7855-.3095,1.5233-.8568,2.0706-.5473.5475-1.309.8568-2.0707.8568-.5713,0-1.1423-.1665-1.6422-.4997-.476-.3332-.8568-.7854-1.071-1.309-.2143-.5475-.2857-1.1187-.1667-1.6899.119-.5712.4046-1.0948.8093-1.4994.4046-.4046.9282-.6902,1.4994-.8092.5711-.119,1.1661-.0476,1.6897.1666.5236.1904.9758.5712,1.309,1.071Z"/>
  <path class="cls-1" d="M35.5111,31.5826c.3332.476.4999,1.0472.4999,1.6422,0,.7854-.3095,1.5234-.8568,2.0707-.5473.5473-1.309.8568-2.0707.8568-.5713,0-1.1423-.1665-1.6422-.4999-.476-.3332-.8568-.7854-1.071-1.309-.2143-.5473-.2857-1.1186-.1667-1.6897.119-.5713.4046-1.0949.8093-1.4994.4046-.4048.9282-.6903,1.4994-.8093.5711-.119,1.1661-.0477,1.6897.1667.5236.2142.9758.595,1.309,1.071Z"/>
  <path class="cls-1" d="M36.0093.1428h-7.0448v7.045h7.0448V.1428Z"/>
  <path class="cls-1" d="M20.8515,31.5826c.3332.476.4999,1.0472.4999,1.6422,0,.7854-.3095,1.5234-.8568,2.0707-.5475.5473-1.309.8568-2.0707.8568-.5712,0-1.1424-.1665-1.6422-.4999-.476-.3332-.8568-.7854-1.071-1.309-.2142-.5473-.2856-1.1186-.1666-1.6897.119-.5713.4046-1.0949.8092-1.4994.4046-.4048.9282-.6903,1.4994-.8093.5712-.119,1.1662-.0477,1.6898.1667.5475.2142.9996.595,1.309,1.071Z"/>
  <path class="cls-1" d="M21.9449,14.8272h-7.0449v7.0449h7.0449v-7.0449Z"/>
  <path class="cls-1" d="M22.1356.1428h-7.4496v7.4496h7.4496V.1428Z"/>
  <path class="cls-1" d="M7.8571.1428H.0267v7.8304h7.8304V.1428Z"/>
  <path class="cls-1" d="M7.045,29.1073H0v7.0448h7.045v-7.0448Z"/>
  <path class="cls-1" d="M7.4496,14.6381H0v7.4497h7.4496v-7.4497Z"/>
  <path class="cls-1" d="M65.6182,4.4031c2.0944.0238,2.9512,1.5708,2.9512,1.5708l2.9989-3.0227c-1.7612-1.904-3.9031-2.9513-6.0929-2.9513-2.1421,0-3.9033.6902-5.2361,2.023-1.3567,1.3566-2.0231,3.0941-2.0231,5.1885v2.9751h-4.0938v4.1175h4.07v21.8966h4.7839V14.3041h8.5919v-4.1175h-8.5682v-2.9751c0-1.7137.9282-2.6895,2.618-2.8085Z"/>
  <path class="cls-1" d="M135.4733,32.0611c-5.1647,0-8.9251-3.7367-8.9251-8.8537,0-5.0458,3.8557-8.8777,8.9965-8.8777,2.8324,0,5.0696,1.6422,6.0215,2.4753l3.2607-3.2607c-.9282-.9044-4.4268-3.9509-9.5201-3.9509-7.6639,0-13.6378,5.9739-13.6378,13.5901,0,7.5923,5.9978,13.5425,13.6615,13.5425,4.8792,0,8.1873-2.6655,9.4963-3.9745l-3.1891-3.1417c-1.1663,1.0947-3.237,2.4514-6.1645,2.4514Z"/>
  <path class="cls-1" d="M113.5057,32.3448c-1.5946,0-2.8085-1.0711-2.8085-4.1891v-13.8518h8.5682v-4.1175h-8.5682v-5.3075h-4.7839v23.2769c0,5.8787,2.7132,8.5444,7.5209,8.5444,1.785,0,3.9985-.714,5.9264-2.3086l-3.0228-3.0226c-.7378.6425-1.7612.9758-2.8322.9758Z"/>
  <path class="cls-1" d="M87.6107,31.9655c-4.6411,0-7.9971-3.4035-8.6635-6.926h22.0392c.0714-.595.119-1.2137.119-1.8326,0-7.4972-6.0929-13.5901-13.5901-13.5901s-13.5901,6.0929-13.5901,13.5901,6.0931,13.5901,13.5901,13.5901c4.4983,0,8.235-1.6185,10.7816-4.1175l-2.975-3.3558c-2.0707,1.785-4.665,2.6418-7.7114,2.6418ZM87.6107,14.3055c4.3316,0,7.497,2.9989,8.4015,6.6165h-16.9936c.9758-3.7843,4.2128-6.6165,8.5921-6.6165Z"/>
  <path class="cls-1" d="M207.3022,10.1884v2.8085s-3.1406-3.4035-8.6397-3.4035c-7.4733,0-13.5649,6.0215-13.5649,13.4236,0,7.6875,5.8543,13.709,13.3515,13.709,6.2351,0,8.8532-3.4272,8.8532-3.4272v2.8561h4.7835V10.1884h-4.7835ZM199.0911,32.0611c-.1417,0-.3091.0237-.4765.0237-2.4506,0-4.6639-.9996-6.2829-2.618-1.6172-1.6183-2.6181-3.8318-2.6181-6.307,0-4.9267,3.9997-8.9015,8.9488-8.9015s8.9488,3.9747,8.9488,8.9015c0,4.7839-3.7826,8.6633-8.5202,8.9014Z"/>
</svg>