<?xml version="1.0" encoding="UTF-8"?>
<svg id="Layer_1" xmlns="http://www.w3.org/2000/svg" viewBox="0 0 360.1358 73.1272">
  <defs>
    <style>
      .cls-1 {
        fill: #fff;
      }
    </style>
  </defs>
  <path class="cls-1" d="M43.631,1.2134c-23.7197,1.927-26.7584,10.089-16.9316,47.2551C15.8025,48.4685-5.3976,14.5969,1.2723,5.1154,6.742-1.1484,30.4138-.5953,43.631,1.2134"/>
  <path class="cls-1" d="M147.9147,21.1303c.0085,10.4162.0139,20.8346.0181,31.2561,0,.1503-.0256.3027-.0607.5318h-6.9054v-12.1269h-32.5596v12.2089h-7.0237v-31.87h6.9832v12.4775c1.8705.2281,31.6505.146,32.5628-.0821v-12.3954h6.9854Z"/>
  <path class="cls-1" d="M231.0206,61.1752c-.0096.0703-.0181.1364-.0512.1982h-7.9126c0-.1929.0075-.3805.2078-.4924.3144.421.7748.2483,1.1766.2526,2.1913.0256,4.3837.0288,6.5793.0416"/>
  <path class="cls-1" d="M250.2789,23.0829h6.8351c.2398.4562.1418.8964.1492,1.3142v16.3859c-.0074.8207.016,1.6467.3443,2.4056.7834,1.8087,2.202,2.8031,4.1599,2.8116,6.0549.0288,12.1013.0288,18.1487-.0085,2.1977-.0245,4.1716-1.9771,4.2547-4.0352.1087-2.558-1.555-4.5372-4.0395-4.8026-2.0325-.2153-4.0693-.0906-6.105-.049-1.3855.0288-2.7775-.0586-4.1759,0-2.348.0831-4.7077.0288-7.0759.0288h-1.2396v-7.0994h3.7165c3.8391,0,7.6803-.0629,11.4991.033,1.9238.0245,3.8369-.1588,5.7703.3144,4.9092,1.2108,8.9657,5.9068,8.6747,11.724-.2398,4.7482-3.3754,9.3408-8.9624,10.6624-.7535.1791-1.522.2366-2.3054.2366-6.1167-.0075-12.242-.0043-18.3757-.0043-6.1626-.0032-11.2636-5.0669-11.2731-11.2177v-18.6997Z"/>
  <path class="cls-1" d="M171.9596,53.0046h-9.7703c-6.1647,0-11.1399-5.0637-11.2849-11.2422-.1108-5.571,4.016-11.1442,10.7381-11.7133,1.1532-.1023,2.316-.016,3.4724-.016,5.4218-.0032,10.8393-.0032,16.2494,0,5.8108,0,10.4898,3.6291,11.5502,9.3067,1.4442,7.7666-4.5031,13.6318-10.9534,13.6648-3.336.0128-6.672,0-10.0016,0M172.0491,46.0129v.0128c1.6254,0,3.2529,0,4.8782-.0043,1.6275,0,3.2593.0203,4.8793-.0298,1.8471-.0618,3.4607-1.2854,4.0501-2.9811.5969-1.7042.0448-3.6462-1.3184-4.8569-1.2737-1.1447-2.866-1.1649-4.3869-1.1031-2.8916.1204-5.7884.0171-8.68.0501-3.1186.0373-6.235-.0959-9.3515.0618-2.2851.1076-4.1407,2.0197-4.1748,4.3016-.0512,2.5207,1.8972,4.4956,4.5734,4.5404,3.1719.049,6.3523.0085,9.5305.0085"/>
  <path class="cls-1" d="M360.1358,40.4227c-.0096.7876-.0096,1.5678-.0128,2.3597-.5798,5.8023-5.4772,10.219-11.3062,10.219-6.477,0-12.9539-.0501-19.4255.016-5.4485.0576-10.7413-4.0608-11.3712-10.1732-.631-6.1178,3.3712-11.5129,9.2492-12.5873,1.2523-.2238,2.5121-.1524,3.8135-.1524,1.1212,0,1.4698-.0959,2.315-.0959,3.9073,0,7.8092-.033,11.7197.0991,1.7011.0586,3.4021-.162,5.0818.0661,5.4271.7429,9.376,4.8367,9.9366,10.2489M339.1382,46.0214v-.0213c3.255,0,6.5026.0416,9.7629-.0203,2.0645-.033,3.9307-1.7415,4.1961-3.6877.308-2.235-.9411-4.421-3.0759-4.972-1.4389-.3773-2.9918-.2942-4.4967-.2942-1.9238-.0043-3.4085.0576-5.7757.0576-3.6376,0-7.2508-.0245-10.8788.0991-2.381.0799-4.2558,2.6805-3.8337,5.0232.4071,2.3096,2.1284,3.7698,4.5713,3.8039,3.1761.0405,6.3533.0117,9.5305.0117"/>
  <path class="cls-1" d="M231.0206,61.1752c-2.1956-.0128-4.388-.016-6.5793-.0416-.4018-.0043-.8622.1684-1.1766-.2526,1.4676-2.575,2.9278-5.1564,4.4285-7.8018-1.3397-.2185-2.574.0256-3.7911-.2526-2.5622-.5851-4.5606-1.9568-5.8844-4.1887-3.5417-5.9973-7.0205-12.0352-10.5217-18.0571-.0778-.129-.1908-.2494-.0693-.5222,1.944,0,3.952.1151,5.9419-.0298,1.6925-.1396,2.3725.7674,3.0951,2.0656,2.3384,4.1887,4.794,8.3144,7.19,12.4743.5766,1.004,1.3781,1.506,2.5473,1.4857,1.5923-.016,3.1772-.033,4.761.0085.6214.016.9699-.178,1.2939-.7226,2.7157-4.6896,5.49-9.3429,8.161-14.0549.6011-1.0658,1.2609-1.3344,2.4056-1.231,1.6968.162,3.3936-.129,5.0925.0075.3912.0341.7503.0746,1.1948.1993-1.8066,3.1196-3.5748,6.1594-5.3408,9.1948l-12.3304,21.1756c-.1236.195-.2867.3613-.4178.5436"/>
  <path class="cls-1" d="M292.6142,52.9044c0-3.8604.017-7.659,0-11.4458-.016-2.2308.5638-4.3048,1.8087-6.1327,2.3832-3.4927,5.6478-5.3589,9.9942-5.2097,2.3469.0789,4.7109-.0576,7.0589-.0874,1.6584-.016,3.3136-.0043,5.0339-.0043v7.0344c-2.1476-.1695-4.2867.0213-6.4354.0171-2.3139,0-4.6278.0075-6.931.1364-1.4079.0789-3.5374,1.9249-3.5321,4.3336.017,3.2838-.0053,6.5782-.0053,9.8748v1.4836h-6.9918Z"/>
  <rect class="cls-1" x="196.8895" y="23.0579" width="6.785" height="29.877"/>
  <path class="cls-1" d="M62.4704,45.6953c9.0669-19.6121.1791-28.1407-34.963-36.6204C33.0176.0911,73.4152,1.6792,79.2506,7.7831c5.8215,6.105-7.4447,27.0078-16.7802,37.9121"/>
  <path class="cls-1" d="M10.563,39.5317c14.4471,20.0054,24.177,16.6225,51.1016-8.6523,5.8769,10.1721-14.364,42.2479-24.5703,42.2479-7.223,0-19.8945-19.239-26.5314-33.5956"/>
  <path class="cls-1" d="M353.987,45.7155c.0639-.0053.1279-.0011.1812.0139v2.3384c-.064.0085-.1279.0128-.1919.0117.0107-.7887.0107-1.5763.0107-2.364"/>
</svg>