<?xml version="1.0" encoding="UTF-8"?>
<svg id="Layer_1" xmlns="http://www.w3.org/2000/svg" viewBox="0 0 417.6969 72.2053">
  <defs>
    <style>
      .cls-1 {
        fill: #fff;
      }
    </style>
  </defs>
  <path class="cls-1" d="M295.7831,66.3964l-.0148-.0148c-.2365-.1774-.5173-.3104-.8129-.4139.3695-.1626.6799-.3991.9164-.7095.3252-.4287.4878-.946.4878-1.552s-.133-1.0938-.3843-1.5076c-.2661-.4139-.6356-.7243-1.1382-.946-.5025-.2069-1.1233-.3104-1.8476-.3104h-4.7151v11.0858h4.8778c.5764,0,1.1086-.0739,1.5668-.207.4582-.1478.8573-.3547,1.1973-.6208.34-.2808.5912-.6208.7686-1.0347.1774-.4139.2661-.8869.2661-1.419,0-.5025-.1035-.9608-.3104-1.3599-.2069-.3991-.4878-.7243-.8573-.9903ZM292.6347,62.8046c.5469,0,.9608.1182,1.2564.3547.2808.2365.4287.5617.4287.9903,0,.266-.0591.5025-.1922.6947-.133.207-.2956.3548-.5321.473-.2217.1183-.4878.1774-.7981.1774h-2.5128v-2.6901h2.3502ZM294.6597,69.4856c-.1478.2217-.3547.3991-.6208.5173-.2661.1182-.5913.1774-.9903.1774h-2.7788v-2.9119h2.6902c.3843,0,.7243.0591,1.0199.1626.2808.1183.5025.2661.6504.4878.1478.2069.2365.4582.2365.7538,0,.3104-.0739.5912-.207.8129Z"/>
  <polygon class="cls-1" points="305.1838 65.273 302.1685 60.9422 299.7592 60.9422 304.1343 67.1206 304.1343 72.0279 306.1889 72.0279 306.1889 67.0911 310.2537 60.9422 307.9331 60.9422 305.1838 65.273"/>
  <polygon class="cls-1" points="322.5219 60.9422 321.5759 60.9422 321.5759 72.0279 323.6305 72.0279 323.6305 67.4902 328.2422 67.4902 328.2422 65.613 323.6305 65.613 323.6305 62.8489 328.9221 62.8489 328.9221 60.9422 323.6305 60.9422 322.5219 60.9422"/>
  <polygon class="cls-1" points="337.3768 67.2832 341.7964 67.2832 341.7964 65.4356 337.3768 65.4356 337.3768 62.8193 342.6093 62.8193 342.6093 60.9422 335.3518 60.9422 335.3518 72.0279 342.6685 72.0279 342.6685 70.1655 337.3768 70.1655 337.3768 67.2832"/>
  <polygon class="cls-1" points="348.8174 62.8489 351.9805 62.8489 351.9805 72.0279 354.0351 72.0279 354.0351 62.8489 357.3017 62.8489 357.3017 60.9422 348.8174 60.9422 348.8174 62.8489"/>
  <path class="cls-1" d="M366.8945,62.8046c.3252,0,.6504.0443.9608.1478.3104.1035.606.2513.9016.4435s.5765.4287.8425.7243l1.3155-1.4338c-.2808-.3695-.6356-.6947-1.0642-.9756-.4286-.2808-.8868-.5025-1.3894-.6651-.5025-.1626-1.0346-.2365-1.5668-.2365-.7981,0-1.5224.1478-2.2024.4287-.6799.2808-1.2711.6799-1.7737,1.1973-.5025.5173-.9016,1.1233-1.1825,1.8033-.2808.6799-.4287,1.4338-.4287,2.2319s.133,1.5964.3991,2.3058c.266.6947.6504,1.3155,1.1381,1.8181.4878.5173,1.0642.9016,1.7294,1.1825.6651.2661,1.4042.4139,2.2024.4139.5173,0,1.0347-.0591,1.552-.1921.5173-.1331.9903-.3104,1.419-.5469.4286-.2365.7538-.4878,1.0199-.7686l-1.0199-1.6259c-.2365.2365-.4878.4287-.7686.606s-.5764.3104-.9164.3991c-.3252.0887-.6652.1478-1.0051.1478-.5321,0-1.0347-.0887-1.4781-.266-.4435-.1774-.8277-.4287-1.1529-.7538s-.5765-.7095-.7391-1.1677c-.1626-.4582-.266-.9608-.266-1.5224s.0887-1.0495.266-1.4929.4287-.8425.7391-1.1677l-.0148-.0148c.3104-.3252.6799-.5765,1.1086-.7538s.8869-.266,1.3746-.266Z"/>
  <polygon class="cls-1" points="383.1537 65.539 378.0986 65.539 378.0986 60.9422 376.044 60.9422 376.044 72.0279 378.0986 72.0279 378.0986 67.4754 383.1537 67.4754 383.1537 72.0279 385.2082 72.0279 385.2082 60.9422 383.1537 60.9422 383.1537 65.539"/>
  <path class="cls-1" d="M392.4066,69.663l-.0148.0148c-.3548,0-.6504.1182-.8573.3547-.2217.2365-.3252.5469-.3252.9164,0,.3991.1035.7095.3104.9312.207.2217.5026.3252.8869.3252.3548,0,.6504-.1182.8573-.3547.2217-.2365.3252-.5469.3252-.9164,0-.4139-.1035-.7243-.3104-.946-.2069-.2217-.5025-.3252-.8721-.3252Z"/>
  <path class="cls-1" d="M403.6993,60.9422h-.0148l-4.316,11.0858h2.0545l.9608-2.5275h4.4343l.9608,2.5275h2.1433l-4.2865-11.0858h-1.9363ZM403.0785,67.7119h-.0148l.7391-1.9363c.0739-.2069.1626-.4434.2513-.7095.0887-.2661.1774-.5321.2808-.8277.1035-.2808.1774-.5617.266-.8277v-.0739c.1035.2808.1922.5765.2956.8869.1035.3252.2069.6208.2956.9016.0887.2661.1626.473.207.606l.7538,1.9807h-3.0745Z"/>
  <rect class="cls-1" x="414.2382" y="60.9126" width="2.0841" height="11.1153"/>
  <rect class="cls-1" x="343.304" width="5.0699" height="37.6473"/>
  <path class="cls-1" d="M377.4039,33.8633v3.7986h5.0699V9.5781h-5.0699v3.8135c-2.1433-2.7936-5.6464-4.3752-9.8442-4.3752-7.5679,0-13.2881,6.2819-13.2881,14.6332s5.7055,14.5741,13.2881,14.5741c4.2126,0,7.7157-1.5669,9.8442-4.3604ZM359.4449,23.6496c0-5.5724,3.8135-9.6668,9.0607-9.6668s8.8834,4.2421,8.8834,9.6668-3.8135,9.6077-8.8834,9.6077c-5.2472,0-9.0607-4.0352-9.0607-9.6077Z"/>
  <path class="cls-1" d="M404.4088,8.9869l-.0148.0295c-4.1239,0-7.7009,1.6111-9.8294,4.3752V0h-5.0699v37.6473h4.9073v-3.8135c2.1433,2.7936,5.7055,4.3604,10.0067,4.3604,7.5679,0,13.2882-6.2671,13.2882-14.5741s-5.7055-14.6332-13.2882-14.6332ZM403.448,33.2573c-5.0699,0-8.8834-4.1387-8.8834-9.6077s3.9022-9.6668,8.8834-9.6668c5.2473,0,9.046,4.0648,9.046,9.6668s-3.8135,9.6077-9.046,9.6077Z"/>
  <rect class="cls-1" x="61.5186" y="9.5781" width="5.0699" height="28.0839"/>
  <path class="cls-1" d="M87.7549,9.0164h-.0148c-3.6953,0-6.9914,1.5668-9.046,4.2717v-3.7101h-5.0699v28.0839h5.0699v-15.7417c0-4.523,3.3848-7.9374,7.8783-7.9374s6.3706,2.1875,6.3706,7.3166v16.3625h5.0699v-16.9242c0-7.7748-3.4588-11.7213-10.258-11.7213Z"/>
  <path class="cls-1" d="M118.7212,9.0164h-.0148c-3.6953,0-6.9914,1.5816-9.046,4.2717v-3.7101h-5.0699v28.0839h5.0699v-15.7417c0-4.523,3.3849-7.9374,7.8783-7.9374s6.3706,2.1875,6.3706,7.3166v16.3625h5.0699v-16.9242c0-7.7748-3.4588-11.7213-10.258-11.7213Z"/>
  <path class="cls-1" d="M149.1701,9.0164c-8.2626,0-14.7367,6.4298-14.7367,14.6332s6.4741,14.5741,14.7367,14.5741,14.7367-6.4002,14.7367-14.5741-6.4741-14.6332-14.7367-14.6332ZM149.1701,33.2573c-5.4542,0-9.5633-4.1387-9.5633-9.6077s4.1091-9.6668,9.5633-9.6668,9.5485,4.1535,9.5485,9.6668-4.1091,9.6077-9.5485,9.6077Z"/>
  <path class="cls-1" d="M182.0579,27.2267h-.0148c-.6651,1.4929-1.2268,3.1336-1.5816,4.2274-.3547-1.0938-.9164-2.7345-1.5815-4.2274l-7.834-17.6485h-5.2029l12.4013,28.2465h4.4491l12.3422-28.2465h-5.2029l-7.7748,17.6485Z"/>
  <path class="cls-1" d="M220.0895,13.3916c-2.1433-2.7936-5.6464-4.3752-9.8442-4.3752-7.5679,0-13.2882,6.2819-13.2882,14.6332s5.7055,14.5741,13.2882,14.5741c4.2126,0,7.7157-1.5669,9.8442-4.3604v3.7986h5.0699V9.5781h-5.0699v3.8135ZM211.206,33.2573c-5.2472,0-9.046-4.0352-9.046-9.6077s3.8135-9.6668,9.046-9.6668,8.8834,4.2421,8.8834,9.6668-3.8135,9.6077-8.8834,9.6077Z"/>
  <path class="cls-1" d="M293.7433,23.6496c0-8.1739-6.4741-14.6332-14.7367-14.6332s-14.7367,6.4298-14.7367,14.6332,6.4741,14.5741,14.7367,14.5741,14.7367-6.4002,14.7367-14.5741ZM279.0066,33.2573c-5.4542,0-9.5633-4.1387-9.5633-9.6077s4.1091-9.6668,9.5633-9.6668,9.5633,4.1535,9.5633,9.6668-4.1091,9.6077-9.5633,9.6077Z"/>
  <path class="cls-1" d="M323.8375,37.662v-16.9242c0-7.7748-3.4588-11.7213-10.258-11.7213-3.6953,0-6.9914,1.5668-9.0608,4.2717v-3.7101h-5.0699v28.0839h5.0699v-15.7417c0-4.523,3.3848-7.9374,7.8783-7.9374s6.3706,2.1875,6.3706,7.3166v16.3625h5.0699Z"/>
  <path class="cls-1" d="M240.5516,33.8038c-1.7246-.0043-3.0354-1.1735-3.0354-4.5373v-15.0471h9.2973v-4.4639h-9.2973V3.9909h-5.1881v25.2608c0,6.3854,2.9414,9.2825,8.1591,9.2825,1.9363,0,4.3308-.7686,6.415-2.498l-3.2666-3.2666c-.8265.6641-1.9183,1.0331-3.084,1.0342Z"/>
  <rect class="cls-1" x="61.5038" y=".4582" width="5.0995" height="5.0995"/>
  <rect class="cls-1" x="253.4945" y="9.5781" width="5.0699" height="28.0839"/>
  <rect class="cls-1" x="253.465" y=".4582" width="5.0995" height="5.0995"/>
  <path class="cls-1" d="M33.7894,24.6104c.5173.3548,1.1381.5321,1.7589.5321.8425,0,1.6259-.3252,2.2319-.9164.606-.5912.9312-1.3894.9312-2.2319,0-.6356-.1921-1.2416-.5321-1.7589l-.0148.0148c-.3547-.5173-.8425-.9312-1.419-1.1677s-1.2121-.2956-1.8181-.1774-1.1677.4139-1.6111.8573c-.4434.4287-.7538,1.0051-.8721,1.6112-.1182.606-.0591,1.2416.1774,1.818.2513.5765.6504,1.079,1.1677,1.419Z"/>
  <path class="cls-1" d="M36.7751,35.0458l-.0148.0148c-.5765-.2365-1.2121-.2956-1.8181-.1774-.606.1183-1.1677.4287-1.6111.8573-.4434.4434-.7391,1.0051-.8721,1.6111-.1183.606-.0591,1.2416.1774,1.818.2365.5765.6356,1.0642,1.1677,1.419.5173.3399,1.1233.5321,1.7589.5321.8425,0,1.6407-.3252,2.2319-.9164s.9312-1.3894.9312-2.2319c0-.6208-.1774-1.2416-.5321-1.7589-.3548-.5173-.8425-.9164-1.419-1.1677Z"/>
  <path class="cls-1" d="M21.0186,35.0458l-.0148.0148c-.5764-.2365-1.212-.2956-1.818-.1774-.606.1183-1.1677.4287-1.6111.8573-.4435.4434-.7391,1.0051-.8721,1.6111-.1183.606-.0591,1.2416.1774,1.818.2365.5765.6356,1.0642,1.1677,1.419.5173.3399,1.1234.5321,1.7589.5321.8425,0,1.6407-.3252,2.2319-.9164s.9312-1.3894.9312-2.2319c0-.6208-.1774-1.2416-.5321-1.7589-.3547-.5173-.8425-.9164-1.419-1.1677Z"/>
  <rect class="cls-1" x=".0296" y="2.4389" width="8.4252" height="8.4252"/>
  <rect class="cls-1" y="18.0033" width="7.9965" height="7.9965"/>
  <rect class="cls-1" x="15.8009" y="2.4241" width="7.9965" height="7.9965"/>
  <rect class="cls-1" y="33.5529" width="7.5827" height="7.5827"/>
  <rect class="cls-1" x="16.0079" y="18.2102" width="7.5826" height="7.5827"/>
  <rect class="cls-1" x="31.1288" y="2.4241" width="7.5827" height="7.5827"/>
</svg>