<?xml version="1.0" encoding="UTF-8"?>
<svg id="Layer_1" xmlns="http://www.w3.org/2000/svg" viewBox="0 0 317.1673 70.2179">
  <defs>
    <style>
      .cls-1 {
        fill: #fff;
      }
    </style>
  </defs>
  <g id="g896">
    <g id="g897">
      <g id="g3458">
        <path id="path3456" class="cls-1" d="M0,1.0977h7.8504l14.0692,17.8323V1.0977h7.8339v30.0845h-8.0755L7.8504,13.2341v17.9481H0V1.0977Z"/>
      </g>
      <g id="g3462">
        <path id="path3460" class="cls-1" d="M56.283,22.426c1.6085-1.6515,2.4359-3.8094,2.4359-6.4438,0-2.4326-.8274-4.4746-2.4756-6.1228-1.6482-1.6515-3.7299-2.4756-6.2055-2.4756-2.512,0-4.5574.8638-6.2055,2.512-1.6118,1.6515-2.4359,3.7697-2.4359,6.3247,0,2.5517.7877,4.6335,2.3995,6.285,1.5688,1.6085,3.6505,2.4326,6.2022,2.4326,2.555,0,4.6335-.8241,6.285-2.512M38.1363,27.6883c-3.1408-3.0647-4.6765-6.9138-4.6765-11.587,0-4.7096,1.6151-8.5984,4.8751-11.6631,3.1805-2.9489,7.0694-4.4382,11.7425-4.4382s8.6414,1.5324,11.822,4.5938c3.1805,3.025,4.7526,6.798,4.7526,11.2362,0,4.789-1.6118,8.7573-4.8321,11.8981-3.1805,3.025-7.1091,4.5574-11.7823,4.5574-4.8354,0-8.797-1.5324-11.9014-4.5971"/>
      </g>
      <g id="g3466">
        <path id="path3464" class="cls-1" d="M81.1343,14.6481c2.7106,0,4.0444-1.2577,4.0444-3.7697s-1.2941-3.773-3.9649-3.773h-2.4458v7.5426h2.3664ZM70.9241,1.0985h11.9775c2.9886,0,5.3814.8274,7.3043,2.4359,1.9626,1.7276,2.9886,4.0444,2.9886,6.9899,0,4.1635-1.7309,6.9138-5.1862,8.2112l8.0523,12.4475h-9.3894l-6.3214-10.604h-1.582v10.604h-7.8438V1.0985Z"/>
      </g>
      <g id="g3470">
        <path id="path3468" class="cls-1" d="M103.4128,8.9435h-6.3677V1.0964h20.5792v7.8471h-6.371v22.2407h-7.8405V8.9435Z"/>
      </g>
      <g id="g3474">
        <path id="path3472" class="cls-1" d="M122.5757,1.0977h7.8438v10.6305h11.0144V1.0977h7.8471v30.0878h-7.8471v-11.6102h-11.0144v11.6102h-7.8438V1.0977Z"/>
      </g>
      <g id="g3478">
        <path id="path3476" class="cls-1" d="M165.3487,14.6481c2.7073,0,4.0444-1.2577,4.0444-3.7697s-1.2941-3.773-3.9682-3.773h-2.4425v7.5426h2.3664ZM155.1385,1.0985h11.9775c2.9853,0,5.3814.8274,7.3043,2.4359,1.9626,1.7276,2.9853,4.0444,2.9853,6.9899,0,4.1635-1.7276,6.9138-5.1829,8.2112l8.0523,12.4475h-9.3894l-6.3214-10.604h-1.582v10.604h-7.8438V1.0985Z"/>
      </g>
      <g id="g3482">
        <path id="path3480" class="cls-1" d="M204.2238,22.426c1.6085-1.6515,2.4326-3.8094,2.4326-6.4438,0-2.4326-.8241-4.4746-2.4756-6.1228-1.6482-1.6515-3.7299-2.4756-6.2055-2.4756-2.5087,0-4.5574.8638-6.2055,2.512-1.6052,1.6515-2.4326,3.7697-2.4326,6.3247,0,2.5517.7844,4.6335,2.3962,6.285,1.5688,1.6085,3.6538,2.4326,6.2055,2.4326,2.555,0,4.6335-.8241,6.285-2.512M186.0805,27.6883c-3.1475-3.0647-4.6798-6.9138-4.6798-11.587,0-4.7096,1.6151-8.5984,4.8751-11.6631,3.1805-2.9489,7.0694-4.4382,11.7425-4.4382,4.6765,0,8.6381,1.5324,11.8187,4.5938,3.1805,3.025,4.7559,6.798,4.7559,11.2362,0,4.789-1.6118,8.7573-4.8321,11.8981-3.1805,3.025-7.1124,4.5574-11.7856,4.5574-4.8321,0-8.7937-1.5324-11.8948-4.5971"/>
      </g>
      <g id="g3486">
        <path id="path3484" class="cls-1" d="M229.9413,14.9228c3.1011,0,4.6335-1.3371,4.6335-4.0444,0-2.5914-1.4926-3.8491-4.5574-3.8491h-2.6775v7.8935h2.6014ZM219.4928,1.0985h13.4338c2.9058,0,5.2623.9399,6.9502,2.9058,1.6945,1.8071,2.5153,4.2396,2.5153,7.1885,0,2.8264-.8208,5.1034-2.5153,6.8311-1.6482,1.7673-3.9252,2.6742-6.7152,2.6742h-5.8216v10.4849h-7.8471V1.0985Z"/>
      </g>
    </g>
    <g id="g898">
      <g id="g3442">
        <path id="path3440" class="cls-1" d="M37.8603,65.6208c-2.9058-3.0647-4.3985-6.9138-4.3985-11.5076,0-4.5176,1.4926-8.327,4.3985-11.4314,3.0217-3.1772,6.7549-4.7493,11.2362-4.7493,6.0467,0,10.561,2.512,13.586,7.5393l-6.2817,3.4586c-.1556-.3938-.4766-.8274-.9466-1.3371-1.6846-1.8832-3.8491-2.8264-6.4405-2.8264s-4.5176,1.0194-5.8117,3.0217c-1.0988,1.6879-1.6515,3.8888-1.6515,6.6391,0,2.7867.6685,4.9479,1.9659,6.5597,1.4165,1.7673,3.4983,2.6312,6.2055,2.6312,1.5721,0,3.025-.5097,4.3224-1.4926,1.4099-1.0624,2.2009-2.3167,2.3565-3.8491h-6.9105v-6.285h15.0786v1.6515c0,5.1034-1.2577,9.1114-3.8127,12.0172-2.6709,3.025-6.52,4.5574-11.587,4.5574-4.5938,0-8.3601-1.5324-11.309-4.5971"/>
      </g>
      <g id="g3502">
        <path id="path3500" class="cls-1" d="M79.4439,52.5827c2.7073,0,4.0444-1.2577,4.0444-3.7697,0-2.5153-1.2941-3.773-3.9682-3.773h-2.4425v7.5426h2.3664ZM69.2337,39.0331h11.9775c2.9853,0,5.3814.8274,7.3043,2.4359,1.9659,1.7276,2.9853,4.0444,2.9853,6.9899,0,4.1635-1.7276,6.9138-5.1829,8.2112l8.0523,12.4475h-9.3894l-6.3214-10.604h-1.582v10.604h-7.8438v-30.0845Z"/>
      </g>
      <g id="g3446">
        <path id="path3444" class="cls-1" d="M101.0534,67.5857c-2.6742-2.0023-4.0477-4.7526-4.0477-8.2079v-20.3476h7.8537v18.6961c0,3.6141,1.8071,5.4212,5.4245,5.4212,1.6052,0,2.9919-.4336,3.9385-1.2974.9763-.9002,1.4893-2.1579,1.4893-3.7299v-19.0899h7.8471v19.4838c0,3.8094-1.3007,6.7549-3.9318,8.8764-2.3929,1.8832-5.5734,2.8264-9.5052,2.8264-3.6141,0-6.6358-.8638-9.0684-2.6312"/>
      </g>
      <g id="g3494">
        <path id="path3492" class="cls-1" d="M146.8937,54.5815l9.9355-15.5486h7.8471v30.0878h-7.8339v-17.6568h-.0132l-7.8206,12.2721h-4.1602l-7.8604-12.2721h-.0132v17.6568h-7.8637v-30.0878h7.8637l9.9189,15.5486Z"/>
      </g>
      <g id="g3498">
        <path id="path3496" class="cls-1" d="M188.9136,54.5815l9.9322-15.5486h7.8504v30.0878h-7.8372v-17.6568h-.0132l-7.8173,12.2721h-4.1602l-7.8604-12.2721h-.0298l-.0033,17.6568h-7.8438v-30.0878h7.8604l9.9223,15.5486Z"/>
      </g>
      <g id="g3450">
        <path id="path3448" class="cls-1" d="M229.4209,57.4922l-3.1805-9.1908-3.2203,9.1908h6.4008ZM221.8551,39.0311h8.9823l11.1534,30.0878h-8.4859l-2.042-5.5767h-10.4021l-2.0056,5.5767h-8.37l11.17-30.0878Z"/>
      </g>
      <g id="g3454">
        <path id="path3452" class="cls-1" d="M246.3149,39.0323h7.857l13.8375,17.8323v-17.8323h7.8405v30.0878h-7.857l-13.8276-17.9514v17.9514h-7.8504v-30.0878Z"/>
      </g>
    </g>
    <g id="g899">
      <path id="path3488" class="cls-1" d="M246.3149,1.0977v7.8537h63.002v60.1657h7.8504V1.0977h-70.8524Z"/>
    </g>
  </g>
</svg>