<?xml version="1.0" encoding="UTF-8"?>
<svg id="Layer_1" xmlns="http://www.w3.org/2000/svg" viewBox="0 0 291.0237 76.7127">
  <defs>
    <style>
      .cls-1 {
        fill: #fff;
      }
    </style>
  </defs>
  <path class="cls-1" d="M257.4447,3.9881c1.6732,2.6287,2.3954,3.7632,3.3932,5.3308.4323-2.64.8012-4.8929,1.1701-7.1457.6631.0656,1.3261.1311,1.9892.1967-.2883,5.6268-.5766,11.2535-.8649,16.8803.3583.0507.7165.1015,1.0748.1522,1.0342-6.2597,2.0684-12.5194,3.2056-19.4023,3.3763.6483,6.4303,1.2347,9.9452,1.9095-1.587,6.984-3.0259,13.3163-4.4648,19.6487.369.1004.738.2009,1.1069.3013,1.7675-5.4321,3.535-10.8642,5.3025-16.2963.4555.0068.9109.0135,1.3664.0203v5.7861c1.0724-.4455,2-.8308,4.3121-1.7913,1.4759,5.1659,2.9936,10.1397,4.2868,15.1701.523,2.0342.0671,4.4101.9054,6.2515,2.2629,4.9702-.2447,7.4203-4.5295,8.0463-13.959,2.0392-27.3504.0615-39.522-7.3395-4.8984-2.9785-4.8684-4.8053-1.4194-9.4029,1.0508-1.4008,1.5218-3.2232,2.5473-4.6487,3.1439-4.3699,6.428-8.6408,10.1948-13.6669ZM247.2696,26.6126c8.4375,8.5301,31.1373,12.5679,38.4383,7.1267-13.5169,1.1465-26.2931-1.2805-38.4383-7.1267Z"/>
  <path class="cls-1" d="M2.0798,75.5798c-.124-1.9412-.2442-3.8218-.4214-6.5938,5.9226,0,11.4309.003,16.9392-.0015,2.1643-.0018,4.3301.0276,6.4924-.0425,3.5651-.1155,6.5569-1.0599,6.5497-5.3814-.0072-4.3375-3.1234-5.2563-6.6001-5.4055-4.3218-.1855-8.6618.0063-12.9793-.229C3.1857,57.4425-.2581,53.6618.015,45.0032c.2155-6.8338,3.3398-10.8883,10.3958-11.347,8.9377-.581,17.9431-.1404,26.8423-.1404,1.5306,6.3519,1.3068,6.6506-4.8689,6.6817-5.5909.0282-11.1828-.0239-16.7724.0687-3.8056.0631-6.9515,1.3824-7.0246,5.7199-.0762,4.5219,3.2079,5.4972,6.9914,5.5306,4.5086.0399,9.0225-.081,13.5252.093,7.3958.2859,10.5295,3.1436,11.0383,9.7583.6638,8.629-1.9938,13.4002-9.5549,14.0279-9.2861.7709-18.6871.1839-28.5074.1839Z"/>
  <path class="cls-1" d="M231.1934,56.7317c-.4008-6.5169-5.1362-5.589-9.006-5.7352-3.9282-.1485-7.8665-.0328-12.1206-.0328v-5.8926c7.3599,0,14.6909-.3785,21.9564.1414,4.3855.3138,7.1676,3.7416,7.3744,8.0498.3563,7.4257.0987,14.8803.0987,22.7823-8.3833,0-16.4501.3544-24.4654-.1288-5.0592-.305-7.3485-4.0474-7.3877-8.9632-.0388-4.8572,1.9177-8.5128,7.1264-9.1446,5.3062-.6436,10.682-.7246,16.424-1.0762ZM231.1852,63.2376c-4.1443,0-7.7308-.2796-11.2307.1434-1.3215.1597-2.4428,1.9437-3.6554,2.9872,1.2014,1.244,2.2772,3.373,3.6283,3.5609,3.6111.5022,7.3403.171,11.2577.171v-6.8626Z"/>
  <path class="cls-1" d="M196.2034,69.0252v7.6875c-7.9756-.6307-15.9022-1.2401-23.8232-1.9151-.677-.0577-1.3315-.5223-1.9703-.8483-7.7089-3.9342-10.8471-13.0921-8.7601-25.5355,1.4854-8.8566,6.8375-14.3454,15.6988-15.095,6.0534-.512,12.1866-.098,18.7272-.098v6.7934c-4.593,0-9.0477-.1026-13.4957.0229-7.5419.2129-10.6913,3.171-11.5211,10.6467-.1768,1.5931-.2355,3.2037-.2634,4.8077-.1809,10.4025,2.8201,13.4559,13.2977,13.5291,3.9299.0275,7.8602.0044,12.1101.0044Z"/>
  <path class="cls-1" d="M84.4522,45.5322c-4.6921,5.0418-8.9013,9.5648-13.4591,14.4623,4.5071,5.0934,8.8291,9.9776,13.5049,15.2618-5.9502,1.4767-10.2852,1.0079-13.6131-4.043-2.2968-3.4859-5.413-6.4423-9.1735-10.8087v15.0442h-7.1541v-41.7417h6.9199v25.5558c8.2737-4.2589,9.9717-16.8215,22.975-13.7307Z"/>
  <path class="cls-1" d="M256.6807,51.0451c-2.3679-.3978-3.9148-.6576-5.652-.9495v-4.9991c1.7633-.2703,3.3109-.5074,5.1408-.7879.3-1.5275.5944-3.0263.9631-4.9036,2.2833.5411,5.7756.5344,6.1472,1.5975,1.8759,5.3658,6.6063,2.8496,10.2498,4.2049.077,1.4435.1578,2.9572.2655,4.9759-2.9174.2169-5.5305.4111-8.7569.6509,0,5.1058-.7241,10.3316.3281,15.1792.4734,2.1811,4.4938,3.6072,6.9048,5.3759.4202-.3495.8405-.699,1.2607-1.0485.0934,1.6837.1869,3.3674.3157,5.6885-3.5478,0-6.7697.385-9.8578-.0874-5.0356-.7701-7.2293-4.2792-7.2936-9.1357-.068-5.1366-.0153-10.2747-.0153-15.7612Z"/>
  <path class="cls-1" d="M148.7187,75.6176h-7.3257v-42.0504h7.3257v42.0504Z"/>
  <path class="cls-1" d="M119.5387,33.4471h6.7286v42.0919h-6.7286v-42.0919Z"/>
  <path class="cls-1" d="M103.7669,75.6158h-6.8267v-30.2175h6.8267v30.2175Z"/>
  <path class="cls-1" d="M97.0745,33.4681h6.7837c.1133,2.0475.2242,4.0506.3577,6.4619h-7.1415v-6.4619Z"/>
  <path class="cls-1" d="M247.2696,26.6126c12.1453,5.8461,24.9214,8.2732,38.4383,7.1267-7.3011,5.4413-30.0008,1.4035-38.4383-7.1267Z"/>
</svg>