<?xml version="1.0" encoding="UTF-8"?>
<svg id="Layer_1" xmlns="http://www.w3.org/2000/svg" viewBox="0 0 461.3227 94.8255">
  <defs>
    <style>
      .cls-1 {
        fill: #fff;
      }
    </style>
  </defs>
  <path class="cls-1" d="M328.1303,47.3821c.0115-.3946-.1659-.8981-.5091-1.1669-.3488-.2804-.7266-.3376-1.0985-.3376h-1.9051l-14.7024,33.3177-3.8328-17.8488c-.2231-1.5674-1.4815-2.6373-2.969-2.5514h-2.4714l-11.6074,20.2057.1145-31.5216c.0115-.4232-.1543-.9382-.5262-1.2301-.3603-.2975-.7664-.3719-1.1729-.3719h-2.477v37.8715h3.1579v-.0056c.0171,0,.0457.0056.0688.0056.9267.0115,1.7678-.2231,2.4543-.7207.6236-.4462,1.1613-1.0699,1.6362-1.8192l10.1601-18.1292,4.2333,20.669h2.7116c1.7277,0,3.175-1.007,3.9302-2.7232l14.611-32.8543c.103-.2689.1889-.4462.1945-.7895M461.3165,45.8772h-15.6291c-7.2997.0171-8.0721,6.0127-8.1063,8.8385,0,2.9749,2.1624,5.3433,3.2378,6.3042l10.6406,10.4234c1.2643,1.2413,1.8764,2.7061,1.8764,4.0675,0,2.3056-1.7619,4.1932-4.6111,4.182-.0056.0171-13.7758.023-13.9015.0573-.4518.0859-.9267.6749-.9152,1.1498h-.0402l.0402.0171v2.8433h15.4689c7.3053-.0286,8.0721-6.0127,8.1122-8.8385,0-.0115-.0056-.0115-.0056-.023.0056-3.9131-3.5985-6.9394-3.6212-6.9509l-10.0913-9.9314c-1.2584-1.2413-2.0367-2.5172-2.0423-3.8901.0056-2.3171,1.7678-4.1932,4.6052-4.1932.0171-.0056,13.9472-.0171,14.0617-.0513l.0342.103-.0286-.103c.4518-.0859.9326-.6809.9211-1.1498,0,0-.0056-.0056,0-.0115,0-.023-.0056-2.3056-.0056-2.8433M349.7732,49.6758c-6.945-.3834-14.8854,3.7071-17.6142,14.7482-2.6886,10.8239,2.3342,16.081,9.1419,16.9563l.7095.0342c7.0253.3719,14.502-3.7242,17.1337-14.7653,2.5685-10.8295-2.4658-16.2699-9.3706-16.9734M363.206,66.9753c-2.5573,10.7666-10.3144,19.2619-22.7002,18.3066v-.0056c-11.5215-1.3328-14.8226-11.4702-12.3913-21.1841,2.683-10.7551,10.4119-19.2504,22.6199-18.3066v.0115c11.3672,1.3272,14.7709,11.4758,12.4713,21.1785M432.1697,46.2379c-.3205-.2402-.6809-.286-1.0412-.2919h-1.8478l-19.4906,16.6704,2.5915-14.7311c.1603-.8181-.2346-1.3729-.5664-1.6076-.3432-.2633-.7724-.4005-1.19-.4005h-1.8764l-7.0364,37.8715h4.1649l3.0835-16.7618,15.4347,16.7734h1.8478c.3663-.0115.7207-.0629,1.0356-.3031.3205-.2231.492-.6694.4805-1.0297,0-.6809-.5548-1.3673-.5548-1.3673l-14.605-15.8694,19.4965-16.5558s.5492-.4689.5492-1.3673c.0056-.3603-.1543-.7951-.4749-1.0297M393.0345,51.6269c-.7608-.7381-1.9222-1.0925-3.7186-1.4302-.4689-.0859-1.2413-.1543-2.1167-.2001-2.1683-.1201-8.6098-.023-10.5833-.0056l-2.4941,13.7758c1.4815.023,3.1809.0457,4.3765.0513,3.3695,0,6.6304-.1086,8.9359-.7381,5.9324-1.6076,8.8731-8.335,5.6007-11.4531M396.8621,49.3385c1.6875,1.9166,1.8136,5.4746,1.3328,7.666-.5835,2.6774-3.1293,9.4335-12.6717,10.2858l8.0379,13.7698s.5492.8237.5492,1.3673c.0056.3603-.1543.8066-.4805,1.0297-.3205.2402-.6694.3031-1.0297.3031h-2.1222l-9.4279-16.2472-7.5916-.0342-2.9463,16.2814h-4.1705l7.048-37.8831h9.731c5.7494,0,10.7953.0859,13.7412,3.461M116.7837,53.9664c-.4749,3.0493.4633,6.6304,3.8615,9.0044l12.1053,8.4495c1.2699.8754,1.8991,1.4815,1.7448,2.5056-.2287,1.4131-.9668,1.985-3.4781,1.985h-14.0788c-1.5046,0-2.3227.7381-2.5971,2.4372v5.2459h16.493c7.2309,0,10.8064-4.262,11.5275-8.7928.6749-4.262-.7553-7.3053-3.5067-9.2676l-12.8662-9.1304c-1.0356-.7437-1.293-1.1271-1.2186-1.6875.1145-.9267.9613-1.3101,2.4257-1.3101h14.7024c1.7965,0,2.8202-1.8363,3.1066-3.6554v-4.0332h-19.4393c-4.3136,0-8.0836,3.8559-8.7812,8.2495M263.328,45.7113h-20.389l-.103.6121c-.4749,2.5685-.2633,5.549,3.8042,5.549h15.1029c5.9781,0,8.2666,4.3248,6.7847,12.4426-1.3614,7.4369-5.366,13.1179-11.4531,13.1179h-8.1866l3.8845-21.3042h-6.9621c-.9382,0-1.5845.6809-1.6935,1.287l-4.777,26.1726h15.9668c11.7904,0,20.0112-5.549,22.557-19.5479,1.9679-10.7551-2.5116-18.3293-14.5366-18.3293M214.9238,77.4389h-16.0925l5.5605-30.4346c.103-.6121-.3488-1.287-1.1041-1.287h-7.0822l-6.9163,37.8715h26.6587l.6921-3.7815c.309-1.6991-.2633-2.3684-1.7162-2.3684M234.9808,45.7113h-7.0822l-6.9163,37.8771h8.4209l6.682-36.5901c.1145-.6121-.3432-1.287-1.1041-1.287M169.4841,52.2044c-7.6831,0-11.7104,4.468-13.1521,13.2551-1.4417,8.8043,1.1156,13.2607,8.7987,13.2607s11.7048-4.4564,13.1462-13.2607c1.4473-8.7872-1.1097-13.2551-8.7928-13.2551M186.6408,65.4596c-1.7678,10.7551-9.0445,19.7595-22.5741,19.7595-13.5411,0-17.8603-9.0044-16.0925-19.7595,1.7619-10.7495,9.0445-19.7424,22.58-19.7424s17.8544,8.9932,16.0869,19.7424M88.2437,32.5194c-8.0492-1.3216-22.4369-1.8307-27.3568,5.7093-3.7986,5.8238,3.381,13.8044,9.9199,21.5329,5.2402,6.1897,10.9438,12.1053,8.6156,15.5604-1.8993,2.8262-14.0904,2.8202-18.2893,3.0434-5.0972.2689-12.4426.286-13.7241.984-1.1498.6177-1.7905,2.5399,2.5229,3.3122,3.4667.6236,11.7219,1.888,20.429,1.882,9.0903,0,18.6383-1.493,20.7092-8.5298,1.6647-5.652-4.1074-11.7104-9.1819-17.8544-5.5492-6.7278-11.1785-11.5215-10.7036-16.287.3603-3.7071,7.6316-3.9187,19.6908-4.1303,2.5056-.0457,7.4998-.1659,6.5389-2.1453-.8583-1.7507-4.5938-2.3283-9.1704-3.0779M51.1446,49.2976c-5.1602-3.5413-14.3592-4.7253-21.9336-4.3307-6.7447.3548-18.3408,2.5-17.9061,4.6338.4118,2.3056,7.7517,1.5905,11.1154,1.5905,7.397,0,19.136.4518,20.9838,5.2173,3.9873,10.2687-23.049,28.7069-28.8155,26.9335-2.6086-.7951,5.2974-14.1989,8.1636-19.0157,1.7048-2.8775,4.3021-7.3971,2.088-7.7058-2.4772-.3432-5.2059,3.9131-6.9794,6.3671-4.8112,6.6646-9.7367,13.9416-13.6899,21.4187-1.2242,2.3111-5.2745,9.2621-3.8843,10.1601,1.2986.8352,7.4829-.3548,15.3489-3.4725,24.7252-9.7882,35.8579-22.5455,38.8384-33.0834,1.047-3.7127-.7608-6.9509-3.3295-8.7128M32.7866,4.2807c-.5091-1.6648,7.7402-3.8272,16.7847-4.2277,9.1131-.4005,19.8911,1.4131,21.9049,7.4254,3.2895,9.8511-13.3981,24.2159-27.9345,31.2754-3.5697,1.7277-5.7265,2.2026-6.6304,2.0824-.8523-.1145-.9897-.9152-.7093-1.4644.5148-1.0356,2.8662-3.1464,6.0012-5.4404,16.3671-11.9566,21.6874-20.7263,18.5983-24.2791-1.985-2.2769-10.2802-3.8615-18.8958-3.8615-2.3398,0-8.4839.5091-9.1189-1.5102"/>
</svg>