<?xml version="1.0" encoding="UTF-8"?>
<svg id="Layer_1" data-name="Layer 1" xmlns="http://www.w3.org/2000/svg" viewBox="0 0 353.13 71.03">
  <defs>
    <style>
      .cls-1 {
        fill: #49b5d7;
      }

      .cls-1, .cls-2, .cls-3, .cls-4, .cls-5 {
        stroke-width: 0px;
      }

      .cls-2 {
        fill: #93c7d5;
      }

      .cls-3 {
        fill: #2a637b;
      }

      .cls-4 {
        fill: #45b3d6;
      }

      .cls-5 {
        fill: #3fb0d4;
      }
    </style>
  </defs>
  <path class="cls-2" d="M16.01,44.83c-3.96-6.84-7.97-13.64-11.85-20.52-1.63-2.89-2.67-6.03-3.41-9.29C-1.14,6.74.24,3.77,8.56,2.37,19.63.5,30.82-1.21,42.09,1.14c-1.9.48-3.81.93-5.7,1.43-3.92,1.04-8.16,1.53-10.33,5.72-4.54,4.67-4.52,10.45-3.61,16.23,1.29,8.12,2.94,16.19,4.44,24.27-1.93.59-3.62,1-5.41-.83-1.43-1.45-3.15-2.96-5.46-3.14Z"/>
  <path class="cls-3" d="M26.06,8.29c2.18-4.19,6.41-4.68,10.33-5.72,1.89-.5,3.8-.96,5.7-1.43,8.81-.39,17.61-.54,26.24,1.75,11.25,2.99,12.86,5.79,8.75,16.53-3.13,8.18-6.62,16.23-13.1,22.5-.12-4.41,2.74-8.83,0-13.24-.45-5.14-4.33-7.62-8.12-9.92-9.18-5.56-19.47-8.13-29.81-10.47Z"/>
  <path class="cls-5" d="M63.99,28.68c2.73,4.42-.13,8.83,0,13.24-3.41,5.85-5.95,12.2-10.22,17.58-2.91,3.66-5.9,7.2-9.83,9.83-3.47,2.32-6.93,2.34-10.1-.41-7.72-6.7-13.59-14.79-17.82-24.09,2.31.18,4.04,1.69,5.46,3.14,1.8,1.83,3.48,1.41,5.41.83,1.64,1.73,3.74,1.18,5.63.91,5.08-.71,9.38-3.34,13.32-6.37,6.16-4.73,12.1-9.76,18.14-14.66Z"/>
  <path class="cls-1" d="M268.21,54.76c-17.3,1.15-19.88-4.08-19.15-18.97.09-1.82.16-3.66,0-5.47-.26-2.86.95-3.7,3.74-3.7,2.95,0,3.15,1.53,3.11,3.77-.08,4.15-.04,8.3,0,12.45.03,3.4,1.63,5.21,5.22,5.15,4.99-.08,9.97-.03,14.96-.02,2.59,0,4.79-.71,4.9-3.7.12-3.14-1.9-4.4-4.8-4.43-4.32-.03-8.65-.11-12.96.06-2.65.11-3.43-.92-3.43-3.46,0-2.56.81-3.57,3.44-3.48,4.65.16,9.32-.12,13.96.14,6.64.38,10.9,5.07,10.67,11.35-.21,5.94-4.73,10.14-11.16,10.31-2.82.07-5.65.01-8.48.01Z"/>
  <path class="cls-5" d="M130.53,43.41c-3.16,0-6.36.3-9.48-.07-4.86-.57-6.55,1.26-6.02,6.06.25,2.27,1.36,5.71-3.36,5.39-2.07-.14-3-.69-2.98-2.89.07-8.14.08-16.29,0-24.43-.02-2.35,1.2-2.71,3.13-2.67,1.79.04,3.43.05,3.24,2.52-.01.16,0,.33,0,.5q.73,8.86,9.57,8.87c5.66,0,11.33-.23,16.98.03,3.62.17,4.76-1.24,4.36-4.6-.18-1.47.07-3-.05-4.48-.21-2.7,1.42-2.82,3.46-2.86,2.23-.05,3.37.5,3.33,3.03-.11,7.98-.11,15.96,0,23.94.04,2.58-1.21,3.01-3.38,2.99-2.1-.02-3.29-.29-3.47-2.92-.58-8.41-.71-8.4-9.36-8.4-2,0-4,0-5.99,0Z"/>
  <path class="cls-1" d="M332.99,54.74c-3.16,0-6.33.14-9.48-.04-5.73-.33-10.15-4.72-10.44-10.14-.29-5.31,3.23-10.24,8.78-11.06,7.4-1.1,14.95-.96,22.35-.05,5.74.7,9.37,5.91,8.88,11.4-.49,5.64-4.7,9.62-10.62,9.88-3.15.14-6.32.02-9.48.02ZM333.15,47.94s0,.01,0,.02c2.82,0,5.64,0,8.46,0,2.74.01,4.54-1.12,4.52-4.04-.02-2.59-1.61-4-4.11-4.04-5.97-.09-11.94-.05-17.91.02-2.58.03-4.07,1.65-4.1,4.08-.03,2.54,1.67,3.88,4.18,3.94,2.98.08,5.97.02,8.96.02Z"/>
  <path class="cls-4" d="M174.89,54.73c-2.99,0-5.99.13-8.97-.02-5.82-.29-10.04-4.35-10.57-9.98-.48-5.05,3.13-10.34,8.58-11.19,7.55-1.17,15.26-1.13,22.8-.01,5.75.85,9.18,6.12,8.54,11.63-.62,5.38-4.74,9.25-10.42,9.54-3.31.17-6.64.03-9.97.03ZM175.06,47.96s0-.02,0-.02c3.16,0,6.32.04,9.48-.01,2.38-.04,3.82-1.51,3.97-3.69.16-2.49-1.44-4.24-3.89-4.31-6.15-.18-12.31-.16-18.46.03-2.43.07-4.11,1.74-4,4.24.11,2.53,1.92,3.74,4.42,3.76,2.83.03,5.66,0,8.49,0Z"/>
  <path class="cls-1" d="M248.09,33.63c-5.44,9.27-10.64,18.12-15.81,26.97-2.08,3.57-5.19,1.48-8.51,1.89,1.35-2.74,2.43-4.91,3.52-7.11-11.84-2.37-12.01-14.35-19.08-21.6,4.87-1.24,8.2-1.42,10.27,3.08,1.17,2.55,2.76,4.92,4.21,7.34,3.32,5.51,8.16,5.55,11.38.11,1.27-2.14,2.75-4.2,3.72-6.47,1.9-4.45,5-5.85,10.31-4.22Z"/>
  <path class="cls-1" d="M305.13,33.03c2.26.88,7.31-2.49,6.78,4.13-.15,1.9-.8,2.68-2.69,2.62-2.16-.06-4.32,0-6.49.05-5.89.11-6.8,1.06-6.85,7.12-.01,1.49-.13,3,.02,4.48.28,2.75-1.08,3.35-3.53,3.32-2.23-.02-3.47-.54-3.33-3.05.14-2.48-.09-4.99.07-7.47.5-7.89,5.03-11.1,16.01-11.2Z"/>
  <path class="cls-5" d="M205.09,40.99c0,3.49-.08,6.98.04,10.46.07,2.27-.63,3.31-3.1,3.29-2.31-.01-3.27-.69-3.24-3.12.11-7.3.09-14.61.02-21.91-.02-2.03.54-3.08,2.8-3.02,2.03.05,3.6.16,3.51,2.85-.13,3.81-.03,7.64-.03,11.45Z"/>
</svg>