<?xml version="1.0" encoding="UTF-8"?>
<svg id="Layer_1" data-name="Layer 1" xmlns="http://www.w3.org/2000/svg" viewBox="0 0 350.27 72">
  <defs>
    <style>
      .cls-1 {
        fill: #ee2722;
        stroke-width: 0px;
      }
    </style>
  </defs>
  <path class="cls-1" d="M249.14,35.98c0-.3-.13-.68-.39-.89-.26-.21-.55-.26-.83-.26h-1.45l-11.16,25.3-2.91-13.55c-.17-1.19-1.12-2-2.25-1.94h-1.88l-8.81,15.34.09-23.93c0-.32-.12-.71-.4-.93-.27-.23-.58-.28-.89-.28h-1.88v28.76h2.4s.03,0,.05,0c.7,0,1.34-.17,1.86-.55.47-.34.88-.81,1.24-1.38l7.71-13.77,3.21,15.69h2.06c1.31,0,2.41-.76,2.98-2.07l11.09-24.95c.08-.2.14-.34.15-.6M350.27,34.83h-11.87c-5.54.01-6.13,4.57-6.15,6.71,0,2.26,1.64,4.06,2.46,4.79l8.08,7.91c.96.94,1.42,2.05,1.42,3.09,0,1.75-1.34,3.18-3.5,3.18,0,.01-10.46.02-10.56.04-.34.07-.7.51-.69.87h-.03.03v2.17h11.75c5.55-.02,6.13-4.57,6.16-6.71,0,0,0,0,0-.02,0-2.97-2.73-5.27-2.75-5.28l-7.66-7.54c-.96-.94-1.55-1.91-1.55-2.95,0-1.76,1.34-3.18,3.5-3.18.01,0,10.59-.01,10.68-.04l.03.08-.02-.08c.34-.07.71-.52.7-.87,0,0,0,0,0,0,0-.02,0-1.75,0-2.16M265.58,37.72c-5.27-.29-11.3,2.81-13.37,11.2-2.04,8.22,1.77,12.21,6.94,12.87l.54.03c5.33.28,11.01-2.83,13.01-11.21,1.95-8.22-1.87-12.35-7.11-12.89M275.78,50.85c-1.94,8.17-7.83,14.63-17.24,13.9h0c-8.75-1.02-11.25-8.71-9.41-16.09,2.04-8.17,7.91-14.62,17.17-13.9h0c8.63,1.02,11.22,8.72,9.47,16.09M328.14,35.11c-.24-.18-.52-.22-.79-.22h-1.4l-14.8,12.66,1.97-11.19c.12-.62-.18-1.04-.43-1.22-.26-.2-.59-.3-.9-.3h-1.42l-5.34,28.76h3.16l2.34-12.73,11.72,12.74h1.4c.28,0,.55-.05.79-.23.24-.17.37-.51.36-.78,0-.52-.42-1.04-.42-1.04l-11.09-12.05,14.8-12.57s.42-.36.42-1.04c0-.27-.12-.6-.36-.78M298.42,39.2c-.58-.56-1.46-.83-2.82-1.09-.36-.07-.94-.12-1.61-.15-1.65-.09-6.54-.02-8.04,0l-1.89,10.46c1.12.02,2.42.03,3.32.04,2.56,0,5.03-.08,6.78-.56,4.5-1.22,6.74-6.33,4.25-8.7M301.33,37.46c1.28,1.46,1.38,4.16,1.01,5.82-.44,2.03-2.38,7.16-9.62,7.81l6.1,10.46s.42.63.42,1.04c0,.27-.12.61-.36.78-.24.18-.51.23-.78.23h-1.61l-7.16-12.34-5.76-.03-2.24,12.36h-3.17l5.35-28.76h7.39c4.37,0,8.2.07,10.43,2.63M88.67,40.98c-.36,2.32.35,5.03,2.93,6.84l9.19,6.42c.96.66,1.44,1.12,1.32,1.9-.17,1.07-.73,1.51-2.64,1.51h-10.69c-1.14,0-1.76.56-1.97,1.85v3.98h12.52c5.49,0,8.21-3.24,8.75-6.68.51-3.24-.57-5.55-2.66-7.04l-9.77-6.93c-.79-.56-.98-.86-.93-1.28.09-.7.73-.99,1.84-.99h11.16c1.36,0,2.14-1.39,2.36-2.78v-3.06h-14.76c-3.28,0-6.14,2.93-6.67,6.26M199.94,34.71h-15.48l-.08.46c-.36,1.95-.2,4.21,2.89,4.21h11.47c4.54,0,6.28,3.28,5.15,9.45-1.03,5.65-4.07,9.96-8.7,9.96h-6.22l2.95-16.18h-5.29c-.71,0-1.2.52-1.29.98l-3.63,19.87h12.12c8.95,0,15.19-4.21,17.13-14.84,1.49-8.17-1.91-13.92-11.04-13.92M163.19,58.8h-12.22l4.22-23.11c.08-.46-.26-.98-.84-.98h-5.38l-5.25,28.76h20.24l.53-2.87c.23-1.29-.2-1.8-1.3-1.8M178.42,34.71h-5.38l-5.25,28.76h6.39l5.07-27.78c.09-.46-.26-.98-.84-.98M128.69,39.64c-5.83,0-8.89,3.39-9.99,10.06-1.09,6.68.85,10.07,6.68,10.07s8.89-3.38,9.98-10.07c1.1-6.67-.84-10.06-6.68-10.06M141.71,49.7c-1.34,8.17-6.87,15-17.14,15s-13.56-6.84-12.22-15c1.34-8.16,6.87-14.99,17.14-14.99s13.56,6.83,12.21,14.99M67,24.69c-6.11-1-17.04-1.39-20.77,4.33-2.88,4.42,2.57,10.48,7.53,16.35,3.98,4.7,8.31,9.19,6.54,11.81-1.44,2.15-10.7,2.14-13.89,2.31-3.87.2-9.45.22-10.42.75-.87.47-1.36,1.93,1.92,2.51,2.63.47,8.9,1.43,15.51,1.43,6.9,0,14.15-1.13,15.72-6.48,1.26-4.29-3.12-8.89-6.97-13.56-4.21-5.11-8.49-8.75-8.13-12.37.27-2.81,5.79-2.98,14.95-3.14,1.9-.03,5.69-.13,4.96-1.63-.65-1.33-3.49-1.77-6.96-2.34M38.83,37.43c-3.92-2.69-10.9-3.59-16.65-3.29-5.12.27-13.93,1.9-13.6,3.52.31,1.75,5.89,1.21,8.44,1.21,5.62,0,14.53.34,15.93,3.96,3.03,7.8-17.5,21.8-21.88,20.45-1.98-.6,4.02-10.78,6.2-14.44,1.29-2.18,3.27-5.62,1.59-5.85-1.88-.26-3.95,2.97-5.3,4.83-3.65,5.06-7.39,10.59-10.39,16.26-.93,1.75-4,7.03-2.95,7.71.99.63,5.68-.27,11.65-2.64,18.77-7.43,27.23-17.12,29.49-25.12.79-2.82-.58-5.28-2.53-6.62M24.89,3.25c-.39-1.26,5.88-2.91,12.74-3.21,6.92-.3,15.1,1.07,16.63,5.64,2.5,7.48-10.17,18.39-21.21,23.75-2.71,1.31-4.35,1.67-5.03,1.58-.65-.09-.75-.69-.54-1.11.39-.79,2.18-2.39,4.56-4.13,12.43-9.08,16.47-15.74,14.12-18.43-1.51-1.73-7.81-2.93-14.35-2.93-1.78,0-6.44.39-6.92-1.15"/>
</svg>