<?xml version="1.0" encoding="UTF-8"?>
<svg id="Layer_1" data-name="Layer 1" xmlns="http://www.w3.org/2000/svg" viewBox="0 0 388.13 85.93">
  <defs>
    <style>
      .cls-1 {
        fill: #00269a;
        stroke-width: 0px;
      }
    </style>
  </defs>
  <g id="g896">
    <g id="g897">
      <g id="g3458">
        <path id="path3456" class="cls-1" d="M0,1.34h9.61l17.22,21.82V1.34h9.59v36.82h-9.88L9.61,16.2v21.96H0V1.34Z"/>
      </g>
      <g id="g3462">
        <path id="path3460" class="cls-1" d="M68.88,27.44c1.97-2.02,2.98-4.66,2.98-7.89,0-2.98-1.01-5.48-3.03-7.49-2.02-2.02-4.56-3.03-7.59-3.03s-5.58,1.06-7.59,3.07c-1.97,2.02-2.98,4.61-2.98,7.74s.96,5.67,2.94,7.69c1.92,1.97,4.47,2.98,7.59,2.98s5.67-1.01,7.69-3.07M46.67,33.88c-3.84-3.75-5.72-8.46-5.72-14.18s1.98-10.52,5.97-14.27c3.89-3.61,8.65-5.43,14.37-5.43s10.57,1.88,14.47,5.62c3.89,3.7,5.82,8.32,5.82,13.75,0,5.86-1.97,10.72-5.91,14.56-3.89,3.7-8.7,5.58-14.42,5.58s-10.77-1.88-14.56-5.63"/>
      </g>
      <g id="g3466">
        <path id="path3464" class="cls-1" d="M99.29,17.93c3.32,0,4.95-1.54,4.95-4.61s-1.58-4.62-4.85-4.62h-2.99v9.23h2.9ZM86.79,1.34h14.66c3.66,0,6.59,1.01,8.94,2.98,2.4,2.11,3.66,4.95,3.66,8.55,0,5.1-2.12,8.46-6.35,10.05l9.85,15.23h-11.49l-7.74-12.98h-1.94v12.98h-9.6V1.34Z"/>
      </g>
      <g id="g3470">
        <path id="path3468" class="cls-1" d="M126.55,10.94h-7.79V1.34h25.18v9.6h-7.8v27.22h-9.59V10.94Z"/>
      </g>
      <g id="g3474">
        <path id="path3472" class="cls-1" d="M150,1.34h9.6v13.01h13.48V1.34h9.6v36.82h-9.6v-14.21h-13.48v14.21h-9.6V1.34Z"/>
      </g>
      <g id="g3478">
        <path id="path3476" class="cls-1" d="M202.34,17.93c3.31,0,4.95-1.54,4.95-4.61s-1.58-4.62-4.86-4.62h-2.99v9.23h2.9ZM189.85,1.34h14.66c3.65,0,6.59,1.01,8.94,2.98,2.4,2.11,3.65,4.95,3.65,8.55,0,5.1-2.11,8.46-6.34,10.05l9.85,15.23h-11.49l-7.74-12.98h-1.94v12.98h-9.6V1.34Z"/>
      </g>
      <g id="g3482">
        <path id="path3480" class="cls-1" d="M249.92,27.44c1.97-2.02,2.98-4.66,2.98-7.89,0-2.98-1.01-5.48-3.03-7.49-2.02-2.02-4.56-3.03-7.59-3.03s-5.58,1.06-7.59,3.07c-1.96,2.02-2.98,4.61-2.98,7.74s.96,5.67,2.93,7.69c1.92,1.97,4.47,2.98,7.59,2.98s5.67-1.01,7.69-3.07M227.71,33.88c-3.85-3.75-5.73-8.46-5.73-14.18s1.98-10.52,5.97-14.27c3.89-3.61,8.65-5.43,14.37-5.43s10.57,1.88,14.46,5.62c3.89,3.7,5.82,8.32,5.82,13.75,0,5.86-1.97,10.72-5.91,14.56-3.89,3.7-8.7,5.58-14.42,5.58s-10.76-1.88-14.56-5.63"/>
      </g>
      <g id="g3486">
        <path id="path3484" class="cls-1" d="M281.39,18.26c3.79,0,5.67-1.64,5.67-4.95s-1.83-4.71-5.58-4.71h-3.28v9.66h3.18ZM268.6,1.34h16.44c3.56,0,6.44,1.15,8.51,3.56,2.07,2.21,3.08,5.19,3.08,8.8s-1,6.25-3.08,8.36c-2.02,2.16-4.8,3.27-8.22,3.27h-7.12v12.83h-9.6V1.34Z"/>
      </g>
    </g>
    <g id="g898">
      <g id="g3442">
        <path id="path3440" class="cls-1" d="M46.33,80.3c-3.56-3.75-5.38-8.46-5.38-14.08s1.83-10.19,5.38-13.99c3.7-3.89,8.27-5.81,13.75-5.81,7.4,0,12.92,3.07,16.63,9.23l-7.69,4.23c-.19-.48-.58-1.01-1.16-1.64-2.06-2.3-4.71-3.46-7.88-3.46s-5.53,1.25-7.11,3.7c-1.34,2.07-2.02,4.76-2.02,8.12s.82,6.05,2.41,8.03c1.73,2.16,4.28,3.22,7.59,3.22,1.92,0,3.7-.62,5.29-1.83,1.73-1.3,2.69-2.84,2.88-4.71h-8.46v-7.69h18.45v2.02c0,6.25-1.54,11.15-4.67,14.71-3.27,3.7-7.98,5.58-14.18,5.58-5.62,0-10.23-1.88-13.84-5.63"/>
      </g>
      <g id="g3502">
        <path id="path3500" class="cls-1" d="M97.22,64.35c3.31,0,4.95-1.54,4.95-4.61s-1.58-4.62-4.86-4.62h-2.99v9.23h2.9ZM84.72,47.77h14.66c3.65,0,6.59,1.01,8.94,2.98,2.41,2.11,3.65,4.95,3.65,8.55,0,5.1-2.11,8.46-6.34,10.05l9.85,15.23h-11.49l-7.74-12.98h-1.94v12.98h-9.6v-36.82Z"/>
      </g>
      <g id="g3446">
        <path id="path3444" class="cls-1" d="M123.66,82.71c-3.27-2.45-4.95-5.82-4.95-10.04v-24.9h9.61v22.88c0,4.42,2.21,6.63,6.64,6.63,1.96,0,3.66-.53,4.82-1.59,1.19-1.1,1.82-2.64,1.82-4.56v-23.36h9.6v23.84c0,4.66-1.59,8.27-4.81,10.86-2.93,2.3-6.82,3.46-11.63,3.46-4.42,0-8.12-1.06-11.1-3.22"/>
      </g>
      <g id="g3494">
        <path id="path3492" class="cls-1" d="M179.76,66.79l12.16-19.03h9.6v36.82h-9.59v-21.61h-.02l-9.57,15.02h-5.09l-9.62-15.02h-.02v21.61h-9.62v-36.82h9.62l12.14,19.03Z"/>
      </g>
      <g id="g3498">
        <path id="path3496" class="cls-1" d="M231.18,66.79l12.15-19.03h9.61v36.82h-9.59v-21.61h-.02l-9.57,15.02h-5.09l-9.62-15.02h-.04v21.61h-9.6v-36.82h9.62l12.14,19.03Z"/>
      </g>
      <g id="g3450">
        <path id="path3448" class="cls-1" d="M280.75,70.36l-3.89-11.25-3.94,11.25h7.83ZM271.49,47.76h10.99l13.65,36.82h-10.38l-2.5-6.82h-12.73l-2.45,6.82h-10.24l13.67-36.82Z"/>
      </g>
      <g id="g3454">
        <path id="path3452" class="cls-1" d="M301.43,47.77h9.61l16.93,21.82v-21.82h9.59v36.82h-9.61l-16.92-21.97v21.97h-9.61v-36.82Z"/>
      </g>
    </g>
    <g id="g899">
      <path id="path3488" class="cls-1" d="M301.43,1.34v9.61h77.1v73.63h9.61V1.34h-86.7Z"/>
    </g>
  </g>
</svg>