<?xml version="1.0" encoding="UTF-8"?>
<svg id="Layer_1" data-name="Layer 1" xmlns="http://www.w3.org/2000/svg" viewBox="0 0 388.37 101.19">
  <defs>
    <style>
      .cls-1 {
        fill: #1b3d6e;
        stroke-width: 0px;
      }
    </style>
  </defs>
  <path class="cls-1" d="M40.33,43.94c9.47,0,17.14,7.67,17.14,17.15s-7.67,17.14-17.14,17.14-17.15-7.68-17.15-17.14,7.68-17.15,17.15-17.15"/>
  <path class="cls-1" d="M80.27,13.02h5.28L72.08,0l-13.46,13.02h5.29v15.55c-4.53-3.35-10.73-6.3-17.24-7.17v-4.27l-12.87,13.35,12.87,13.46v-4.33c9.69,3.09,16.07,11.52,16.07,21.46,0,12.55-10.08,22.61-22.63,22.61s-22.45-10.13-22.45-22.68c0-11.54,8.53-20.64,19.18-22.14l-8-8.42,9.19-9.56C16.74,21.9,0,39.98,0,60.72c0,22.24,17.8,40.47,40.04,40.47s40.27-18.03,40.27-40.27c0-.63-.01-1.26-.04-1.89V13.02Z"/>
  <g>
    <path class="cls-1" d="M134.8,13.45h23.62l13.55,87.65h-25.36l-2.11-15.54h-33.57l-10.44,15.54h-26.23L134.8,13.45ZM142.51,66.79l-3.11-24.99-16.29,24.99h19.4Z"/>
    <path class="cls-1" d="M194.41,14.07h24.12l-23.37,87.03h-24.12l23.37-87.03Z"/>
    <path class="cls-1" d="M255.34,13.45h23.62l13.55,87.65h-25.36l-2.11-15.54h-33.57l-10.44,15.54h-26.23L255.34,13.45ZM263.04,66.79l-3.11-24.99-16.29,24.99h19.4Z"/>
    <path class="cls-1" d="M351.2,13.45h23.62l13.55,87.65h-25.36l-2.11-15.54h-33.57l-10.44,15.54h-26.23l60.55-87.65ZM358.91,66.79l-3.11-24.99-16.29,24.99h19.4Z"/>
  </g>
</svg>