<?xml version="1.0" encoding="UTF-8"?>
<svg id="Layer_1" data-name="Layer 1" xmlns="http://www.w3.org/2000/svg" viewBox="0 0 380.9 87.08">
  <defs>
    <style>
      .cls-1 {
        fill: #0033a1;
        stroke-width: 0px;
      }
    </style>
  </defs>
  <path class="cls-1" d="M57.97,52.91c6.35-13.64,1.78-29.88-10.76-38.19,4.88-5.01,10.16-9.98,15.73-14.72-6.5,3.86-12.67,8.26-18.45,13.14C29.59,5.38,11.22,11.15,3.45,26.05c-5.75,11.03-4.21,24.45,3.9,33.89-5.82,12.6-6.74,22.71-1.71,26.13,5.5,3.66,17.46-2.99,24.71-13.79,0,0-11.1,10-17.19,7.71-3.75-1.42-3.75-7.17-.67-15.39,12.05,8.84,28.73,7.62,39.36-2.88l1.08,2.02c13.26-1.08,52.82-2.13,52.82-2.13-.09-1.86-26.29-.07-47.79-8.69ZM3.64,40.08c.02-14.79,12.02-26.77,26.81-26.75,3.81,0,7.58.82,11.05,2.4-13.13,11.49-24.1,25.24-32.37,40.6-3.57-4.66-5.49-10.37-5.48-16.24ZM30.4,66.84c-6.01.01-11.84-2.01-16.56-5.73,5.3-11.95,16.09-27.99,30.8-43.68,11.44,7.2,15.71,21.81,9.95,34.04-4.64-2.08-8.93-4.88-12.72-8.29l8.07,15.14c-5.05,5.43-12.13,8.52-19.55,8.51Z"/>
  <polygon class="cls-1" points="239.41 37.29 244.35 30.71 227.1 30.71 231.34 25.07 248.62 25.07 253.58 18.49 219.12 18.49 195.42 49.94 229.88 49.94 234.82 43.36 217.57 43.36 222.13 37.29 239.41 37.29 239.41 37.29"/>
  <polygon class="cls-1" points="263.34 18.49 239.63 49.94 256.84 49.94 280.52 18.49 263.34 18.49 263.34 18.49"/>
  <polygon class="cls-1" points="320.63 18.49 308.61 34.44 304.92 18.49 291.49 18.49 267.78 49.94 279.15 49.94 291.06 34.15 294.72 49.94 308.29 49.94 331.99 18.49 320.63 18.49 320.63 18.49"/>
  <path class="cls-1" d="M376.84,18.49h-27.63c-4.55,0-8.84,2.13-11.57,5.77l-14.27,18.94c-.56.73-.86,1.62-.85,2.54,0,2.32,1.88,4.21,4.2,4.22h27.63c4.56,0,8.85-2.13,11.59-5.77l3.44-4.49h4l4.99-6.74h-21.16l-6.74,8.87c-.71.95-1.83,1.51-3.01,1.51h-4.88c-.61,0-1.1-.49-1.1-1.1h0c0-.24.08-.47.22-.65l11.23-15.05c.71-.95,1.82-1.51,3.01-1.51h4.88c.61,0,1.1.49,1.1,1.1h0c0,.24-.08.46-.22.65l-1.84,2.45h17.16l3.03-4.04c1.4-1.85,1.04-4.48-.81-5.89-.74-.56-1.64-.86-2.56-.85l.16.04Z"/>
  <path class="cls-1" d="M205.01,22.71c0-2.32-1.88-4.2-4.2-4.2h-27.63c-4.56,0-8.85,2.13-11.59,5.77l-14.27,18.94c-1.39,1.87-1,4.52.88,5.91.72.54,1.6.83,2.49.83h27.63c4.56,0,8.85-2.13,11.59-5.77l14.27-18.94c.55-.73.84-1.62.83-2.54ZM185.8,26.83l-11.23,15.03c-.71.95-1.82,1.51-3.01,1.51h-4.97c-.61,0-1.1-.5-1.09-1.11,0-.23.08-.45.21-.64l11.23-15.05c.71-.94,1.83-1.5,3.01-1.51h4.88c.61,0,1.1.49,1.1,1.1,0,.24-.08.46-.22.65l.09.02Z"/>
  <path class="cls-1" d="M140.01,34.98c3.34-.76,6.3-2.68,8.36-5.41l3.28-4.34c1.4-1.85,1.04-4.48-.81-5.89-.74-.56-1.64-.86-2.56-.85h-34.87l-23.7,31.45h36.08c4.56,0,8.85-2.13,11.59-5.77l3.35-4.49c.44-.58.68-1.29.67-2.02,0-1.07-.51-2.08-1.37-2.72l-.02.04ZM124.06,39.07l-2.13,2.83c-.71.95-1.83,1.51-3.01,1.51h-7.03l4.49-6.07h6.74c.61,0,1.1.49,1.1,1.1h0c0,.24-.08.47-.22.65l.07-.02ZM133.27,26.85l-1.82,2.4c-.72.94-1.83,1.49-3.01,1.48h-7.03l4.25-5.64h6.74c.61,0,1.1.49,1.1,1.1h0c0,.24-.08.46-.22.65Z"/>
</svg>