<?xml version="1.0" encoding="UTF-8"?>
<svg id="Layer_1" xmlns="http://www.w3.org/2000/svg" viewBox="0 0 239.5816 68.3598">
  <defs>
    <style>
      .cls-1 {
        fill: #fff;
      }
    </style>
  </defs>
  <path class="cls-1" d="M144.041.0003C120.3936-.0001,96.7461,0,73.0986,0,49.4028,0,25.707,0,2.0112.0002Q.0028.0003.0004,1.9531C-.0001,23.4313-.0001,44.9096.0004,66.3879q0,1.97,1.9963,1.9717c47.3433.0003,94.6866.0003,142.0299-.0001,2.0276,0,2.0336-.0018,2.0336-1.9567.0007-21.4782-.0001-42.9565-.0022-64.4348-.0002-1.9661-.0052-1.9677-2.017-1.9678ZM49.3295,19.8078c-.2248,2.3915-.4013,4.7875-.6246,7.1792-.3617,3.8735-.7711,7.7428-1.1146,11.6178-.8678,9.7896-12.3031,15.519-20.1632,10.057-2.8883-2.0071-4.1794-4.9466-4.464-8.3704-.0597-.7184-.0087-1.446-.0087-2.1694l-.1472-.0123c.4176-4.5444.8418-9.0883,1.2492-13.6336.1416-1.5796.2822-3.1613.3456-4.7452.0385-.9605.4268-1.4261,1.3995-1.4163,1.3528.0135,2.7061.0233,4.0584-.0039.9697-.0195,1.2727.4643,1.19,1.3537-.3471,3.7309-.719,7.4601-1.0104,11.1955-.2268,2.9076-.4607,5.8228-.4768,8.7358-.0108,1.9468.8774,3.6063,2.8732,4.2562,2.2347.7277,4.3625.4177,6.248-1.0991,2.0997-1.6892,2.3297-4.1034,2.5471-6.5127.5053-5.5976.9591-11.2002,1.5312-16.7909.0427-.4175.8284-1.0202,1.3239-1.0797,1.2861-.1545,2.6045-.0149,3.907-.0671,1.1216-.0449,1.4316.4926,1.3364,1.5054ZM76.1047,21.4026c-.2575,1.5099-.2433,3.0644-.3848,4.5962-.0511.553-.2194,1.0952-.337,1.6555-1.3353-.8972-2.4637-1.9189-3.7865-2.4982-5.4444-2.3841-13.2469.0724-14.471,8.039-.3572,2.3251-.2194,4.5213.7061,6.6353,1.2761,2.915,4.6141,4.5577,8.1196,4.3363,2.6675-.1685,4.9665-1.0683,6.9862-2.7769.3175-.2686.6982-.4627,1.0497-.6912.1394.0521.2787.1041.4181.1562-.2368,2.3334-.444,4.6705-.7437,6.9958-.0425.3299-.48.7127-.8273.8844-5.7436,2.8408-11.4333,2.8952-16.9015-.6389-3.0866-1.9949-4.7829-5.0561-5.3225-8.6064-1.031-6.7829.5934-12.7995,5.7693-17.5889,2.2574-2.0888,4.9882-3.2484,7.9935-3.7884,3.7589-.6755,7.3724-.3154,10.8013,1.4844.7909.4152,1.0954.8397.9307,1.8059ZM96.6177,49.026c-.0709,1.0363-.7853,1.0609-1.5474,1.0607-4.2502-.001-8.5004.0007-12.7506.0013-1.3464.0002-2.6927,0-4.3132,0,.16-2.3658.2828-4.5942.4683-6.8175.2314-2.7742.5165-5.5439.7748-8.3158.481-5.1626.9747-10.3241,1.4225-15.4895.0671-.7741.3257-1.1544,1.1208-1.1467,1.4486.014,2.8976-.0064,4.3462.0103.7675.0088,1.0735.3252.9914,1.1856-.5339,5.5928-1.0095,11.191-1.5011,16.7878-.189,2.1521-.3532,4.3065-.5625,6.4566-.092.9453.4725,1.0056,1.1688,1.0033,2.9461-.0097,5.8923-.0071,8.8384-.0088.57-.0004,1.14,0,1.9636,0-.1557,1.9285-.3057,3.5994-.4202,5.2728ZM119.7341,50.029c-.2464-.0058-.5312-.3414-.7121-.5873-.1645-.2236-.2213-.53-.3089-.8052q-1.1056-3.4715-4.7161-3.4718c-2.1762,0-4.3535.0428-6.5279-.019-.9651-.0274-1.5378.2981-1.8861,1.1917-.279.7155-.7961,1.3541-.9879,2.0843-.3464,1.3188-1.1132,1.7573-2.4298,1.6868-1.6182-.0867-3.2447-.0207-5.0935-.0207.2343-.6744.3264-1.0889.5131-1.4554,5.2258-10.2535,10.4576-20.5041,15.7109-30.7436.17-.3314.5761-.5423.8722-.8093.2609.3738.6215.7125.768,1.1267,2.4245,6.856,4.8188,13.7227,7.2273,20.5844,1.1005,3.1351,2.2223,6.2628,3.3213,9.3985.184.525.3004,1.0737.5181,1.8667-2.2438,0-4.2569.0207-6.2684-.0267Z"/>
  <path class="cls-1" d="M239.5202,33.9473c-.1176-4.5125-3.673-7.1952-8.0102-5.9274-1.6432.4804-3.0479,1.7738-4.6511,2.7514-.9504-1.8654-2.8041-2.9974-5.2537-3.0701-2.4069-.0714-4.2313,1.133-5.8041,3.0975-.054-1.02-.0934-1.7653-.1296-2.4495h-4.847v19.4974h5.0401c0-2.9041-.0199-5.6981.0084-8.4916.0141-1.3953.0111-2.8044.2036-4.1811.2746-1.9639,1.844-3.1004,3.8093-2.9429,1.7415.1395,2.5904,1.1943,2.6199,3.3261.0248,1.7849.0059,3.5704.006,5.3557.0002,2.3016,0,4.6033,0,6.9268h5.2501c0-3.6855-.0427-7.2538.0267-10.8199.0201-1.0336.2035-2.1252.5922-3.0761.5842-1.4289,2.1126-2.0021,3.7774-1.6654,1.3726.2775,2.1263,1.1494,2.1793,2.8237.0825,2.6028.0573,5.2091.0699,7.8139.0079,1.6273.0015,3.2546.0015,4.9609h5.138c0-4.695.0936-9.3149-.0266-13.9294Z"/>
  <path class="cls-1" d="M177.7427,33.9761c-.0928-2.6402-1.3756-4.6108-3.9149-5.5324-2.8615-1.0386-5.7938-1.0419-8.6356.0502-2.6743,1.0277-4.0663,3.0609-3.9593,5.6401,1.2585,0,2.4141.0481,3.5611-.0301.333-.0227.7665-.3349.9406-.637,1.1764-2.0417,4.1537-2.8294,6.0742-1.4187.5197.3818.8706,1.2657.9007,1.9369.0184.4098-.6487,1.0043-1.1409,1.2453-.6739.33-1.4682.4324-2.2211.5808-2.4462.4822-4.9845.6275-7.119,2.1612-1.9252,1.3833-2.3979,3.3406-2.0661,5.492.3191,2.069,1.4372,3.6842,3.5457,4.3345,3.3062,1.0197,6.4529,1.0291,8.8645-1.6226.5542.597,1.0127,1.5451,1.6279,1.6604,1.3393.251,2.7584.0775,3.9739.0775-.1136-1.4461-.2819-2.7728-.3096-4.1024-.0682-3.2782-.0069-6.5599-.122-9.8358ZM172.8923,39.9564c-.003,3.3855-1.8599,5.1048-5.2651,4.7988-1.1433-.1027-2.1735-.486-2.4162-1.841-.2399-1.3395.1113-2.4548,1.4566-2.9187,1.9837-.684,4.0173-1.224,6.2248-1.8836,0,.7963.0004,1.3204,0,1.8445Z"/>
  <path class="cls-1" d="M202.1714,28.662c-.0126,3.326.0221,6.6529-.0511,9.9774-.0239,1.0844-.1635,2.2234-.539,3.2301-.6258,1.6782-2.4558,2.4737-4.3012,2.0975-1.6666-.3398-2.4206-1.3738-2.4283-3.3976-.0121-3.1817-.0033-6.3635-.0033-9.5452v-2.7182h-5.091c0,4.8407-.2415,9.6151.073,14.3528.2731,4.1129,3.5433,6.4272,7.6433,5.6699,1.6813-.3106,3.2305-1.3332,4.7995-2.0144.0266.3018.0799.9052.137,1.5515h4.814v-19.5519h-4.9253c-.0663.1754-.1272.2617-.1275.3482Z"/>
  <path class="cls-1" d="M181.3033,47.8913h4.9759v-27.3562h-4.9759v27.3562Z"/>
  <path class="cls-1" d="M108.9858,39.3469h6.9715c-.9386-3.2261-1.8199-6.2553-2.7519-9.4588-1.4436,3.236-2.8022,6.2815-4.2197,9.4588Z"/>
</svg>