<?xml version="1.0" standalone="no"?>
<!DOCTYPE svg PUBLIC "-//W3C//DTD SVG 20010904//EN"
 "http://www.w3.org/TR/2001/REC-SVG-20010904/DTD/svg10.dtd">
<svg version="1.0" xmlns="http://www.w3.org/2000/svg"
 width="960.000000pt" height="960.000000pt" viewBox="0 0 960.000000 960.000000"
 preserveAspectRatio="xMidYMid meet">
<metadata>
Created by potrace 1.14, written by Peter Selinger 2001-2017
</metadata>
<g transform="translate(0.000000,960.000000) scale(0.100000,-0.100000)"
fill="#000000" stroke="none">
<path d="M4635 9567 c-33 -17 -62 -34 -65 -37 -3 -3 -30 -18 -60 -33 -52 -27
-165 -88 -275 -147 -27 -15 -86 -47 -130 -70 -44 -24 -96 -53 -115 -65 -19
-11 -53 -29 -75 -40 -22 -11 -42 -23 -45 -26 -3 -3 -34 -21 -70 -41 -36 -19
-141 -79 -235 -133 -212 -122 -244 -140 -275 -158 -14 -7 -41 -23 -61 -34 -20
-12 -47 -27 -60 -35 -13 -7 -26 -15 -29 -18 -3 -3 -16 -11 -30 -18 -14 -7 -57
-31 -97 -55 -40 -23 -130 -75 -200 -115 -70 -40 -146 -84 -168 -97 -22 -14
-47 -28 -55 -32 -83 -41 -270 -155 -296 -180 -38 -37 -44 -68 -28 -140 6 -29
9 -53 6 -53 -2 0 1 -7 8 -15 7 -8 10 -15 6 -15 -3 0 -1 -11 4 -26 6 -14 12
-37 15 -52 3 -15 12 -52 20 -82 18 -63 26 -97 28 -122 1 -10 4 -18 7 -18 3 0
12 -28 20 -62 7 -35 15 -67 16 -73 2 -5 13 -46 24 -90 11 -44 22 -87 24 -95 5
-15 34 -133 40 -160 2 -8 9 -33 15 -55 6 -22 11 -43 11 -47 1 -4 7 -29 15 -55
8 -27 16 -59 19 -73 3 -14 17 -70 31 -125 15 -55 28 -107 30 -115 2 -8 13 -53
25 -100 11 -47 23 -94 26 -105 3 -11 25 -96 49 -190 24 -93 46 -184 48 -202 7
-42 -17 -69 -68 -77 -22 -3 -52 -8 -67 -11 -49 -10 -141 -14 -170 -8 -47 9
-61 39 -108 233 -10 41 -30 120 -45 175 -15 55 -28 109 -30 120 -1 11 -3 20
-4 20 -2 0 -4 7 -6 15 -1 8 -20 80 -40 160 -21 80 -41 161 -45 180 -5 19 -15
60 -24 92 -8 31 -17 67 -20 80 -3 12 -13 56 -24 96 -11 39 -17 72 -15 72 3 0
0 7 -7 15 -7 8 -10 15 -7 15 3 0 1 15 -4 33 -17 56 -86 330 -98 388 -4 19 -10
40 -14 46 -3 5 -9 23 -11 39 -10 51 -14 68 -29 109 -11 31 -19 39 -36 38 -17
-2 -129 -61 -223 -118 -9 -5 -29 -17 -45 -26 -143 -79 -549 -316 -554 -322 -3
-5 -10 -9 -15 -9 -5 0 -39 -18 -76 -39 -36 -21 -71 -39 -77 -39 -6 0 -11 -3
-11 -8 0 -4 -15 -15 -33 -25 -78 -43 -182 -165 -236 -277 l-36 -75 -3 -175 -2
-175 42 -28 c24 -15 77 -52 118 -82 41 -30 82 -58 90 -62 8 -3 17 -9 20 -13 3
-3 28 -22 55 -41 28 -18 52 -37 55 -40 3 -3 41 -30 85 -59 44 -30 82 -57 85
-61 3 -3 37 -27 75 -54 39 -27 93 -66 122 -87 29 -21 56 -38 62 -38 5 0 11 -7
15 -15 3 -8 12 -15 20 -15 8 0 16 -4 18 -8 2 -5 26 -24 53 -43 103 -71 115
-81 106 -97 -5 -9 -26 -17 -47 -19 -37 -2 -83 -9 -129 -17 -95 -17 -133 -21
-225 -20 -91 0 -112 4 -160 26 -52 25 -65 34 -133 94 -41 37 -231 164 -245
164 -7 0 -12 4 -12 8 0 8 -52 42 -64 42 -3 0 -6 -825 -6 -1834 0 -1375 3
-1842 12 -1863 6 -15 12 -30 13 -33 1 -3 7 -18 14 -35 7 -16 12 -32 11 -34 -1
-2 2 -7 7 -10 4 -3 21 -25 36 -49 58 -90 187 -197 327 -273 25 -13 47 -26 50
-29 6 -6 56 -35 100 -57 19 -10 36 -21 38 -25 2 -5 8 -8 13 -8 8 0 50 -23 199
-110 95 -56 121 -70 130 -70 5 0 10 -4 10 -9 0 -5 8 -11 18 -14 9 -3 40 -19
67 -36 28 -16 77 -45 110 -64 33 -18 100 -57 149 -85 49 -29 93 -52 97 -52 5
0 9 -3 9 -8 0 -4 15 -14 33 -21 17 -8 48 -24 67 -36 69 -43 85 -52 95 -55 6
-1 21 -10 35 -20 14 -10 43 -28 65 -40 22 -13 60 -35 85 -49 25 -14 96 -55
158 -91 62 -36 130 -75 150 -87 20 -12 59 -34 87 -49 27 -15 66 -37 85 -49 19
-12 55 -33 80 -47 25 -14 100 -57 167 -97 68 -39 127 -71 133 -71 5 0 10 -4
10 -10 0 -5 4 -10 9 -10 8 0 187 -101 231 -130 8 -6 22 -13 30 -17 8 -4 47
-26 86 -50 39 -24 74 -43 77 -43 3 0 33 -16 67 -35 l63 -35 -7 59 c-4 33 -18
104 -32 157 -13 54 -26 107 -28 118 -2 12 -7 28 -10 36 -3 8 -8 26 -10 40 -3
14 -21 88 -41 165 -63 240 -95 369 -101 395 -3 14 -19 77 -35 140 -38 143 -42
161 -43 183 0 9 -3 17 -6 17 -4 0 -7 6 -7 13 0 6 -6 32 -13 57 -7 25 -14 53
-16 62 -2 10 -6 26 -9 35 -2 10 -9 38 -16 63 -13 56 -7 31 -78 307 -33 128
-62 237 -65 242 -4 5 -8 22 -10 38 -2 15 -9 44 -15 63 -20 63 -23 141 -6 176
14 29 83 94 100 94 6 0 93 58 105 70 9 9 69 50 74 50 2 0 7 -11 10 -25 3 -13
11 -37 17 -52 7 -15 13 -35 14 -43 2 -8 10 -42 20 -75 9 -33 19 -69 21 -80 8
-43 32 -134 37 -143 4 -5 9 -24 12 -43 3 -19 24 -104 46 -189 34 -129 101
-391 115 -450 2 -8 15 -60 29 -115 30 -114 33 -127 40 -156 2 -11 7 -29 10
-39 3 -10 8 -27 10 -37 10 -45 47 -189 52 -203 3 -8 7 -19 7 -25 1 -5 5 -23 9
-40 4 -16 9 -39 11 -50 3 -11 14 -58 26 -105 12 -47 24 -92 25 -100 2 -8 4
-15 5 -15 2 0 5 -14 13 -55 3 -14 13 -54 22 -90 18 -70 23 -91 31 -130 3 -14
8 -34 11 -45 4 -11 8 -24 9 -30 1 -5 5 -21 8 -35 3 -14 8 -38 11 -55 3 -16 8
-37 11 -45 3 -8 8 -26 10 -40 22 -115 75 -270 96 -278 4 -2 8 -9 8 -16 0 -24
118 -127 203 -176 48 -27 94 -50 101 -50 7 0 16 -3 20 -7 4 -5 12 -9 17 -9 5
-1 10 -2 12 -4 3 -3 27 -9 77 -19 66 -14 207 -7 265 14 63 22 207 97 397 207
80 47 152 88 160 92 7 3 27 15 43 26 17 11 37 23 45 27 14 6 87 49 165 96 17
9 38 20 48 23 9 4 17 10 17 15 0 5 9 9 20 9 11 0 20 3 20 8 0 4 17 16 38 27
20 11 60 33 87 50 28 18 55 33 60 35 6 1 26 13 45 25 19 12 69 41 110 64 41
23 118 67 170 97 52 31 113 66 135 79 22 12 107 61 188 109 82 47 152 86 158
86 5 0 9 5 9 10 0 6 4 10 9 10 4 0 90 47 190 105 99 58 185 105 191 105 5 0
10 5 10 10 0 6 4 10 9 10 12 0 98 57 106 69 5 9 -50 53 -170 136 -38 27 -73
53 -77 59 -5 7 -8 7 -8 1 0 -6 -3 -6 -8 1 -6 9 -133 100 -181 129 -13 8 -265
181 -387 265 -12 8 -57 39 -100 69 -44 30 -80 58 -82 63 -2 4 -8 8 -13 8 -11
0 -72 42 -77 53 -2 4 -10 7 -17 7 -7 0 -15 4 -17 8 -1 4 -52 41 -113 82 -60
40 -111 77 -113 82 -2 4 -10 8 -18 8 -8 0 -14 5 -14 10 0 6 -7 10 -15 10 -8 0
-15 5 -15 10 0 6 -7 10 -15 10 -9 0 -18 7 -21 15 -4 8 -10 15 -14 15 -11 0
-174 112 -178 122 -2 4 -8 8 -13 8 -5 0 -40 23 -78 50 -38 28 -73 50 -79 50
-6 0 -12 3 -14 8 -1 4 -28 25 -58 46 -76 54 -90 73 -79 105 5 15 52 70 104
124 102 106 127 117 178 77 14 -11 28 -20 31 -20 3 0 58 -37 123 -83 65 -45
138 -95 163 -112 25 -16 47 -32 50 -35 3 -3 57 -41 120 -83 171 -116 273 -186
291 -200 8 -7 23 -16 31 -22 9 -5 48 -32 89 -60 40 -27 80 -54 88 -60 9 -5 18
-13 21 -16 3 -3 61 -43 130 -89 69 -46 127 -88 128 -92 2 -4 10 -8 17 -8 7 0
15 -3 17 -8 3 -6 189 -137 438 -306 115 -79 145 -100 148 -108 2 -5 7 -8 12
-8 5 0 36 -19 69 -42 95 -65 135 -60 286 32 17 10 48 28 70 40 22 12 42 25 45
29 3 3 21 14 40 23 19 10 42 22 50 28 8 5 130 76 270 157 140 80 258 150 261
155 3 6 9 9 13 8 6 -2 33 14 130 79 28 18 106 113 132 159 22 40 49 109 61
157 4 17 9 1010 10 2209 3 2386 6 2249 -56 2381 -15 34 -37 73 -47 86 -32 40
-117 124 -154 150 -43 31 -369 219 -380 219 -5 0 -10 3 -12 8 -3 6 -217 132
-353 207 -27 15 -54 31 -60 35 -8 6 -123 73 -400 232 -27 16 -61 34 -75 41
-14 6 -27 14 -30 18 -3 3 -30 19 -60 35 -30 16 -57 31 -60 34 -4 5 -165 97
-215 124 -11 6 -27 16 -35 22 -8 7 -40 25 -70 41 -30 16 -73 41 -95 55 -22 13
-67 40 -100 58 -33 18 -170 97 -305 175 -135 78 -265 153 -290 167 -25 14 -81
47 -125 73 -44 26 -98 57 -120 69 -59 32 -89 50 -95 56 -3 3 -18 12 -35 21
-105 57 -151 83 -160 89 -42 32 -538 307 -652 362 l-142 68 -108 0 c-102 0
-111 -2 -168 -33z m3702 -3056 c-30 -44 -115 -139 -359 -406 -59 -65 -89 -97
-168 -185 -41 -46 -88 -98 -105 -115 -25 -27 -99 -108 -210 -231 -18 -20 -143
-156 -205 -224 -14 -15 -61 -67 -105 -115 -44 -49 -89 -98 -100 -109 -11 -12
-60 -66 -109 -121 -50 -55 -95 -104 -100 -110 -9 -8 -153 -166 -211 -231 -5
-6 -50 -55 -99 -108 -49 -53 -98 -107 -108 -119 -22 -25 -147 -163 -193 -212
-16 -18 -61 -68 -100 -111 -38 -43 -83 -92 -100 -109 -16 -18 -57 -63 -90
-100 -33 -37 -76 -84 -95 -105 -37 -39 -172 -187 -255 -279 -27 -30 -62 -68
-77 -84 -15 -16 -58 -63 -95 -104 -37 -42 -79 -88 -93 -103 -14 -15 -56 -61
-93 -103 -37 -41 -82 -82 -98 -90 -56 -27 -83 -13 -382 197 -32 23 -66 46 -75
51 -9 6 -19 13 -22 16 -3 3 -34 25 -70 49 -36 24 -67 46 -70 49 -5 6 -227 158
-257 176 -17 10 -33 22 -56 40 -7 6 -20 15 -29 20 -22 13 -190 127 -203 138
-5 4 -53 37 -105 73 -185 127 -215 148 -218 156 -2 4 -9 8 -14 8 -10 0 -116
75 -128 90 -3 4 -13 11 -23 16 -15 9 -10 14 35 35 29 13 55 27 56 32 2 4 8 7
14 7 5 0 53 21 106 47 133 64 157 64 252 0 41 -28 77 -54 78 -59 2 -4 8 -8 13
-8 5 0 47 -27 93 -60 47 -33 89 -60 94 -60 6 0 12 -4 14 -8 2 -5 39 -33 83
-62 44 -29 82 -57 83 -62 2 -4 8 -8 13 -8 10 0 60 -34 93 -62 11 -10 23 -18
28 -18 4 0 16 -7 25 -15 10 -8 77 -55 148 -104 72 -50 135 -94 140 -98 87 -68
159 -105 195 -101 39 5 47 12 263 252 16 17 43 47 60 66 57 63 231 255 309
341 18 20 63 70 100 110 36 41 86 95 110 121 23 26 72 79 108 119 36 39 80 88
98 108 18 20 47 52 65 71 84 93 149 164 223 246 45 49 94 103 109 119 14 17
41 46 59 65 47 52 292 321 331 364 11 12 58 64 105 115 47 51 96 105 110 121
14 15 63 69 109 119 108 118 142 162 138 175 -4 11 -70 13 -120 3 -15 -3 -58
-9 -95 -13 -37 -3 -76 -8 -87 -10 -11 -3 -45 -7 -75 -9 -30 -3 -66 -7 -80 -9
-14 -3 -44 -7 -67 -11 -23 -4 -60 -8 -83 -11 -62 -6 -111 -12 -160 -19 -25 -3
-65 -8 -90 -11 -25 -3 -56 -7 -70 -9 -14 -2 -47 -7 -75 -10 -27 -3 -61 -8 -75
-10 -14 -3 -52 -7 -85 -10 -33 -4 -71 -8 -85 -10 -30 -5 -96 -13 -147 -20 -21
-2 -56 -7 -78 -10 -22 -2 -62 -7 -90 -10 -53 -6 -66 -8 -155 -20 -30 -4 -66
-9 -80 -10 -14 -2 -50 -6 -80 -10 -30 -4 -66 -8 -80 -10 -48 -5 -135 -16 -160
-20 -14 -3 -47 -7 -75 -10 -27 -2 -120 -14 -205 -25 -194 -26 -225 -30 -275
-35 -22 -2 -40 -4 -40 -5 0 -1 -16 -3 -35 -5 -19 -1 -55 -5 -80 -9 -25 -3 -63
-8 -85 -11 -22 -3 -53 -7 -70 -9 -16 -3 -58 -8 -93 -11 -35 -4 -73 -8 -85 -11
-12 -2 -44 -7 -72 -9 -27 -3 -59 -7 -70 -10 -11 -2 -47 -7 -80 -10 -33 -4 -75
-8 -92 -11 -81 -10 -101 -13 -153 -19 -30 -4 -66 -9 -80 -11 -14 -2 -52 -6
-85 -9 -33 -3 -71 -8 -85 -11 -14 -3 -38 -7 -55 -8 -16 -2 -57 -7 -90 -11 -33
-4 -71 -9 -85 -11 -14 -1 -45 -5 -70 -8 -25 -3 -67 -9 -94 -12 -27 -3 -58 -8
-70 -10 -12 -2 -48 -6 -81 -9 -57 -6 -100 -12 -100 -15 0 0 -25 -3 -55 -5 -30
-2 -64 -6 -75 -9 -11 -2 -47 -7 -80 -10 -33 -4 -87 -11 -120 -15 -33 -5 -63
-7 -67 -5 -4 3 -12 -4 -17 -14 -12 -23 13 -48 132 -132 43 -30 93 -66 112 -80
18 -14 43 -32 55 -40 12 -8 75 -54 139 -101 162 -120 186 -151 221 -284 22
-83 57 -215 67 -250 3 -11 6 -28 6 -37 1 -10 5 -18 9 -18 4 0 8 -9 8 -20 0
-10 7 -45 16 -77 8 -32 17 -65 19 -73 11 -47 38 -157 40 -170 2 -8 4 -15 5
-15 1 0 3 -7 5 -15 6 -25 15 -64 19 -85 2 -11 13 -54 24 -95 23 -84 24 -208 3
-277 -1 -2 -1 -5 -1 -8 -1 -9 -88 -259 -110 -315 -55 -142 -80 -181 -80 -125
0 14 -5 25 -12 25 -6 0 -9 3 -6 6 3 3 -1 31 -9 62 -8 31 -17 64 -18 72 -2 8
-4 15 -5 15 -1 0 -3 7 -5 15 -2 8 -22 87 -45 175 -23 88 -44 171 -46 185 -3
14 -21 86 -41 160 -19 74 -37 145 -39 157 -2 12 -9 34 -14 48 -5 14 -8 25 -5
25 2 0 -2 15 -9 33 -7 17 -12 41 -12 52 1 11 -2 22 -6 25 -3 3 -9 19 -12 35
-3 17 -12 59 -21 95 -9 36 -19 74 -21 85 -11 43 -13 50 -14 55 -1 3 -3 10 -4
15 -13 78 -54 160 -103 206 -21 20 -85 69 -143 109 -58 41 -107 76 -110 79 -3
3 -14 12 -25 19 -65 41 -210 146 -213 154 -2 5 -10 8 -18 8 -8 0 -14 5 -14 10
0 6 -6 10 -14 10 -8 0 -16 4 -18 8 -1 4 -32 28 -68 52 -36 25 -71 50 -78 57
-7 7 -26 20 -42 30 -17 9 -30 21 -30 25 0 4 -5 8 -10 8 -6 0 -39 21 -74 48
-83 61 -114 84 -141 102 -134 90 -235 175 -235 198 0 7 10 13 23 13 35 2 79 7
119 13 67 11 109 16 163 21 28 3 63 8 76 10 13 3 53 8 87 11 35 3 73 7 85 10
12 2 42 6 67 9 25 3 59 7 75 10 17 2 55 7 85 10 30 3 71 8 90 10 84 13 194 27
305 39 33 4 71 9 85 11 14 3 45 7 70 10 25 2 61 7 80 10 19 3 58 7 85 10 28 2
59 6 71 9 12 2 43 7 70 10 27 3 72 9 99 12 28 4 66 8 85 9 19 2 35 4 35 5 0 2
14 4 30 5 17 1 53 5 80 10 28 4 66 9 85 10 19 2 53 5 75 8 77 12 145 20 250
32 33 4 69 9 80 11 11 3 45 7 75 10 30 3 69 7 85 10 17 3 46 7 65 9 19 2 71 8
115 14 44 5 103 13 130 16 59 7 108 14 150 20 17 2 57 7 90 10 33 4 71 8 85
11 14 2 45 6 70 9 48 6 86 11 165 21 28 4 61 8 75 9 14 2 48 6 75 10 28 4 64
8 80 10 17 1 55 6 85 10 30 4 69 9 85 11 17 1 30 3 30 4 0 1 20 3 44 5 25 3
61 7 80 10 20 3 59 8 86 11 28 3 61 7 75 10 14 3 45 7 70 9 25 2 59 6 75 9 27
5 82 11 175 21 19 2 52 6 73 9 20 3 54 8 75 11 20 3 53 7 72 10 19 3 56 8 83
10 97 10 134 14 163 19 16 3 54 8 84 11 30 4 66 9 80 11 14 1 50 6 80 9 30 3
66 8 80 11 13 3 49 7 80 10 30 2 64 6 75 8 27 6 135 19 163 20 12 0 22 2 22 6
0 3 15 5 33 6 32 1 147 13 179 19 9 2 44 6 77 10 33 3 69 8 80 10 11 2 46 6
78 10 33 3 70 7 84 10 49 8 180 25 187 24 4 -1 9 0 12 1 3 1 19 3 35 4 31 3
122 15 165 21 80 12 119 17 155 21 72 6 129 14 133 18 2 3 10 2 18 -1 11 -4
11 -8 1 -22z"/>
</g>
</svg>
