<?xml version="1.0" encoding="UTF-8"?>
<svg id="Layer_1" data-name="Layer 1" xmlns="http://www.w3.org/2000/svg" viewBox="0 0 280.45 135.41">
  <defs>
    <style>
      .cls-1 {
        fill: none;
        stroke: #fff;
        stroke-linecap: round;
        stroke-linejoin: round;
        stroke-width: .1px;
      }
    </style>
  </defs>
  <path class="cls-1" d="M111.15,16.55h3.3M111.15,27.55h3.3M84.55,39.85h3.3M84.55,50.75h3.3M84.55,16.55h3.3M84.55,27.55h3.3M111.15,39.85h3.3M111.15,50.75h3.3M101.65,11.75h0v-.2M100.95,11.75h0v-.2M204.35,11.75h0v-.1h-.1l.1-.1M204.85,11.75h-.1v-.1M204.65,11.75h0v-.1M204.55,11.75h0l-.1-.1v-.1M204.95,11.75h0l-.1-.1v-.1h.1M205.75,11.75h0l-.1-.1M205.55,11.75h0v-.1M205.45,11.75h0v-.1M205.35,11.75h0l-.1-.1M205.25,11.75h-.1v-.2M102.85,11.75h0M103.55,11.75h0v-.2M102.85,11.75h0v-.2M206.85,11.75h0v-.1M206.75,11.75h0v-.1M206.65,11.75h0v-.1M205.75,11.75h0v-.2M206.55,11.75h0l-.1-.1M206.45,11.75h-.1v-.1M206.25,11.75h0v-.1M206.15,11.75h0v-.2M104.65,11.75h0M105.35,11.75h0v-.2M104.75,11.75h0v-.2M208.25,11.75h0v-.1M208.15,11.75h0v-.1h-.1M208.05,11.75h0v-.1h-.1M207.95,11.75h0l-.1-.1M207.85,11.75h0l-.1-.1M207.75,11.75h0l-.1-.1M206.95,11.75h0v-.1h-.1v-.1h.1M207.65,11.75h0l-.1-.1M207.55,11.75h0l-.1-.1M207.45,11.75h0l-.1-.1v-.1h.1M105.45,11.75h0v-.1M105.55,11.75h0v-.1M105.65,11.75h0v-.1M105.65,11.75h0v-.1M105.75,11.75h0v-.1M105.85,11.75h0v-.1M105.85,11.75h.1v-.1M105.95,11.75h0v-.1M106.05,11.75h0v-.1M106.15,11.75h0v-.1M106.15,11.75h0v-.1M106.25,11.75h0v-.1M106.35,11.75h0v-.1M106.35,11.75h.1v-.1M107.05,11.75h0v-.2M106.45,11.75h0v-.1h.1l-.1-.1M107.15,11.75h0v-.1M107.25,11.75h0v-.1M107.35,11.75h0v-.1M107.45,11.75h0v-.1M107.55,11.75h0v-.1M107.55,11.75h.1v-.1M107.65,11.75h.1v-.1M107.75,11.75h0l.1-.1M107.85,11.75h0v-.1M108.55,11.75h0l.1-.1v-.1h-.1M107.95,11.75h0v-.1M108.05,11.75h0v-.1h.1v-.1h-.1M208.35,11.75h0v-.1h-.1l.1-.1M208.85,11.75h0v-.2M210.65,11.75h0v-.1M209.95,11.75h0v-.2M210.55,11.75h0v-.2M108.65,11.75h0l.1-.1M108.75,11.75h.1v-.1M108.85,11.75h.1v-.1M109.05,11.75h0v-.1M109.15,11.75h0v-.1M109.85,11.75h0l.1-.1v-.1h-.1M109.25,11.75h0v-.1M109.35,11.75h0v-.1M109.45,11.75h0v-.1h.1l-.1-.1M109.95,11.75h0v-.1h.1M110.05,11.75h.1v-.1M110.95,11.75h0v-.2M110.25,11.75h0v-.1M110.35,11.75h0v-.1M110.45,11.75h0v-.1h.1M110.55,11.75h0l.1-.1v-.1h-.1M212.45,11.75h-.1M211.75,11.75h0l-.1-.1v-.1h.1M212.35,11.75h0v-.2M111.65,11.75h0l.1-.1v-.1h-.1M111.05,11.75h0v-.1M111.15,11.75h0v-.1h.1M111.25,11.75h.1v-.1M111.45,11.75h0v-.1h.1l-.1-.1M213.55,11.75h0v-.2M214.25,11.75h0v-.2M111.85,11.75h0M111.95,11.75h0M112.05,11.75h0l.1-.1v-.1h-.1M111.65,11.75h.1v-.1M111.85,11.75h0v-.1M111.95,11.75h0l.1-.1v-.1M216.15,11.75h0v-.2M215.45,11.75h0v-.2M217.35,11.75h0M218.05,11.75h0v-.2M217.35,11.75h0l.1-.1v-.1h-.1M112.15,11.65v.1M112.15,11.65h0v.1M219.15,11.75h0M219.85,11.75h0v-.2M219.25,11.75h0v-.2M219.95,11.75h.1v-.1M220.05,11.75h0v-.1M220.15,11.75h0v-.1M220.25,11.75h0v-.1M220.35,11.75h0v-.1M220.35,11.75h0l.1-.1M220.45,11.75h0v-.1M220.55,11.75h0v-.1M220.65,11.75h0v-.1M220.65,11.75h.1v-.1M220.75,11.75h0v-.1M221.45,11.75h.1v-.2h-.1M220.85,11.75h0v-.1M220.95,11.75h0v-.2M221.55,11.75h0l.1-.1M221.65,11.75h0l.1-.1M221.75,11.75h0l.1-.1M221.85,11.75h0l.1-.1M221.95,11.75h0l.1-.1M222.05,11.75h0l.1-.1M222.15,11.75h0v-.1M222.95,11.75h0v-.1h.1v-.1h-.1M222.25,11.75h0v-.1M222.35,11.75h0v-.1M222.45,11.75h0v-.1h.1v-.1h-.1M223.05,11.75h.1v-.1M223.25,11.75h0v-.1M223.35,11.75h0v-.1M224.15,11.75h0l.1-.1v-.1h-.1M223.45,11.75h0v-.1M223.55,11.75h0v-.1M223.65,11.75h0v-.1h.1M223.75,11.75h0l.1-.1v-.1h-.1M225.15,11.75h0v-.2M224.35,11.75h0v-.1M224.45,11.75h0v-.1M224.55,11.75h0l.1-.1M224.65,11.75h.1v-.1M224.85,11.75h0v-.2M225.75,11.75h0l.1-.1v-.1h-.1M225.15,11.75h0l.1-.1M225.25,11.75h.1v-.1M225.45,11.75h0v-.1h.1M225.55,11.75h0l.1-.1v-.1M225.75,11.75h.1v-.1M225.95,11.75h0v-.1M226.05,11.75h0l.1-.1v-.1h-.1M225.85,11.75h0l.1-.1M226.05,11.75h0v-.2M90.35,11.75h0M90.25,11.75h-.1v-.1M90.25,11.75h-.1v-.1M90.35,11.75h0l-.1-.1v-.1h.1M90.75,11.75h0l-.1-.1M90.55,11.75h0v-.1M90.45,11.75h0v-.1h-.1v-.1M90.75,11.75h0v-.2M91.45,11.75h-.1v-.1M91.25,11.75h0v-.1M91.15,11.75h0v-.1h-.1M91.05,11.75h0l-.1-.1v-.1M92.55,11.75h-.1v-.1M92.35,11.75h0v-.1M91.55,11.75h0v-.1h-.1v-.1h.1M92.25,11.75h0v-.1M92.15,11.75h0v-.1h-.1M92.05,11.75h-.1v-.1M91.85,11.75h0v-.2M93.85,11.75h-.1v-.1M93.75,11.75h-.1v-.1M93.55,11.75h0v-.1M93.45,11.75h0v-.1M93.35,11.75h0v-.1M92.65,11.75h-.1v-.2h.1M93.25,11.75h0v-.1M93.15,11.75h0v-.1M93.05,11.75h0v-.1h-.1v-.1h.1M95.35,11.75h0v-.1M95.25,11.75h0v-.1M95.15,11.75h0v-.1M95.05,11.75h0v-.1M95.05,11.75h-.1v-.1M94.95,11.75h-.1v-.1M94.85,11.75h0l-.1-.1M94.75,11.75h0v-.1M94.65,11.75h0v-.1M93.95,11.75h0v-.1h-.1v-.1h.1M94.55,11.75h0v-.1M94.45,11.75h0v-.2M95.45,11.75h0v-.2M96.15,11.75h0v-.1M96.05,11.75h0v-.2M204.25,11.75h0M97.85,11.75h0M97.15,11.75h0v-.2M97.85,11.75h0v-.2M204.25,11.75h0v-.1M204.15,11.75h0l-.1-.1v-.1h.1M204.35,11.75h0l-.1-.1M204.15,11.75h0v-.2M99.75,11.75h0M99.05,11.75h0v-.2M99.75,11.75h0l-.1-.1v-.1h.1M215.55,12.65h3.4M212.15,12.65h.6M97.35,12.65h3.2M100.55,12.65h2.9M103.45,7.75v-.4M91.25,7.25v-.3M94.65,6.75v-.2M107.85,6.95v-.4M96.05,7.15v-.2M105.25,7.05v-.1M113.55,7.55h-.1M208.65,6.65v-.1M205.35,7.05v-.1M221.85,7.05v-.5M209.25,7.15v-.2M218.35,7.05v-.1M248.05,135.05h-.1M240.65,134.25l-.2-.1M239.35,132.55h.1M249.15,134.85h0l-.3.1h-.5M240.85,134.05h-.1v.1M248.35,134.95h-.2M239.85,129.45h0v.1M239.45,132.55h.1l.1.1.3.1.3.1.5.1.5.1h.5l.6.1.7.1.7.1.7.1.7.1.7.1h.7l.6.1h.6l.6.1h1.4l.1-.1M251.15,115.55v.1l.3.2.1.3.1.2M251.65,116.35l-.1.2-.1.2-.3.2-.3.2-.5.1-.5.1h-.5l-.7.1h-.6l-.7-.1h-.7l-.7-.1-.7-.2-.6-.1-.6-.2-.6-.2-.4-.2-.4-.3-.3-.2-.2-.3-.1-.2v-.2l.1-.2.2-.2.3-.2h.1M183.95,133.15h.7l.6.1.6.1h.5l.4.1h.3l.3.1h.2M173.45,128.65l.2-.1h.5l.7.1.3.1.4.1.8.1,1.1.2h.1l.8.2.7.1M173.15,129.35h0M172.85,132.95v.1M233.65,26.55v-.2M232.45,27.65h.2M233.65,26.35l-.1-.3-.1-.3-.2-.3-.3-.2-.3-.1h-.3l-.3.1-.3.2M233.95,26.85l.1.2.2.3.3.2.3.1h.2M233.85,26.65l.1.1M235.85,25.55l-.1-.1-.3-.2-.3-.1h-.3l-.3.1-.3.2-.2.3-.1.3-.1.3v.2M239.55,25.25l-.3-.1h-.3l-.3.1-.3.2-.2.3-.1.3-.1.3.1.4.1.3.2.3.3.2.3.1h.3l.3-.1M273.55,30.05v7.2M274.35,36.35h3M274.35,30.95v5.4M277.35,30.95h-3M87.45,37.25h-5.1M114.05,37.25h-21.4M204.85,37.25h-85.6M227.75,37.25h-6.9M271.75,30.05v7.2M87.45,30.05h-5.1M114.05,30.05h-21.4M204.35,30.05h-85.1M227.75,30.05h-6.4M79.85,30.05h2.5M79.85,37.25v-7.2M82.35,37.25h-2.5M82.35,30.05v7.2M82.05,36.35h-1.9M80.15,36.35v-5.4M80.15,30.95h1.9M82.05,30.95v5.4M111.45,28.45h2.7M111.15,27.55v.2l.1.1v.3l.1.1v.1l.1.1M111.15,16.55v11M111.45,15.65v.1h-.1v.1l-.1.1v.3l-.1.2v.1M114.15,15.65h-2.7M114.45,16.55v-.3l-.1-.2v-.2l-.1-.1h-.1v-.1M114.45,27.55v-11M114.15,28.45h0l.1-.1.1-.1v-.2l.1-.2v-.3M114.05,30.05v3.4M115.95,33.45h-1.9M109.75,30.05v-15.5M119.25,33.45h-3.3M119.25,14.55v18.9M119.25,14.55h-3.3M115.95,14.55v18.9M89.25,52.85h-6.1M87.55,38.95h-2.7M87.85,39.85v-.2l-.1-.2v-.3l-.1-.1v-.1h-.1M87.85,50.75v-10.9M87.55,51.65h.1v-.1l.1-.1v-.3l.1-.2v-.2M84.85,51.65h2.7M84.55,50.75v.4l.1.1v.3l.1.1h.1M84.55,39.85v10.9M84.85,38.95h-.1l-.1.1v.3l-.1.1v.4M87.45,33.95h1.8M87.45,33.95v3.3M83.15,52.85v-15.6M89.25,33.95h3.4M89.25,33.95v18.9M92.65,52.85h-3.4M92.65,33.95v18.9M84.85,28.45h2.7M84.55,27.55v.3l.1.2v.2l.1.1.1.1M84.55,16.55v11M84.85,15.65v.1h-.1l-.1.1v.2l-.1.2v.3M87.55,15.65h-2.7M87.85,16.55v-.1l-.1-.2v-.3l-.1-.1v-.1h-.1v-.1M87.85,27.55v-11M87.55,28.45h0l.1-.1v-.1l.1-.1v-.3l.1-.1v-.2M87.45,30.05v3.4M89.25,33.45h-1.8M83.15,14.55h6.1M83.15,30.05v-15.5M92.65,33.45h-3.4M92.65,14.55v18.9M92.65,14.55h-3.4M89.25,14.55v18.9M119.25,52.85h-3.3M115.95,33.95h3.3M119.25,33.95v18.9M114.15,38.95h-2.7M114.45,39.85v-.4l-.1-.1v-.3l-.1-.1h-.1M114.45,50.75v-10.9M114.15,51.65h.1l.1-.1v-.3l.1-.1v-.4M111.45,51.65h2.7M111.15,50.75v.2l.1.2v.3l.1.1v.1h.1M111.15,39.85v10.9M111.45,38.95h-.1v.1l-.1.1v.3l-.1.2v.2M114.05,33.95h1.9M114.05,33.95v3.3M109.75,52.85v-15.6M115.95,33.95v18.9M201.15,37.25v15.6M202.25,52.85h-1.1M223.85,39.85v10.9M223.85,50.75v.2l-.1.2-.1.1-.1.2-.1.1-.1.1h-.4M223.85,50.75h1.2M222.95,38.95h.4l.1.1.1.1.1.2.1.1.1.2v.2M223.85,39.85h1.2M224.25,38.95h-3.5M225.05,39.85v-.2l-.1-.2v-.1l-.1-.2-.2-.1-.1-.1h-.3M225.05,50.75v-10.9M224.25,51.65h.3l.1-.1.2-.1.1-.2v-.1l.1-.2v-.2M219.85,51.65h4.4M219.75,52.85h9.3M229.05,52.85v-15M201.15,14.55v11.5M206.45,16.55v9.5M207.25,15.65l-.1.1h-.2l-.2.1-.1.1-.1.1-.1.2v.3M210.95,15.65h-3.7M219.35,19.05v-3.4M219.35,24.65v-5.1M202.45,14.55v11.5M223.85,19.55v5.1M223.85,16.55v2.5M222.95,15.65l.2.1h.2l.1.1.1.1.1.1.1.2.1.2v.1M223.85,16.55h1.2M212.15,14.55h-1.2M210.95,14.55v11.5M216.15,16.55v9M216.95,15.65l-.1.1h-.2l-.1.1-.2.1-.1.1v.2l-.1.2v.1M224.25,15.65h-7.3M225.05,16.55v-.1l-.1-.2v-.2l-.1-.1-.2-.1-.1-.1h-.2l-.1-.1M225.05,19.05v-2.5M225.05,24.65v-5.1M229.05,19.05v-4.5M229.05,24.65v-5.1M229.05,14.55h-16.9M212.15,14.55v11.5M204.35,11.45h0l.1.1M204.65,11.45h0v.2M205.15,11.45h0v.1M205.05,11.45h0v.1M204.95,11.45h0v.1M205.55,11.45h0v.1h-.1M205.35,11.45h0v.1M206.65,11.45h0M206.55,11.45h0M206.45,11.45h-.1M206.95,11.55h0M207.45,11.55h0M107.05,11.55h0M106.45,11.55h0M108.05,11.55h0M208.35,11.55h0M208.85,11.55h0M109.45,11.55h0M110.15,11.55h0v-.1M110.25,11.55h0v-.1M110.35,11.55h0v-.1M111.45,11.55h.1v-.1M111.65,11.55h0v-.1M111.15,11.65v-.2M111.25,11.65v-.2M112.05,11.55h0v-.1M111.85,11.65h0v-.2M112.15,11.75h0l.1-.1M219.25,11.55h0M221.45,11.55h0M220.95,11.55h0M221.85,11.65h-.1v-.1M221.95,11.65h-.1v-.2h-.1M222.05,11.65h-.1v-.2h-.1M222.95,11.55h0M222.15,11.65h-.1v-.1l-.1-.1M222.25,11.65h-.1v-.1l-.1-.1M222.35,11.65h-.1v-.1l-.1-.1M222.45,11.55h0M223.75,11.55h0M224.85,11.45h0M225.05,11.45h0M225.15,11.45h0M224.55,11.55h0l-.1-.1M224.65,11.55h0v-.1M225.55,11.55h.1v-.1M225.75,11.55h0v-.1M225.35,11.65h0v-.1h-.1M225.45,11.65h0v-.2M225.95,11.65h0v-.1M226.15,11.75h0M225.95,11.75h0M225.85,11.75h0M90.25,11.65h0v.1M90.35,11.45h0v.1M90.55,11.45h0v.2M90.95,11.45h0v.1M90.75,11.45h0v.1M91.35,11.45h0v.1h-.1M91.15,11.45h0v.1M92.25,11.45h0M92.15,11.45h0M93.05,11.55h0M93.95,11.55h0M94.45,11.55h0M95.45,11.55h0M96.05,11.55h0M204.25,11.75h0M204.15,11.75h0M204.35,11.75h0M204.15,11.75h0M204.25,11.65h0M222.95,13.05l.4-.1,1.1-.3M209.15,12.95l-.2-.1M222.95,13.25l1.1-.3M203.95,12.55h-.1M203.35,12.75l.6.2.6.2,1.3.3.8.3.8.2M215.55,12.85l.1.1h.1M224.15,13.55l-.6.2-.8.2M222.35,13.95l1.8-.6.3-.1M224.45,12.85l-.4.1-1.5.4M208.25,13.35l-1.4-.4-1.2-.4M209.35,12.95h-.4M205.25,12.75l.7.3.8.3,1.7.6M203.95,12.75l.6.2.6.2,1.2.3.8.3.8.2M208.95,12.25v.7M218.95,12.65v-.4M207.75,12.25v.9M208.25,12.25v1.1M222.55,13.35v-1.1M222.95,12.25v1M207.25,12.25v.8M220.15,12.25v.5M222.55,12.75l-.7.3-.6.3-1.2.6M218.95,12.25v.7M215.55,12.95h3.4M220.35,12.75v.2l-.1.2-.3.3-.3.3-.4.2M219.35,13.35l.7-.4.2-.2.1-.2M219.35,12.25v1.1M212.15,12.25v.7M211.85,12.25v1.1M211.85,13.35l-.4-.4-.1-.1M212.75,12.95h-.6M211.05,13.95l-.9-.6-.5-.3-.6-.3M211.35,12.75v.4l.1.3.2.3.3.2M203.85,12.55v-.3M203.95,12.55h-.1M209.05,12.55h-.1M220.35,12.55h-.2M205.65,12.55v-.3M212.75,11.85h-9.9M224.45,11.85h-8.9M227.45,11.85h-.2M227.25,12.25h.2M203.35,12.75v-.5M202.85,12.25h1.1M203.95,12.75v-.5M203.95,12.75h1.3M205.25,12.75v-.5M209.05,12.25h-3.8M209.05,12.75v-.5M209.05,12.75h2.3M211.35,12.75v-.5M215.55,12.25h4.8M211.35,12.25h1.4M220.35,12.75v-.5M220.35,12.75h2.2M222.55,12.75v-.5M224.45,12.25h-1.9M92.45,12.55l.4.1M97.15,12.95l-.5-.3M108.25,12.85l-.2.1M111.75,12.65l.3-.1M93.05,13.05l-.2-.1-.9-.2-.5-.1M108.05,12.95h.6M113.25,12.75l-.6.2-.5.2-1.3.3-.9.3-.8.2M111.75,12.75h.1l.9-.2M100.15,12.95h.2l.1-.1h.2l.1.1h.1M91.75,13.55l.7.2.8.2M91.35,13.45h.2M95.55,12.95h-.1M93.35,13.35l-1.5-.4-.4-.1M91.45,13.35h.2l1.9.6M106.85,12.95h-.9M109.95,12.55l-1.2.4-1.3.4M107.35,13.95l1.5-.6.7-.3.7-.3M111.75,12.75l-.6.2-.5.2-1.3.3-.7.3-.7.2M106.45,12.95v-.7M108.25,12.25v.7M108.65,12.25v.7M106.85,12.95v-.7M107.45,13.35v-1.1M108.05,12.25v.9M109.35,12.25v.5M93.05,12.85v.4M93.35,13.05v.3M95.45,12.95v-.7M95.55,13.95l-1.2-.6-.8-.3-.7-.3M96.65,12.25v.7M96.25,12.25v1.1M96.25,13.35l-.8-.4-.3-.2-.2-.2M94.95,12.95h0l.1.2.4.3.4.3.5.2M94.85,12.75v.1M100.35,12.95h-3.7M103.45,12.25v.7M100.35,12.95h3.1M100.35,13.95v-1M103.65,13.35l.2-.3M103.65,12.25v1.1M106.15,12.75l-.5.3-.5.3-.7.6M103.75,12.75l.1.2v.5l-.1.3-.2.2M94.95,12.55v-.3M92.45,12.55h-1M92.45,12.25v.3M97.35,12.55h-.7M108.25,12.55h-.2M112.05,12.55v-.3M112.75,12.55h-.7M112.75,12.55v-.3M109.95,12.25v.3M113.55,11.85h-22.1M109.55,12.65v-.4M92.85,12.25h-1.4M92.85,12.75v-.5M92.85,12.75h2M94.85,12.75v-.5M94.85,12.25h8.9M103.75,12.75v-.5M103.75,12.75h2.4M106.15,12.75v-.5M110.25,12.25h-4.1M110.25,12.75v-.5M110.25,12.75h1.5M111.75,12.75v-.5M111.75,12.25h1.8M113.25,12.75v-.5M98.45,7.25h0l-.1.1v.2M89.45,8.05v-.9M89.15,7.15l-.1.1-.1.1v.2M89.35,7.15l.4-.1h.4l.5-.1h.6M89.15,7.15h.2M89.45,7.15h-.3M91.25,6.95l-.5.1h-.5l-.4.1h-.4M91.25,6.95l3.4-.4M91.25,6.95h0M94.65,6.55l-3.4.4M94.65,6.55l.2-.1h.5M94.65,6.55h0M95.35,6.45h.1M95.35,6.45h0M95.35,6.45h0M95.35,6.45h0M95.35,6.45l-.1.1h-.6M111.35,6.95l-3.5-.4M111.35,7.75v-.8M107.85,6.55h0M106.95,6.45h.1M107.05,6.45h0M107.85,6.55h-.6l-.2-.1M107.05,6.45h0M113.45,7.55v-.2l-.1-.1-.1-.1M113.05,8.05v-.9M111.35,6.95h0M113.05,7.15h-.4l-.4-.1h-.4l-.5-.1M113.25,7.15h-.2M113.25,7.15h0M107.85,6.55l3.5.4M111.35,6.95h.5l.5.1h.5l.3.1M107.05,6.45h0M107.05,6.45h.6l.2.1M99.85,2.05h2.7M102.65,2.15h-2.9M95.45,6.45h.9M96.25,6.45h-.9M96.35,6.45h.1M96.25,6.45h.1M107.05,6.75v-.3M105.65,6.45h1.3M107.05,6.45h-1.4M106.95,6.45h.1M105.45,6.45h.2M105.65,6.45h0M96.35,6.45h.1M105.65,6.45h-.1M105.45,6.45h.1M96.75,4.75h8.9M105.75,4.75h-9.1M98.75,6.45h.3M102.65,6.45h.3M99.05,6.45h-.3M98.75,6.45l-.2.1h-.7M98.65,6.45h.1M103.05,6.45h-.1M103.75,6.55h-.6l-.2-.1M102.95,6.45h-.3M99.05,6.45h3.6M99.05,6.45h0M102.65,6.45h0M102.65,7.25v-.8M102.65,6.45h-3.6M99.05,7.25v-.8M91.65,7.15h-.4M90.95,7.55v-.1l.1-.1.1-.1.1-.1M97.85,7.35v-.8M97.85,6.55l-1.8.4M97.85,6.55h0M110.15,7.15h-.3M110.15,7.15l.1.1h.2v.1l.1.1v.1M103.75,7.35v-.8M103.85,6.55h-.1M105.25,6.95l-1.5-.4M96.05,6.95l-.2.1h-.1M95.95,6.95h.1M109.25,7.15h.4v.1M103.85,6.55l1.5.4M105.75,7.15l.7-.1h1.8l1,.1M109.25,7.15h.6M109.85,7.15l-.6-.1h-.5l-.4-.1h-.4M107.95,6.95l-2.3-.4M105.65,6.55l-.1-.1h-.1M105.45,6.45h0M102.95,6.45h2.5M102.95,6.45h.1M103.05,6.45h.6l.2.1M91.75,7.25v-.1h.3M105.35,6.95h-.1M105.35,6.95h.1v.1h-.1l-.3.1M96.15,6.55l-2.6.4M93.55,6.95h-.4l-.5.1h-.5l-.5.1M91.65,7.15h.4M92.05,7.15l1-.1h1.6l.7.1M95.95,7.15l-.2-.1h-.1l.1-.1h.2M95.95,6.95l1.9-.4M97.85,6.55l.1-.1h.7M98.65,6.45h.1M96.45,6.45h2.3M96.45,6.45h0M96.45,6.45h-.2l-.1.1M109.95,7.55v-.1l-.1-.1-.1-.1h-.1M109.65,7.25l-1.2-.1h-2.1l-.8.1M96.25,7.15l.1.1.1.1v.2M96.25,7.15h-.3M95.35,7.15h.6M95.35,7.15h.2l-.1.1M95.65,7.55v-.2l-.1-.1h-.1M95.45,7.25l-.7-.1h-1.9l-1.1.1M91.75,7.25h-.1l-.1.1-.1.1v.1M104.55,7.55v-.2l.1-.1.1-.1M105.05,7.15h.7M105.05,7.15h-.3M105.55,7.25h-.1v.1l-.1.1v.1M105.55,7.25v-.1h.2M103.45,7.75l.2.1h.3l.2.1M103.35,7.75h.1M110.55,7.75h0M110.55,7.75l.5.1h.4l.1.1M111.35,7.75l.6.1h.5l.2.1M110.55,7.65l.8.1M103.75,7.35l.8.2M102.65,7.25h.4l.3.1h.4M99.05,7.25h3.6M99.05,7.25h-.4l-.3.1h-.5M97.85,7.35l-1.4.3M90.95,7.85h-.9l-.1.1M89.95,7.95h1M89.95,8.05v-.1M112.65,8.05v-.1M111.55,7.95h1.1M111.55,8.05v-.1M104.15,8.05v-.1M103.35,7.95h.8M113.55,11.45h-24.3M89.25,11.45h-.4M113.45,8.05v-.5M110.55,8.05h2.9M110.55,8.05v-.5M110.55,7.55h-.6M109.95,7.55v.5M105.35,8.05h4.6M105.35,8.05v-.5M105.35,7.55h-.8M104.55,8.05v-.5M96.45,8.05h8.1M96.45,8.05v-.5M96.45,7.55h-.8M95.65,7.55v.5M91.45,8.05h4.2M91.45,8.05v-.5M91.45,7.55h-.5M90.95,8.05v-.5M88.85,8.05h2.1M88.95,8.05v-.5M98.35,8.05v-.5M203.65,8.05v-.9M203.25,7.15l-.1.1h-.1v.1l-.1.1v.1M203.45,7.15l.4-.1h.5l.5-.1h.5M203.65,7.15h-.4M205.35,6.95l-.5.1h-.4l-.5.1h-.3M203.25,7.15h.2M208.65,6.55l.3-.1h.4M209.25,6.45v.1h-.6M205.35,6.95l3.3-.4M205.35,6.95h0M208.65,6.55l-3.3.4M208.65,6.55h0M220.85,6.45h.1M221.05,6.45h0M221.85,6.55h-.7l-.1-.1M221.05,6.45h-.1M225.35,7.75v-.8M221.85,6.55h0M225.35,6.95l-3.5-.4M226.95,8.05v-.9M227.35,7.55v-.2l-.1-.1-.1-.1M227.25,7.25h.1v.1l.1.1v.1M227.25,7.25v-.1h-.2M225.35,6.95h0M226.95,7.15h-.3l-.4-.1h-.4l-.5-.1M227.15,7.15h-.2M227.05,7.15h.1M216.55,2.15h-.8M215.75,2.15h-2M213.75,2.05h2M215.75,2.05h.7M209.35,6.45h.7M209.95,6.45h-.7M210.05,6.45h.1M220.95,6.45h0M221.85,6.55l3.5.4M225.35,6.95h.5l.5.1h.4l.3.1M227.05,7.15h0M227.05,7.15h0M220.95,6.45h.1M221.05,6.45h.6l.2.1M220.95,6.85v-.4M219.25,6.45h1.6M220.95,6.45h-1.7M220.85,6.45h.1M219.05,6.45h.2M219.25,6.45h0M219.25,6.55v-.1M219.25,6.45h-.1M212.25,6.45h.3M219.15,6.45h0M219.05,6.45h.1M212.55,6.45h-.3M212.25,6.45l-.3.1h-.6M212.15,6.45h.1M210.65,4.75h2.6M213.25,4.75h-2.6M217.15,6.55h-.3M212.55,6.45h.2M212.55,6.45h0M216.15,7.25v-.4M212.75,6.45h-.2M212.55,6.55v-.1M205.05,7.15h-.4M204.35,7.55v-.1l.1-.1.1-.1.1-.1M211.35,7.35v-.8M211.35,6.55l-2.1.4M211.25,6.55h.1M223.35,7.15h-.3M223.35,7.15l.2.1h.1l.1.1v.2M217.15,7.35v-.8M217.25,6.55h-.1M218.35,6.95l-1.2-.4M209.25,6.95l-.3.1h-.1M209.15,6.95h.1M205.05,7.25v-.1h.4M209.75,6.55l-2.8.4M206.95,6.95h-.4l-.5.1h-.6l-.4.1M205.05,7.15h.4M205.45,7.15l.9-.1h1.5l.6.1M209.05,7.15l-.2-.1.1-.1h.2M209.15,6.95l2.1-.4M211.25,6.55l.2-.1h.7M212.15,6.45h.1M210.15,6.45h2.1M210.15,6.45h-.3l-.1.1M209.25,7.15l.1.1.1.1v.2M209.25,7.15h-.2M208.45,7.15h.6M208.45,7.15h.1v.1M208.65,7.55v-.3h-.1M208.55,7.25l-.7-.1h-1.7l-1.1.1M205.05,7.25h-.1l-.1.1v.1h-.1v.1M222.45,7.15h.4v.1M217.25,6.55l1.2.4M218.75,7.15l.8-.1h1.9l1,.1M222.45,7.15h.6M223.05,7.15l-.5-.1h-.6l-.4-.1h-.4M221.15,6.95l-2-.4M219.15,6.55l-.1-.1h-.1.1M219.05,6.45h0M217.05,6.45h2M216.95,6.45h.2l.1.1M223.15,7.55l-.1-.1v-.1l-.1-.1h-.1M222.85,7.25l-1.2-.1h-2.2l-1,.1M218.45,6.95h-.1M218.45,6.95h.1v.1h-.2l-.3.1M218.05,7.15h.7M218.05,7.15h-.4M217.45,7.55v-.2l.1-.1.1-.1M218.45,7.25h0l-.1.1v.2M218.45,7.25v-.1h.3M223.75,7.65l1.1.1M224.85,7.75l.5.1h.4l.1.1M225.35,7.75l.6.1h.5l.1.1M223.75,7.55l1.6.2M217.15,7.35l.3.1M216.15,7.25h.3l.3.1h.4M214.95,7.25h1.2M211.55,7.35h-.2M211.35,7.35l-1.9.4M204.35,7.85h-.1l-.2.1M217.25,7.95h.2M204.05,7.95h.3M204.05,8.05v-.1M226.55,8.05v-.1M225.85,7.95h.7M225.85,8.05v-.1M227.45,8.05h0M227.45,8.05v-.5M227.45,7.55h-.1M227.35,8.05v-.5M223.75,8.05h3.6M223.75,8.05v-.5M223.75,7.55h-.6M223.15,7.55v.5M218.35,8.05h4.8M218.35,8.05v-.5M218.35,7.55h-.9M217.45,8.05v-.5M212.95,8.05h4.5M209.45,8.05h1.5M209.45,8.05v-.5M209.45,7.55h-.8M208.65,7.55v.5M204.75,8.05h3.9M204.75,8.05v-.5M204.75,7.55h-.4M204.35,8.05v-.5M202.85,8.05h1.5M202.95,8.05v-.5M227.45,11.45h-24.6M101.35,4.75h0v-.9M103.25,2.95h-.4.8-.4M103.15,2.85h-.5.9-.4M102.55,2.95h-1.2M101.35,3.85v-.9M202.05,1.25l-3.2.7-3.3.4-3.6.4-3.9.3-4.1.3-4.2.3-4.2.3-7.7.5-7.5.5-7.6.7-3.2.3-3.3.3-3.3.3-3.3.3-3.3.4-3.3.5-2.2.4-2.2.2-2.2.1-1.5-.1-1.5-.1-1.5-.2-1.5-.4-1.4-.5-.8-.5-.9-.6-.9-.6-.9-.7-.9-.5-1-.5-.8-.1h-.8l-.9.1h-1.6l-1.6.1h-6.6M201.25.75l.2.1.3.2.3.2M98.75,4.75h0v-.1h.8v.1M98.85,4.65h.9-.5M99.25,4.65h-.4M99.75,4.65h1.5M101.35,3.75v.9h-.1M101.35,2.85h0M.35,1.35l3.2.6,3.3.5,3.6.3,3.9.4,4.1.3,4.2.3,4.2.3,7.7.5,7.5.6,7.6.7,3.2.3,3.3.3,3.3.3,3.3.3,3.3.4,3.3.5,2.2.3,2.2.3h2.2l1.5-.1h.7M101.35,3.75h-4.2l-4.2-.1-4-.4-3.7-.5-3.9-.5-4-.3-4-.2h-22.8l-8.6-.1-8.5.1h-8.4l-5.6-.1-5.6-.2-1.6-.1-1.5-.1h-1.6l-1.7-.1-1.7-.2-1.6-.2-.9-.1-.4-.1h-1l-.4.1-.5.2-.3.2-.3.3M101.35,2.85v.9M212.25,4.75h-.3l-.4-.1-.3-.1-.2-.2-.2-.2v-.3M213.55,2.95h-.2M213.35,2.95h.8M211.75,2.95h.7M210.85,3.85v-.2l.1-.2.1-.3.3-.2h.4M212.75,6.35l.1-.3.2-.6.2-.7.2-.5.1-.5.1-.1-.1.1h-.4l-.5.1h-1.8M238.65,1.25l-1.4.7-1.5.4-1.6.4-1.8.3-1.9.3-1.9.3-1.9.3-3.5.5-3.3.5-3.1.7-1.2.3-1.2.3-1,.3-1,.3-.8.4-.5.5-.2.4v.2l.1.1M241.55,1.75h.2l1.3-.2.3-.1.3-.1.3-.1.2-.1.1-.1-.1-.2-.1-.1-.2-.1-.3-.1h-.6l-.8.1-1.1.2-1.2.2-1.2.2M210.85,3.75v.3M213.75,2.85h-2M213.75,2.85h0M201.05,3.65l.6.1,2,.3,3.4.5,3.1.5M186.05,1.05v-.2M210.85,3.75h-1.2l-1.1-.1-1.1-.4-1.1-.5-1.3-.5-1.3-.3-1.3-.2h-2.8M211.75,2.85l-.4.1-.3.1-.1.3-.1.2v.2M252.95,55.75h-.5M253.45,37.85l-.5,17.9M247.95,38.95h-.1v-.1l-.1-.2v-.3l.1-.2v-.1h.2v.3l.1.2-.1.1v.3h-.1M252.05,47.25h-.1v-.1l-.1-.2v-.4l.1-.1v-.1l.1-.1v.1l.1.1v.7l-.1.1M248.95,43.95h-.1v-.1l-.1-.2v-.4l.1-.1v-.1h.1l.1.1v.7l-.1.1M251.15,54.25h-.1v-.1l-.1-.2v-.3l.1-.2v-.1h.2v.3l.1.2-.1.1v.3h-.1M248.05,50.95h-.1v-.1l-.1-.2v-.3l.1-.2v-.1h.2v.3l.1.2-.1.1v.3h-.1M252.85,39.25l-.4,16.5M247.65,55.75l-.5-17.9M252.45,55.75h-4.8M262.85,55.75h-.5M263.25,39.25l-.4,16.5M262.75,39.25l-.4,16.5M257.15,41.85l-.1-2.5M262.35,55.75h-3.7M218.55,28.35l.1.1.1.1.1.1.1.2-.1.2-.1.2-.1.1h-.1M218.55,38.05h.1l.1.1.1.2.1.2-.1.1-.1.2-.1.1h-.1M218.25,46.35h.1l.2.1.1.1v.4l-.1.2-.2.1h-.1M215.85,53.35h.1l.2.1.1.2v.3l-.1.2-.2.1h-.1M209.75,43.05h.1l.2.1v.1l.1.2-.1.2v.2l-.2.1h-.1M207.35,50.05h.1l.1.1.1.2.1.2-.1.1-.1.2-.1.1h-.1M207.15,28.35v.1l.2.1.1.1v.4l-.1.2-.2.1M207.15,38.05h0l.2.1.1.2v.3l-.1.2-.2.1M204.05,26.05h.2M206.05,55.75l-2-29.7M206.05,55.75h.2M218.65,29.35h-.2l-.1-.1-.1-.2-.1-.2.1-.2.1-.1.1-.1.2-.1.2.1.1.1.1.1.1.2-.1.2-.1.2-.1.1h-.2M218.65,38.95h-.2l-.1-.1-.1-.2-.1-.1.1-.2.1-.2.1-.1h.4l.1.1.1.2.1.2-.1.1-.1.2-.1.1h-.2M207.25,29.35h-.2l-.2-.1-.1-.2v-.4l.1-.1.2-.1.2-.1.1.1.2.1.1.1v.4l-.1.2-.2.1h-.1M207.25,38.95h-.2l-.2-.1-.1-.2v-.3l.1-.2.2-.1h.3l.2.1.1.2v.3l-.1.2-.2.1h-.1M218.35,47.25h-.1l-.2-.1-.1-.2v-.4l.1-.1.2-.1.1-.1.2.1.2.1.1.1v.4l-.1.2-.2.1h-.2M209.85,43.95h-.1l-.2-.1-.1-.2v-.4l.1-.1.2-.1h.3l.1.1.1.1.1.2-.1.2-.1.2-.1.1h-.2M215.95,54.25h-.1l-.2-.1-.1-.2v-.3l.1-.2.2-.1h.3l.1.1.1.2.1.2-.1.1-.1.2-.1.1h-.2M207.45,50.95h-.2l-.1-.1-.1-.2v-.3l.1-.2.1-.1h.4l.1.1.1.2.1.2-.1.1-.1.2-.1.1h-.2M221.55,26.05l-2,29.7M204.25,26.05h17.3M206.25,55.75l-2-29.7M219.55,55.75h-13.3M200.65,26.05h3.4M204.05,55.75h-1.4M200.95,30.05l-.3-4M202.65,55.75l-1.2-18.5M200.45,26.05h.2M200.75,30.05l-.3-4M202.45,55.75l-1.2-18.5M202.45,55.75h.2M218.55,38.95h.1l.1-.1.1-.2.1-.1-.1-.2-.1-.2-.1-.1h-.1M218.55,29.35h.1l.1-.1.1-.2.1-.2-.1-.2-.1-.1-.1-.1-.1-.1M262.45,39.35h-9.1M262.45,39.25v.1M202.25,39.35h2.7M204.25,28.05h-2M202.25,37.25v2.1M202.25,28.05v2M207.15,38.95h0l.2-.1.1-.2v-.3l-.1-.2-.2-.1M207.15,29.35h0l.2-.1.1-.2v-.4l-.1-.1-.2-.1v-.1M205.25,52.55l-2.6-1M202.65,51.55h3.1M203.55,48.85h2.1M203.55,48.85l-.9,2.7M253.35,41.85h5.3M258.65,41.85l3.7,3.9M253.35,42.55h.1l.5-.1h.6M254.55,42.45h.6l.6.1h.7l.6.2.6.1.5.2.5.2.4.2.3.2.3.2.1.2v.2l-.1.2-.1.2-.3.2-.3.1-.5.1-.5.1h-1.8l-.6-.1-.6-.1-.6-.1-.6-.2-.5-.2M262.35,45.75h-9.1M261.95,48.45h-8.8M261.95,48.45l.4-2.7M253.05,55.45h8.1M261.45,52.75l-.3,2.7M253.05,52.75h8.4M261.45,52.75l-2.2-2.3M205.05,44.55l.3.1M205.05,44.55l.2-.6M205.35,44.55h-.3M253.35,42.65l.2-.1h2.3l.6.1.6.1.6.2.5.1.4.2.4.2.3.2.2.3.1.2v.2l-.1.2-.2.1-.3.2-.4.1-.4.1h-2.3l-.6-.1-.6-.1-.6-.2-.5-.1-.3-.1M253.35,42.45l.1-.1h1.8l.7.1.6.1.6.1.6.1.6.2.5.2.4.2.3.2.3.3.1.2.1.2v.2l-.2.2-.2.2-.3.1-.4.1-.5.1-.5.1h-1.9l-.6-.1-.7-.1-.6-.2-.5-.1-.4-.1M239.35,132.55h0M239.85,129.55v-.1M240.65,134.25h.3l.4.1h.5M241.85,134.35l.7.1.6.1,1.8.2.8.1.9.1M246.65,134.95h.5l.4.1h.4M247.95,135.05h.2l.2-.1M240.75,134.15h-.2l.1.1M249.25,134.75l-.1.1M240.75,134.15l-.3-.1-.3-.1-.2-.2-.2-.2-.1-.2-.1-.3-.1-.2v-.3M248.15,134.95l-.2-.1h-.3l-.3-.1h-.5l-.5-.1-.5-.1h-.6l-.6-.1-.6-.1h-.6l-.5-.1h-.6l-.4-.1h-1l-.1-.1M239.85,129.35h0v.1M239.85,129.55l-.2,1.7-.2,1.3M241.35,117.15l-.8,6.7-.7,5.7M241.05,116.45v.2l.1.2.2.3.3.2.4.3.4.2.6.3.6.2.6.2.7.1.8.2.7.1.8.1h2.1l.6-.1.6-.1.5-.1.5-.1.3-.2.2-.2.2-.3.1-.1M242.75,114.05h-.1l-.4.2-.4.1-.3.2-.2.2-.1.3v.2l.1.3.2.2.3.3.3.2.5.3.5.2.6.2.7.2.7.2.7.1.8.1.7.1.8.1h1.4l.6-.1.6-.1.5-.1.4-.2.4-.2.2-.2.2-.2v-.2M252.45,116.45v-.3l-.2-.2-.2-.3-.3-.2-.5-.3M186.15,134.55h-2.7M182.75,113.95h0l.2-.1h.5l.4.1.5.1.6.1.6.2.6.1.7.2.7.3.7.2.7.3.7.2.7.3.6.2.6.3.5.2.5.2.3.2.3.2.2.2.1.1v.1M192.55,118.85v-.1l-.1-.1-.3-.3-.5-.2-.6-.3-.8-.4-.8-.3M182.45,115.55h0l-.2-.1v-.1l.1-.1.1-.1h.2l.4.1h.4l.4.1.6.1.6.2.7.2.6.2.7.2.8.2.7.3.7.2.6.3.7.3.5.2.6.2.4.3.4.2.2.2.2.1.1.1v.1l-.1.1h-.3M175.85,134.55h-1.6M172.85,133.05v.3l.1.2.1.3.2.2.2.2.2.2.3.1h.3M183.45,134.55h-5.9M183.45,134.55h.1l.1-.1.1-.1.1-.2v-.2l.1-.3v-.5M177.55,134.55h.1v-.1l.1-.2v-.7l.1-.3v-.3M175.85,134.55h-.2l-.3-.1-.2-.2-.2-.2-.1-.2-.1-.3-.1-.2v-.3M177.55,134.55h-1.7M189.45,117.15l-2.5,7.3-2,5.7M189.45,117.15l-.8-.3-.9-.3-.8-.3-.8-.3-.8-.2-.7-.2-.6-.1-.6-.1h-.8v.1M173.45,128.65h0M179.05,129.45h.2l.4.1h.2l.4.1,1.5.2h.7l.5.1.5.1h.4l1.1.1M184.95,130.15l-.6,1.7-.4,1.3M184.95,130.15l-1.1-.1-2.4-.3-1.2-.1-1.2-.1M179.05,129.55h0l-.7-.1h-1.4l-.6-.1h-1.7M174.65,129.35h-1.5M173.15,129.35h0M172.85,133.05h.1M172.95,133.05h0l.5.1h.6l.5-.1M174.55,133.05h.1M174.65,133.05h.1l.7-.1h2.4M177.85,132.95l.6.1M178.45,133.05h2.6l2.9.1M117.25,55.95h-1.2M115.95,55.35h.2l.2-.1h.9l.1-.1M115.95,55.65h.1l.1-.1h.9l.2-.1h.1M115.95,55.95l.1-.1h.8l.2-.1h.3M115.85,55.25h0l.1-.1h1.4l.1-.1M115.85,55.55v-.1h1.3l.2-.1h.1M115.85,55.75h1l.3-.1h.3M115.95,55.35h.6l.3-.1h.5M115.95,55.65h.4l.2-.1h.8M115.95,55.95h.2l.2-.1h.9l.1-.1M117.45,55.85h-.7l-.3.1h-.5M115.85,55.15h1l.3-.1h.1M115.85,55.45h.7l.3-.1h.6M115.85,55.75h.4l.3-.1h.9M115.35,11.75h2.6M118.05,11.85h-2.8M115.25,11.85h0M115.25,13.35h0M115.25,13.35h2.8M112.95,55.95h-.4M112.55,55.95h-.8M111.55,55.15h.4l.3-.1h.1M111.55,55.45h.1l.3-.1h1.3v-.1M111.55,55.75h0l.1-.1h1.4l.2-.1M111.75,55.25h.3l.2-.1h.8M111.75,55.55h.1l.2-.1h1M111.75,55.85h0l.1-.1h1.1l.1-.1M111.75,55.25h.8l.2-.1h.3M111.75,55.55h.5l.3-.1h.5M111.75,55.85h.3l.2-.1h.8M113.25,55.85h-1.6M111.55,55.15h0l.1-.1h.1M111.55,55.45v-.1h1.3l.2-.1h.2M111.55,55.65h1l.3-.1h.4M111.05,11.75h2.7M113.75,11.85h-.2M110.95,13.35h2.8M90.65,55.95h-1.2M89.95,55.95h-.5M89.65,55.85h-.4M89.15,55.25h1.1l.3-.1h.3M89.15,55.55h.8l.3-.1h.6M89.65,55.85l.3-.1h.9M89.45,55.95h0l.1-.1h.1M89.35,55.15h0l.1-.1h.1M89.35,55.35h1.1l.2-.1M89.35,55.65h.9l.2-.1h.2M89.45,55.95h.5l.3-.1h.4M89.35,55.15h.4l.2-.1h.1M89.35,55.45h.1l.3-.1h.9v-.1M89.35,55.75h0l.1-.1h1.2v-.1M89.95,55.95h.5l.2-.1M90.75,55.85v.1h-.8M89.25,55.85h-.1M89.15,55.25h.5l.3-.1h.9M89.15,55.55h.2l.3-.1h1.2M89.25,55.85l.1-.1h1.4l.1-.1M88.65,11.75h1.7M90.35,11.75h1M91.45,11.85h-1M90.45,11.85h-1.8M88.65,13.35h1.8M90.45,13.35h1M226.45,55.95h-1.1M225.35,55.95h-.1M226.55,55.95h-.2M225.15,55.25h.1l.2-.1h1l.1-.1M225.15,55.55l.1-.1h1.1l.1-.1h.1M225.15,55.75h1l.2-.1h.2M226.25,55.85h-1.2M226.35,55.95h.1l.1-.1h.1M225.15,55.15h1l.2-.1M225.15,55.45h.7l.3-.1h.3M225.15,55.75h.5l.2-.1h.6M226.35,55.95h.1M225.05,55.35h-.1.3l.3-.1h1.1v-.1M225.05,55.65h-.1.1l.2-.1h1.2l.2-.1M226.25,55.85l.2-.1h.2M226.65,55.85h-.4M225.05,55.05h-.1.1M225.05,55.35h-.1,1l.3-.1h.4M225.05,55.65h-.1.6l.4-.1h.7M226.65,55.85h0M227.25,11.85h-2.8M224.55,11.75h2.6M224.45,13.35h2.8M86.35,55.95h-1.2M85.65,55.95h-.4M85.25,55.95h0v-.1h.2M85.15,55.15h0l.1-.1M85.15,55.35h1l.2-.1M85.15,55.65h.8l.2-.1h.2M85.25,55.95h.5l.2-.1h.4M85.45,55.85h-.5M84.85,55.25h1.2l.3-.1h.2M84.85,55.55h.9l.3-.1h.5M85.45,55.85l.3-.1h.8M85.05,55.15h.4l.2-.1h.1M85.05,55.45h.2l.2-.1h1v-.1M85.05,55.75h.1l.1-.1h1.1l.1-.1M85.65,55.95h.5l.2-.1h.1M86.45,55.85v.1h-.8M84.95,55.85h0M84.85,55.25h.5l.3-.1h.9M84.85,55.55h.3l.2-.1h1.2M84.95,55.85l.2-.1h1.4v-.1M84.45,11.75h1.7M86.15,11.75h.9M87.15,11.85h-.9M86.25,11.85h-1.9M84.35,13.35h1.9M86.25,13.35h.9M216.75,55.95h-1.2M215.45,55.95h0M215.45,55.95h0l.1-.1h.9l.2-.1M215.45,55.95h.3l.2-.1h.8M216.85,55.85h-.4l-.3.1h-.7M215.25,55.85v-.1h.1M214.75,55.95h-.3M214.45,55.95h-.9M213.45,55.85h.1l.2-.1M213.45,55.85h.5l.3-.1M214.95,55.85h-1.5v.1M215.55,11.85h-2.8M212.75,11.75h2.7M212.75,13.35h2.8M204.05,55.95h-.2M203.75,55.95h0M203.75,55.95h0l.1-.1h.2M203.75,55.95h.2l.1-.1M204.05,55.95h-.3M203.55,55.85v-.1M203.05,11.75h.2M203.25,11.75h2.5M202.95,13.35h.2M203.15,13.35h2.4M224.35,53.95v1M224.35,54.95l.1.1M226.65,55.05h.6M227.35,54.95l-.1.1M224.45,55.05h.8M224.45,55.05h0l.1-.1M227.35,53.95v1M226.65,55.05h.5l.2-.1M226.65,55.05h-1.4M225.95,54.95l.6.1h.1M225.95,53.95v1M224.55,53.95v1M224.55,54.95l.7.1M225.25,55.05h.1l.6-.1M225.95,53.95h-1.4M227.35,53.95h-1.4M224.55,53.95h-.1M227.85,53.75h-4M227.35,53.35h-1.7M110.95,55.05h.1M113.75,55.05h-.3M113.95,54.95l-.1.1M110.75,53.95v1M110.75,54.95l.1.1h.2M113.95,53.95v1M113.45,55.05h.1l.4-.1M111.05,55.05h1.1M111.05,55.05h.1l.2-.1M112.15,55.05h1.3M112.95,54.95l.5.1M112.95,53.95v1M111.35,53.95v1M111.35,54.95l.8.1M112.15,55.05h.1l.7-.1M113.95,53.95h-1M111.35,53.95h-.5M112.95,53.95h-1.6M114.35,53.75h-4M88.65,55.05h.1M91.45,55.05h-.3M91.65,54.95l-.1.1M88.35,53.95v1M88.35,54.95l.1.1h.3M91.65,53.95v1M91.15,55.05h0l.5-.1M88.75,55.05h1.1M88.75,55.05h0l.3-.1M89.85,55.05h1.3M90.65,54.95l.5.1M90.65,53.95v1M89.05,53.95v1M89.05,54.95l.8.1M89.85,55.05h0l.8-.1M88.65,53.35h-.6M91.65,53.95h-1M89.05,53.95h-.6M90.65,53.95h-1.6M92.05,53.75h-4M84.35,55.05h.1M87.15,55.05h-.3M87.35,54.95l-.1.1M84.15,53.95v1M84.15,54.95v.1h.3M87.35,53.95v1M86.85,55.05h0l.5-.1M84.45,55.05h1.1M84.45,55.05h.1l.2-.1M85.55,55.05h1.3M86.35,54.95l.5.1M86.35,53.95v1M84.75,53.95v1M84.75,54.95l.8.1M85.55,55.05h.1l.7-.1M84.35,53.35h-.6M87.35,53.95h-1M84.75,53.95h-.5M86.35,53.95h-1.6M87.75,53.75h-4M115.25,55.05h.1M118.05,55.05h-.3M118.25,54.95l-.1.1M115.05,53.95v1M115.05,54.95v.1h.3M118.25,53.95v1M117.75,55.05h.1l.4-.1M115.35,55.05h1.1M115.35,55.05h.1l.2-.1M116.45,55.05h1.3M117.25,54.95l.5.1M117.25,53.95v1M115.65,53.95v1M115.65,54.95l.8.1M116.45,55.05h.1l.7-.1M118.25,53.95h-1M115.65,53.95h-.5M117.25,53.95h-1.6M118.65,53.75h-4M87.45,13.45h-3.4M215.85,13.45h-3.4M118.35,13.45h-3.4M114.05,13.45h-3.4M205.85,13.45h-3.1M227.55,13.45h-3.4M91.75,13.45h-3.4M89.25,14.55h0M83.15,13.95h6.1M83.15,14.55v-.6M89.25,13.95h30M89.25,14.55v-.6M89.25,14.55h30M119.25,14.55v-.6M89.25,53.35h30M89.25,52.85h30M119.25,53.35v-.5M89.25,52.85h0M83.15,53.35v-.5M88.65,53.35h.6M84.35,53.35h3.7M83.15,53.35h.6M89.25,53.35v-.5M201.15,13.95h11M201.15,14.55v-.6M201.15,14.55h11M229.05,13.95h-16.9M212.15,14.55v-.6M229.05,14.55h-16.9M229.05,14.55v-.6M225.65,53.35h-5.9M229.05,53.35h-1.7M229.05,53.35v-.5M201.15,52.85h1.1M201.15,53.35v-.5M201.15,53.35h1.2M280.45,10.55,280.45,10.55,244.45,10.55h33.2M244.45,10.55v8.5M220.75,37.85h14M227.75,37.25h7M234.75,37.85h43.2M234.75,37.25h43.2M234.75,37.25v.6M277.95,37.85,277.95,37.25,277.95,37.25v.6M218.35,19.55h16.4M218.35,19.05h16.4M218.35,19.05v.5M234.75,19.55h43.2M234.75,19.05h43.2M234.75,19.05v.5M277.95,19.55,277.95,19.05,277.95,19.05v.5M234.75,29.55h-13.4M234.75,30.05h-7M277.95,29.55h-43.2M277.95,30.05h-43.2M234.75,30.05v-.5M277.95,29.55,277.95,30.05,277.95,30.05v-.5M242.25,27.85h-.1l-.1.1-.1.2-.1.2.1.3.1.1.1.2h.1M242.65,28.35v-.2l-.1-.2-.2-.1h-.4l-.1.1-.1.2-.1.2.1.3.1.1.1.2h.4l.2-.2.1-.1v-.3M242.95,28.35l-.1-.3-.1-.2-.2-.2-.2-.1h-.3l-.2.1-.2.2-.2.2v.6l.2.3.2.2.2.1h.3l.2-.1.2-.2.1-.3.1-.3M242.45,29.25h.1l.3-.1.2-.2.1-.3v-.3M243.15,28.35v-.3l-.1-.2-.2-.2-.3-.1h-.1M232.55,27.95l-.1-.1v-.1M235.85,27.85h-.1l-.2.1-.1.2v.5l.1.1.2.2h.1M236.25,29.15h.1l.2-.2.2-.3v-.3M236.75,28.35v-.3l-.2-.2-.2-.2-.2-.1h-.1M236.25,28.35l-.1-.2-.1-.2-.1-.1h-.4l-.2.1-.1.2v.5l.1.1.2.2h.4l.1-.2.1-.1.1-.3M235.95,29.15h.1l.2-.2.2-.3v-.3M235.35,29.15h.1M236.45,28.35v-.3l-.2-.2-.2-.2-.2-.1h-.3l-.2.1-.2.2-.1.2-.1.3.1.3.1.3M253.25,27.95l.1-.3.1-.3M253.45,27.35l-.1-.2-.1-.3-.2-.2-.2-.1h-.1M252.65,27.95l.1-.2.1-.1.1-.3M252.95,27.35l-.1-.2-.1-.2-.1-.1M253.05,27.95l.1-.3v-.3M253.15,27.35v-.2l-.2-.3-.2-.2-.2-.1h-.1M222.15,26.85h-.1l-.1.1-.2.2v.5l.2.1.1.2h.1M222.55,27.35v-.2l-.2-.2-.1-.1h-.4l-.2.1-.1.2v.5l.1.1.2.2h.4l.1-.2.2-.1v-.3M221.45,27.95h0l.2.2.3.1h.2l.3-.1.2-.2.1-.3v-.3M222.75,27.35v-.2l-.1-.3-.2-.2-.3-.1h-.2l-.3.1-.1.1M222.35,28.25h.1l.2-.1.2-.2.2-.3v-.3M223.05,27.35v-.2l-.2-.3-.2-.2-.2-.1h-.1M255.45,26.85h-.1l-.1.1-.1.2-.1.2.1.3.1.1.1.2h.1M255.85,27.35v-.2l-.1-.2-.2-.1h-.4l-.1.1-.1.2-.1.2.1.3.1.1.1.2h.4l.2-.2.1-.1v-.3M256.15,27.35l-.1-.2-.1-.3-.2-.2-.3-.1h-.2l-.2.1-.2.2-.2.3v.5l.2.3.2.2.2.1h.2l.3-.1.2-.2.1-.3.1-.3M255.65,28.25h.1l.3-.1.2-.2.1-.3v-.3M256.35,27.35v-.2l-.1-.3-.2-.2-.3-.1h-.1M249.55,26.85h0l-.2.1-.1.2-.1.2.1.3.1.1.2.2M249.75,28.25h.1l.3-.1.2-.2.1-.3v-.3M250.45,27.35v-.2l-.1-.3-.2-.2-.3-.1h-.1M249.95,27.35v-.2l-.1-.2-.2-.1h-.4l-.1.1-.1.2-.1.2.1.3.1.1.1.2h.4l.2-.2.1-.1v-.3M250.25,27.35l-.1-.2-.1-.3-.2-.2-.2-.1h-.3l-.2.1-.2.2-.2.3v.5l.2.3.2.2.2.1h.3l.2-.1.2-.2.1-.3.1-.3M231.85,25.55h-.1l-.2-.3-.3-.2h-.2M236.65,24.95l.3.1.3.1.3.2.2.3.1.4.1.3M237.95,26.35l-.1.4-.1.4-.2.3-.3.2-.3.1-.3.1M237.75,26.35l-.1-.3-.1-.3-.2-.3-.3-.2-.3-.1h-.3l-.3.1-.3.2-.2.3-.1.3-.1.3.1.4.1.3.2.3.3.2.3.1h.3l.3-.1.3-.2.2-.3.1-.3.1-.4M232.55,24.95l.3.1.3.1.3.2.2.3.1.4.1.3M235.05,24.95l.3.1.3.1.2.2.2.2M235.05,27.85h0M242.35,25.15l-.3-.1-.3-.1M239.15,24.95l.3.1h.1M239.55,27.75h-.1l-.3.1M248.65,29.35h0M248.65,29.35v.1M256.75,29.35h-1.6M256.85,29.55v-.1M256.75,29.35h.1M256.85,29.55l-.1-.2M230.05,29.35h-6.4M223.45,29.35h-2.1M223.45,29.35h.2M223.55,29.55l.1-.2M223.55,29.55l-.1-.2M248.65,29.35h-5.1M239.55,29.35h-3M243.35,29.35h-2M243.35,29.35h.2M243.35,29.35v.2M243.55,29.35l-.2.2M219.75,24.65h.4M219.25,25.55l.5-.9M219.65,25.55h-.4M220.15,24.65h.6M220.15,24.65l-.5.9M253.05,24.65h.4M252.55,25.55l.5-.9M252.95,25.55h-.4M253.45,24.65h.6M253.45,24.65l-.5.9M252.15,24.65h.3M251.55,25.55l.6-.9M251.95,25.55h-.4M252.45,24.65h.6M252.45,24.65l-.5.9M218.75,24.65h.4M218.25,25.55l.5-.9M218.65,25.55h-.4M219.15,24.65h.6M219.15,24.65l-.5.9M251.55,24.65h.6M251.15,24.65h.4M250.65,25.55l.5-.9M251.05,25.55h-.4M251.55,24.65l-.5.9M217.75,24.65h.4M217.25,25.55l.5-.9M217.65,25.55h-.4M218.15,24.65h.6M218.15,24.65l-.5.9M217.15,24.65h.6M216.75,24.65h.4M216.75,24.65l-.5.9M216.25,25.55h.4M217.15,24.65l-.5.9M250.55,24.65h.6M250.15,24.65h.4M250.15,24.65l-.5.9M249.65,25.55h.4M250.55,24.65l-.5.9M249.95,24.65h.2M249.95,24.65v.4M249.65,24.65h.3M220.75,24.65h.4M220.25,25.55l.5-.9M220.65,25.55h-.4M221.15,24.65h.6M221.15,24.65l-.5.9M254.05,24.65h.4M253.55,25.55l.5-.9M253.95,25.55h-.4M254.45,24.65h.6M254.45,24.65l-.5.9M219.75,24.65h.4M219.25,25.55l.5-.9M219.65,25.55h-.4M220.15,24.65h.6M220.15,24.65l-.5.9M253.05,24.65h.4M252.55,25.55l.5-.9M252.95,25.55h-.4M253.45,24.65h.6M253.45,24.65l-.5.9M252.15,24.65h.3M251.55,25.55l.6-.9M251.95,25.55h-.4M252.45,24.65h.6M252.45,24.65l-.5.9M219.15,24.65h.6M218.75,24.65h.4M218.25,25.55l.5-.9M218.65,25.55h-.4M219.15,24.65l-.5.9M251.15,24.65h.4M250.65,25.55l.5-.9M251.05,25.55h-.4M251.55,24.65h.6M251.55,24.65l-.5.9M218.15,24.65h.6M217.75,24.65h.4M217.25,25.55l.5-.9M217.65,25.55h-.4M218.15,24.65l-.5.9M222.15,24.65h.5M221.75,24.65h.4M221.25,25.55l.5-.9M221.65,25.55h-.4M222.15,24.65l-.5.9M255.45,24.65h.6M255.05,24.65h.4M254.55,25.55l.5-.9M254.95,25.55h-.4M255.45,24.65l-.5.9M254.45,24.65h.6M254.05,24.65h.4M253.55,25.55l.5-.9M253.95,25.55h-.4M254.45,24.65l-.5.9M220.75,24.65h.4M220.25,25.55l.5-.9M220.65,25.55h-.4M221.15,24.65h.6M221.15,24.65l-.5.9M253.45,24.65h.6M253.05,24.65h.4M252.55,25.55l.5-.9M252.95,25.55h-.4M253.45,24.65l-.5.9M219.75,24.65h.4M219.25,25.55l.5-.9M219.65,25.55h-.4M220.15,24.65h.6M220.15,24.65l-.5.9M252.45,24.65h.6M252.15,24.65h.3M251.55,25.55l.6-.9M251.95,25.55h-.4M252.45,24.65l-.5.9M219.15,24.65h.6M218.75,24.65h.4M218.25,25.55l.5-.9M218.65,25.55h-.4M219.15,24.65l-.5.9M256.45,24.65h.7M257.15,24.65v.6M255.95,25.55h-.4M255.95,25.55l.5-.9M256.05,24.65h.4M255.55,25.55l.5-.9M223.05,24.65h.7M223.75,24.65v.9M222.55,25.55h-.4M222.55,25.55l.5-.9M222.65,24.65h.4M222.15,25.55l.5-.9M255.45,24.65h.6M255.05,24.65h.4M254.55,25.55l.5-.9M254.95,25.55h-.4M255.45,24.65l-.5.9M222.15,24.65h.5M221.75,24.65h.4M221.25,25.55l.5-.9M221.65,25.55h-.4M222.15,24.65l-.5.9M220.75,24.65h.4M220.25,25.55l.5-.9M220.65,25.55h-.4M221.15,24.65h.6M221.15,24.65l-.5.9M254.05,24.65h.4M253.55,25.55l.5-.9M253.95,25.55h-.4M254.45,24.65h.6M254.45,24.65l-.5.9M248.15,24.65h.3M249.65,24.65v.8M248.45,24.65h1.2M248.45,24.65v.9M225.35,24.65v.9M224.05,24.65h1.3M224.05,24.65v.9M223.75,24.65h.3M257.15,24.65h.3M258.65,24.65v.6M257.45,24.65h1.2M257.45,24.65v.6M246.65,24.65h.3M248.15,24.65v.9M246.95,24.65h1.2M246.95,24.65v.9M260.25,24.65v.6M258.95,24.65h1.3M258.95,24.65v.6M258.65,24.65h.3M225.35,24.65h.2M226.85,24.65v.9M225.55,24.65h1.3M225.55,24.65v.9M246.65,24.65v.9M245.45,24.65h1.2M245.45,24.65v.9M245.15,24.65h.3M227.05,24.65h.1M228.35,24.65v.9M227.15,24.65h1.2M227.15,24.65v.9M260.25,24.65h.3M261.75,24.65v.6M260.55,24.65h1.2M260.55,24.65v.6M241.35,24.65h.2M236.45,24.65h.2M236.45,24.65v.3M241.95,24.65h.6M241.95,24.65v.3M241.55,24.65h.4M241.55,24.65v.3M242.55,24.65h0M242.55,24.65v.1M245.15,24.65v.9M243.95,24.65h1.2M243.95,24.65v.9M243.65,24.65h.3M235.45,24.65h.4M235.45,24.65v.3M235.85,24.65h.6M235.85,24.65v.3M236.45,24.65h.2M236.45,24.65v.3M241.35,24.65h.2M241.95,24.65h.6M241.95,24.65v.3M241.55,24.65h.4M241.55,24.65v.3M242.55,24.65h0M242.55,24.65v.1M234.85,24.65h.6M234.85,24.65v.3M234.45,24.65h.4M234.45,24.65v.3M238.55,24.65h.4M238.55,24.65v.3M238.95,24.65h.6M238.95,24.65v.3M235.45,24.65h.4M235.45,24.65v.3M235.85,24.65h.6M235.85,24.65v.3M236.45,24.65h.2M236.45,24.65v.3M241.35,24.65h.2M241.95,24.65h.6M241.95,24.65v.3M241.55,24.65h.4M241.55,24.65v.3M233.55,24.65h.3M233.85,24.65h.6M233.85,24.65v.3M237.65,24.65h.3M237.95,24.65h.6M237.95,24.65v.3M228.35,24.65h.3M229.95,24.65v.9M228.65,24.65h1.3M228.65,24.65v.9M262.05,24.65h.9M261.75,24.65h.3M262.05,24.65v.6M238.95,24.65h.6M238.95,24.65v.3M238.55,24.65h.4M238.55,24.65v.3M234.45,24.65h.4M234.45,24.65v.3M234.85,24.65h.6M234.85,24.65v.3M235.45,24.65h.4M235.45,24.65v.3M235.85,24.65h.6M235.85,24.65v.3M243.65,24.65v.9M242.95,24.65h.7M242.55,24.65l-.5.9M242.45,25.55h-.4M242.95,24.65l-.5.9M242.95,24.65h-.4M229.95,24.65h.2M231.35,25.55l-.5-.9M230.15,24.65h.7M230.15,24.65v.9M237.05,24.65h-.4M236.15,25.55l.5-.9M236.85,24.95l.2-.3M237.65,24.65v.3M237.05,24.65h.6M233.55,24.65v.3M232.85,24.65h.7M232.75,24.95l.1-.3M232.85,24.65h-.4M236.45,24.65h.2M236.45,24.65v.3M241.35,24.65h.2M220.15,24.65h.6M219.75,24.65h.4M219.25,25.55l.5-.9M219.65,25.55h-.4M220.15,24.65l-.5.9M253.05,24.65h.4M252.55,25.55l.5-.9M252.95,25.55h-.4M253.45,24.65h.6M253.45,24.65l-.5.9M234.95,28.25h0M233.85,27.85h1.2M248.65,25.65h0M248.65,29.35h0M248.65,29.35v-3.7M248.65,25.65h8.1M256.75,29.35h-1.6M248.65,25.65v3.5M256.75,25.65h.1M256.85,29.35h-.1M256.75,29.35v-3.7M235.05,25.65h.1M235.05,27.95v-2.3M235.05,28.95v-.2M246.35,27.55h.7M246.35,28.25h.7M247.05,28.25v-.7M246.35,27.35h.6M246.35,25.95h.6M246.95,25.95v1.4M245.55,27.35h.8M246.35,25.95v1.4M245.55,25.95h.8M245.55,27.55h.8M245.55,28.25h.8M246.35,28.25v-.7M238.25,28.25h-.1l-.2.1v.2l-.1.1.1.2v.1l.2.1h.1M243.55,25.65h5.1M248.65,29.35h-5.1M245.55,25.95v1.4M245.55,28.25v-.7M241.75,25.65h1.6M239.55,29.35h-3M243.35,29.35h-2M238.15,29.05h1.4M238.15,28.25h-.2l-.1.1-.1.2v.3l.1.1.1.1h.2M239.55,28.25h-1.4M235.15,28.85v.1M235.15,25.65v2.2M241.75,25.65v2.1M241.35,27.85h.3M237.95,27.85h1.2M243.55,29.35h-.2M243.55,25.65v3.7M243.35,25.65h.2M243.35,29.35v-3.7M231.05,25.95h-.7M231.05,27.35h-.7M231.05,25.95v1.4M231.05,27.55h-.7M231.05,28.25h-.7M231.05,28.25v-.7M230.35,25.95h-.8M230.35,27.35h-.8M230.35,25.95v1.4M230.35,27.55h-.8M230.35,28.25h-.8M230.35,28.25v-.7M215.25,25.65h0M215.25,26.05v-.4M226.45,27.55h.7M226.45,28.25h.7M227.15,28.25v-.7M226.45,27.35h.7M226.45,25.95h.7M227.15,25.95v1.4M225.65,27.55h.8M225.65,28.25h.8M226.45,28.25v-.7M225.65,27.35h.8M226.45,25.95v1.4M225.65,25.95h.8M223.65,25.65h8.8M230.05,29.35h-6.4M229.55,28.25v-.7M232.45,27.95v-2.3M229.55,25.95v1.4M225.65,25.95v1.4M225.65,28.25v-.7M215.25,25.65h8.2M223.45,29.35h-2.1M215.25,25.65v.4M223.45,25.65h.2M223.65,29.35h-.2M223.65,25.65v3.7M223.45,29.35v-3.7M215.25,25.65h0M215.35,25.55l-.1.1M223.65,25.65h8.8M232.45,25.65l-.2-.1M223.55,25.55h8.7M215.25,25.65h8.2M215.35,25.55l-.1.1M215.35,25.55h8.2M223.65,25.65h-.2M223.65,25.65l-.1-.1M223.55,25.55l-.1.1M235.15,25.65h-.1M235.05,25.65l.2-.1M235.25,25.55h.9M235.15,25.65l.1-.1M243.55,25.65h5.1M243.35,25.55h5.4M241.75,25.65h1.6M241.75,25.65v-.1M241.75,25.55h1.6M243.35,25.55v.1M243.55,25.65h-.2M243.35,25.55l.2.1M248.65,25.65h0M248.75,25.55l-.1.1M256.85,25.55h0M248.65,25.65h8.1M248.75,25.55l-.1.1M248.75,25.55h8.1M256.85,25.65h-.1M256.85,25.65v-.1M256.85,25.55l-.1.1M265.85,25.25h6.2M272.05,25.25v3.1M256.85,25.25h9M265.85,25.25v4.3M256.85,25.25v4.3M262.95,20.15h14.4M262.95,20.15v5.1M274.55,28.35h1.8M276.35,28.35v1.2M269.75,28.35h4.8M274.55,28.35v1.2M269.75,28.35v1.2M277.15,28.35h.2M277.15,28.35v1.2M276.35,28.35h.8M241.45,30.05v7.2M239.45,30.05v7.2M240.95,30.05v7.2M240.05,30.05v7.2M277.35,30.05v7.2M278.65,30.05v7.2M277.65,30.05v7.2M225.25,19.55v5.1M227.05,19.55v6M226.15,19.55v5.1M225.35,19.55v5.1M277.85,19.55v10M277.35,19.55v10M242.75,19.55v5.1M244.65,19.55v5.1M244.05,19.55v5.1M243.05,19.55v5.1M241.35,19.55v10M239.55,19.55v10M241.15,19.55v10M240.25,19.55v10M253.95,29.15v-.2M253.15,27.95h.1M250.45,27.95h.3M250.35,27.95l-.1.1M253.55,28.95h-.1l-.1.1v.1M253.55,28.05v.9M253.15,27.95h.3l.1.1M250.25,28.05l.5-.1M250.25,28.05v1.1M252.05,27.95h1.1M252.85,28.05l.2-.1h.1M250.75,27.95h1.3M250.75,27.95h0l.5.1M250.75,29.15l.1-.1v-.1h.4v.2M251.55,29.15h0l-.1-.1v-.1h-.2M252.85,28.05v1.1M252.05,27.95h0l.8.1M251.25,28.05l.8-.1M251.25,28.05v.9M248.65,29.15h6.5M235.35,29.15v-.2M234.55,27.95h.1M231.85,27.95h.3M231.75,27.95l-.1.1M234.95,28.95h-.1l-.1.1v.1M234.95,28.05v.9M234.55,27.95h.3l.1.1M231.65,28.05l.5-.1M231.65,28.05v1.1M233.45,27.95h1.1M234.25,28.05l.2-.1h.1M232.15,27.95h1.3M232.15,27.95h0l.5.1M232.15,29.15l.1-.1v-.1h.4v.2M232.95,29.15h0l-.1-.1v-.1h-.2M234.25,28.05v1.1M233.45,27.95h0l.8.1M232.65,28.05l.8-.1M232.65,28.05v.9M230.05,29.15h6.5M264.45,39.25h-2.2M262.15,39.15h2.4M264.55,37.95h-2.4M233.85,27.85h-.4l-.2.1h-.1M233.85,27.65h-.9l-.1.1h-.1M233.85,27.35h0l-.1.1h-1M233.85,27.15h-.2l-.2.1h-.7M233.85,26.95h-.6l-.2.1h-.3M233.85,26.75h-1l-.1.1M232.95,26.55h-.2M233.85,27.85h-.8l-.2.1M233.85,27.55h0l-.1.1h-1M233.85,27.35h-.2l-.2.1h-.7M233.85,27.15h-.6l-.2.1h-.3M233.85,26.95h-1l-.1.1M233.85,26.65h-.1l-.1.1h-.9M233.95,27.75h-.8l-.2.1h-.4M233.95,27.55h-1.2l-.1.1h-.1M233.95,27.25h0l-.2.1h-1.2M233.95,27.05h-.5l-.3.1h-.6M233.95,26.85h-1l-.2.1h-.2M232.95,26.65h-.3l-.1.1M233.95,27.65v.1h-1.2l-.1.1h-.1M233.95,27.45h0l-.2.1h-1.2M233.95,27.25h-.5l-.3.1h-.6M233.95,27.05h-1l-.2.1h-.2M233.95,26.75h0v.1h-1.3l-.1.1M232.65,26.65h0M232.85,26.55h.9M233.75,26.55h0M232.95,26.65h1M232.75,26.55h.2M232.95,26.55h-.1l-.1.1h-.1M232.65,26.65h.3M234.45,39.25h-2.3M232.05,39.15h2.4M234.45,37.95h-2.4M251.45,26.55h.7M252.15,26.55h.2M251.15,26.65h0M252.55,27.85h0v.1M252.55,27.65h-.1l-.2.1h-1.1M252.55,27.45h-.6l-.3.1h-.5M252.55,27.25h-1.1l-.2.1h-.1M252.55,26.95h0l-.1.1h-1.3M252.55,26.75h-.3l-.3.1h-.8M252.45,27.85h-.9l-.2.1M252.45,27.55h0l-.1.1h-1M252.45,27.35h-.3l-.2.1h-.6M252.45,27.15h-.7l-.2.1h-.2M252.45,26.85v.1h-1.1v.1M252.45,26.65h-.1l-.2.1h-.8M252.45,27.75h0l-.1.1h-1M252.45,27.55h-.3l-.2.1h-.6M252.45,27.35h-.7l-.2.1h-.2M252.45,27.15h-1.1v.1M252.45,26.85h-.1l-.2.1h-.8M252.45,26.65h-.5l-.2.1h-.4M251.15,26.65h1.4M252.55,27.65v.1h-1.3l-.1.1M252.55,27.45h-.1l-.2.1h-1.1M252.55,27.25h-.6l-.3.1h-.5M252.55,27.05h-1.1l-.2.1h-.1M252.55,26.75h0l-.1.1h-1.3M253.05,39.25h-2.3M250.65,39.15h2.4M253.05,37.95h-2.4M271.25,39.25h-2.2M268.95,39.15h2.4M271.35,37.95h-2.4M100.95,11.75h0M100.95,11.75h0M100.95,11.75h0M100.95,11.75h0M100.95,11.75h0M100.95,11.75h0M100.95,11.75h0M100.95,11.75h0M100.95,11.75h0M100.95,11.75h0M100.95,11.75h0M100.95,11.75h0M100.95,11.55h0M100.95,11.75h0M100.55,11.45l.1.1.1.1.1.1h.1M100.95,11.55h-.1v-.1h-.1M101.65,11.75l.1-.1h.1l.1-.1v-.1M101.75,11.45h0v.1h-.1M101.65,11.55h-.7M100.95,11.75h.7M204.25,11.45v.2h.1v.1M204.85,11.75h.1M204.65,11.75h.2M204.55,11.75h.1M204.45,11.55h-.1M204.35,11.75h.2M204.65,11.75l.1-.1M204.55,11.75v-.1h.1M204.55,11.45h0l-.1.1M205.05,11.55h0M204.75,11.45v.1l.1.1.1.1M204.95,11.55h0M205.75,11.75h0M205.55,11.75h.2M205.45,11.75h.1M205.35,11.75h.1M205.25,11.75h.1M205.25,11.55h-.3M204.95,11.75h.3M205.75,11.75v-.1M205.55,11.75l.1-.1M205.45,11.75l.1-.1.1-.1M205.35,11.75v-.1h.1v-.1M205.25,11.75v-.1h.1v-.1M205.25,11.45h0l-.1.1M102.55,11.75h0M102.55,11.75h0M102.55,11.75h0M102.55,11.75h.1M102.65,11.75h0M102.65,11.75h0M102.65,11.75h0M102.65,11.75h.1M102.75,11.75h0M102.75,11.75h0M102.75,11.75h0M102.75,11.75h.1M103.55,11.75l.1-.1h.1l.1-.1v-.1M103.65,11.45h0v.1h-.1M102.85,11.75h0M102.45,11.45h0l.1.1.1.1.1.1h.1M102.85,11.55h-.1v-.1h-.1M103.55,11.55h-.7M102.85,11.75h.7M206.15,11.55h0v-.1h-.1M206.05,11.55h0l-.1-.1M205.95,11.55h-.1v-.1M205.55,11.45v.1l.1.1h.1v.1M205.75,11.55h0v-.1M206.85,11.75h.1M206.75,11.75h.1M206.65,11.75h.1M206.55,11.75h.1M206.45,11.75h.1M206.25,11.75h.2M206.75,11.75l.1-.1M206.15,11.75h.1M206.65,11.75l.1-.1M206.15,11.55h-.4M205.75,11.75h.4M206.55,11.75l.1-.1.1-.1v-.1M206.45,11.75v-.1h.1l.1-.1v-.1M206.25,11.75l.1-.1h.1v-.1l.1-.1M206.15,11.75l.1-.1h.1v-.2M206.25,11.45h0v.1h-.1M104.75,11.55h-.1M104.85,11.45h0l-.1.1M104.85,11.45h0v.1h-.1M104.95,11.45h0l-.1.1M104.05,11.75h.1M104.95,11.45h0v.1h-.1M104.15,11.75h0M105.05,11.45l-.1.1M104.15,11.75h.1M105.05,11.45h0v.1h-.1M104.25,11.75h0M105.15,11.45h0l-.1.1M104.25,11.75h.1M105.15,11.45h0v.1h-.1M104.35,11.75h0M105.25,11.45l-.1.1h-.1M104.35,11.75h.1M105.25,11.45h0v.1h-.1M104.45,11.75h0M105.35,11.45h0l-.1.1h-.1M104.45,11.75h.1M105.35,11.45h0v.1h-.1M104.55,11.75h0M105.45,11.45l-.1.1h-.1M104.55,11.75h.1M105.35,11.75l.1-.1h.1l.1-.1v-.1M105.45,11.45h0v.1h-.1M104.65,11.75h0M104.65,11.75h.1M105.35,11.55h-.6M104.75,11.75h.6M104.35,11.45l.1.1.1.1.1.1h.1M104.75,11.55h-.1l-.1-.1M207.45,11.45h0M207.45,11.55h0l-.1-.1M208.35,11.75h0M207.35,11.55h0l-.1-.1M208.25,11.75h.1M207.25,11.55h-.1v-.1M208.15,11.75h.1M207.15,11.55h-.1v-.1M208.05,11.75h.1M207.05,11.55h-.1v-.1M207.95,11.75h.1M206.65,11.45l.1.1v.1h.1l.1.1M206.95,11.55h-.1v-.1M207.85,11.75h.1M208.15,11.75l.1-.1M207.75,11.75h.1M208.05,11.75l.1-.1M207.65,11.75h.1M207.95,11.75l.1-.1.1-.1M207.55,11.75h.1M207.85,11.75l.1-.1.1-.1M207.45,11.75h.1M207.75,11.75l.1-.1.1-.1v-.1M207.45,11.55h-.5M206.95,11.75h.5M207.65,11.75l.1-.1.1-.1v-.1M207.55,11.75l.1-.1.1-.1v-.1M207.45,11.75l.1-.1.1-.1v-.1M207.55,11.45h-.1v.1M106.35,11.45h0M106.45,11.45h0v.1M105.55,11.75h.1M106.55,11.45h0l-.1.1M105.65,11.75h0M106.65,11.45h0l-.1.1h-.1M105.65,11.75h.1M106.65,11.45v.1h-.1M105.75,11.75h.1M106.75,11.45v.1h-.1M105.85,11.75h0M106.85,11.45h0l-.1.1h-.1M105.85,11.75h.1M106.85,11.45h0v.1h-.1M105.95,11.75h.1M106.95,11.45h0v.1h-.1M106.05,11.75h.1M107.05,11.45h0l-.1.1M106.15,11.75h0M107.15,11.45l-.1.1h-.1M106.15,11.75h.1M107.05,11.75l.1-.1h.1l.1-.1v-.1M107.15,11.45h0v.1h-.1M106.25,11.75h.1M106.35,11.75h0M106.35,11.75h.1M107.05,11.55h-.6M106.45,11.75h.6M106.15,11.45h0l.1.1.1.1.1.1M106.45,11.55h0l-.1-.1M108.05,11.45h0v.1h-.1M107.05,11.75h.1M108.15,11.45h0l-.1.1M107.15,11.75h.1M108.25,11.45h0l-.1.1M107.25,11.75h.1M108.35,11.45h0l-.1.1M107.35,11.75h.1M108.45,11.45h0l-.1.1M107.45,11.75h.1M108.45,11.45h0v.1h-.1M107.55,11.75h0M108.55,11.45h0v.1h-.1M107.55,11.75h.1M108.55,11.75l.1-.1h.1l.1-.1v-.1M108.65,11.45h0v.1h-.1M107.65,11.75h.1M107.75,11.75h.1M107.85,11.75h.1M107.95,11.75h.1M108.55,11.55h-.5M108.05,11.75h.5M107.75,11.45h0l.1.1v.1h.1M107.95,11.65h0l.1.1M108.05,11.55h-.1v-.1M209.85,11.75h.1M209.05,11.45h-.1M209.85,11.75h0M208.95,11.55v-.1M209.75,11.75h.1M208.85,11.55h0v-.1M209.65,11.75h.1M208.85,11.55h0l-.1-.1M209.85,11.75l.1-.1M209.55,11.75h.1M208.75,11.55h0l-.1-.1M209.75,11.75l.1-.1M209.45,11.75h.1M208.65,11.55h0l-.1-.1M209.65,11.75l.1-.1M209.35,11.75h.1M208.55,11.55h0v-.1h-.1M209.55,11.75l.1-.1h.1M209.35,11.75h0M208.55,11.55h-.1v-.1h-.1M209.45,11.75l.1-.1h.1l.1-.1M209.25,11.75h.1M208.45,11.55h-.1v-.1M209.35,11.75l.1-.1h.1l.1-.1M209.15,11.75h.1M208.05,11.45v.1l.1.1h.1l.1.1M208.35,11.55h0l-.1-.1M209.35,11.75l.1-.1h.1v-.1l.1-.1M209.05,11.75h.1M209.25,11.75l.1-.1h.1v-.1l.1-.1M208.95,11.75h.1M209.15,11.75l.1-.1h.1l.1-.1v-.1M208.85,11.75h.1M209.05,11.75l.1-.1h.1l.1-.1v-.1M208.85,11.55h-.5M208.35,11.75h.5M208.95,11.75l.1-.1h.1l.1-.1v-.1M208.85,11.75l.1-.1h.1l.1-.1v-.1M209.05,11.45h0l-.1.1h-.1M210.65,11.45h0M210.65,11.55v-.1h-.1M210.55,11.55h0v-.1M211.35,11.75h0M210.55,11.55h0l-.1-.1M211.25,11.75h.1M210.55,11.55h-.1v-.1h-.1M211.15,11.75h.1M210.45,11.55h0l-.1-.1M211.15,11.75h0M210.35,11.55h0l-.1-.1M211.05,11.75h.1M210.35,11.55h-.1v-.1h-.1M210.95,11.75h.1M210.25,11.55h0l-.1-.1M210.95,11.75h0M210.25,11.55h-.1v-.1h-.1M210.85,11.75h.1M210.15,11.55h-.1v-.1M210.85,11.75h0M210.05,11.55h0l-.1-.1M210.75,11.75h.1M210.05,11.55h-.1v-.1h-.1M210.65,11.75h.1M209.65,11.45v.1l.1.1.2.1M209.95,11.55h0l-.1-.1M210.65,11.75h0M210.55,11.75h.1M210.55,11.55h-.6M209.95,11.75h.6M210.55,11.75l.1-.1h.1l.1-.1v-.1M210.65,11.45h0v.1h-.1M109.45,11.45h-.1M109.55,11.45h0l-.1.1M109.65,11.45h0l-.1.1M109.75,11.45h0v.1h-.1M108.55,11.75h.1M109.85,11.45h0v.1h-.1M108.65,11.75h.1M109.85,11.75l.1-.1h.1v-.1l.1-.1M109.95,11.45h0v.1h-.1M108.75,11.75h.1M108.85,11.75h.2M108.55,11.65h.1v.1M109.05,11.75h.1M108.65,11.65h.1v.1M109.15,11.75h.1M108.75,11.65h.1v.1M109.25,11.75h.1M108.85,11.55v.1h.1l.1.1M109.35,11.75h.1M108.85,11.45l.1.1v.1h.1l.1.1M109.85,11.55h-.4M109.45,11.75h.4M108.95,11.45l.1.1v.1h.1l.1.1M109.05,11.45l.1.1v.1h.1l.1.1M109.15,11.45l.1.1.1.1.1.1M109.45,11.55h0l-.1-.1M110.55,11.45h0v.1M110.75,11.45h0l-.1.1M110.85,11.45h0v.1h-.1M110.95,11.75v-.1h.1v-.1l.1-.1M110.95,11.45h0v.1M109.85,11.75h.1M109.95,11.75h.1M110.05,11.75h.2M110.25,11.75h.1M110.35,11.75h.1M110.45,11.75h.1M109.95,11.65h.1v.1M110.95,11.55h-.4M110.55,11.75h.4M110.05,11.55v.1h.1l.1.1M110.15,11.55l.1.1.1.1M110.25,11.55l.1.1h.1v.1M110.45,11.55v.1h.1v.1M110.55,11.55h0v-.1M212.25,11.55h0l-.1-.1M212.25,11.55h-.1v-.1h-.1M212.15,11.55h0l-.1-.1M212.85,11.75h0M212.15,11.55h-.1v-.1M212.85,11.75h0M212.15,11.55h-.1l-.1-.1M212.75,11.75h.1M212.05,11.55h0l-.1-.1M212.75,11.75h0M212.05,11.55h-.1v-.1h-.1M212.65,11.75h.1M211.95,11.55h0l-.1-.1M212.65,11.75h0M211.95,11.55h-.1v-.1M212.65,11.75h0M211.95,11.55h-.1l-.1-.1M212.55,11.75h.1M211.85,11.55h0l-.1-.1M212.55,11.75h0M211.85,11.55h-.1v-.1h-.1M212.45,11.75h.1M211.75,11.55h0l-.1-.1M212.45,11.75h0M211.75,11.55h-.1v-.1M212.45,11.75h0M211.35,11.45l.1.1.1.1.1.1h.1M211.75,11.55h-.1l-.1-.1M212.35,11.75h.1M212.35,11.55h-.6M211.75,11.75h.6M212.35,11.75l.1-.1h.1l.1-.1M212.55,11.45h0l-.1.1h-.1M111.65,11.75l.1-.1.1-.1v-.1M110.95,11.75h.1M111.05,11.75h.1M111.15,11.75h.1M111.25,11.75h.2M111.65,11.55h-.2M111.45,11.75h.2M111.05,11.65h0l.1.1M111.15,11.65h.1v.1M111.35,11.65h0l.1.1M111.45,11.55h0v-.1M214.45,11.75h0M214.45,11.75h0M214.45,11.75h0M214.35,11.75h.1M214.35,11.75h0M214.35,11.75h0M214.35,11.75h0M214.35,11.75h0M214.35,11.75h0M214.25,11.75h.1M214.25,11.75h0M214.25,11.75h0M214.25,11.75h0M213.25,11.45v.1l.1.1.2.1M213.55,11.55h0l-.1-.1M214.25,11.55h-.7M213.55,11.75h.7M214.25,11.75l.1-.1h.1l.1-.1.1-.1M214.45,11.45h0l-.1.1h-.1M112.05,11.75l.1-.1v-.1l.1-.1M111.65,11.75h0M111.65,11.75h.2M111.85,11.75h.1M112.05,11.55h0M111.95,11.75h.1M111.65,11.75h0M111.75,11.65h0l.1.1M111.85,11.65h.1v.1M112.05,11.55h0v-.1M215.35,11.75h0M215.35,11.75h0M215.35,11.75h0M215.35,11.75h.1M215.45,11.75h0M215.45,11.75h0M215.45,11.75h0M215.45,11.75h0M215.45,11.75h0M215.45,11.75h0M215.45,11.75h0M215.45,11.75h0M215.45,11.75h0M216.15,11.75l.1-.1h.1l.1-.1.1-.1M216.35,11.45h0l-.1.1h-.1M216.15,11.55h-.7M215.45,11.75h.7M215.15,11.45v.1l.2.1.1.1M215.45,11.55h0l-.1-.1M217.75,11.45h0l-.1.1h-.1M217.75,11.45h0v.1h-.1M217.85,11.45h0l-.1.1h-.1M216.95,11.75h0M217.85,11.45h0l-.1.1h-.1M216.95,11.75h.1M217.85,11.45h0v.1h-.1M217.05,11.75h0M217.95,11.45h0l-.1.1h-.1M217.05,11.75h0M217.95,11.45h0l-.1.1h-.1M217.05,11.75h.1M217.95,11.45h0v.1h-.1M217.15,11.75h0M218.05,11.45h0l-.1.1h-.1M217.15,11.75h0M218.05,11.45h0l-.1.1h-.1M217.15,11.75h.1M218.05,11.45h0v.1h-.1M217.25,11.75h0M218.15,11.45h0l-.1.1h-.1M217.25,11.75h0M218.15,11.45h0l-.1.1h-.1M217.25,11.75h.1M218.15,11.45v.1h-.1M217.35,11.75h0M218.05,11.75l.1-.1h.1l.1-.1v-.1M218.25,11.45h0l-.1.1h-.1M217.35,11.75h0M218.05,11.55h-.7M217.35,11.75h.7M217.05,11.45l.1.1.1.1.1.1M217.35,11.55h0l-.1-.1M112.15,11.75h0M112.15,11.75l.1-.1M112.25,11.65h0v-.2M219.25,11.45h0l-.1.1M219.35,11.45h0l-.1.1h-.1M219.35,11.45h0v.1h-.1M218.45,11.75h.1M219.45,11.45h0l-.1.1h-.1M218.55,11.75h0M219.45,11.45h0v.1h-.1M218.55,11.75h.1M219.55,11.45h0l-.1.1h-.1M218.65,11.75h.1M219.55,11.45h0v.1h-.1M218.75,11.75h0M219.65,11.45h0l-.1.1M218.75,11.75h.1M219.75,11.45h0l-.1.1h-.1M218.85,11.75h0M219.75,11.45h0v.1h-.1M218.85,11.75h.1M219.85,11.45h0l-.1.1h-.1M218.95,11.75h0M219.85,11.45v.1h-.1M218.95,11.75h.1M219.95,11.45l-.1.1h-.1M219.05,11.75h.1M219.85,11.75l.1-.1h.1l.1-.1v-.1M219.95,11.45h0v.1h-.1M219.15,11.75h0M219.15,11.75h.1M219.85,11.55h-.6M219.25,11.75h.6M218.85,11.45l.1.1.1.1.1.1h.1M219.25,11.55h-.1v-.1h-.1M111.95,11.75h0M111.85,11.75h0M111.65,11.75h0M220.85,11.45h0M219.95,11.75h0M220.95,11.45h0l-.1.1M219.95,11.75h.1M220.95,11.45h0v.1M220.05,11.75h.1M221.05,11.45h0v.1h-.1M220.15,11.75h.1M221.15,11.45h0v.1h-.1M220.25,11.75h.1M221.25,11.45h0l-.1.1M220.35,11.75h0M221.35,11.45h0l-.1.1h-.1M220.35,11.75h.1M221.35,11.45h0v.1h-.1M220.45,11.75h.1M221.45,11.45h0v.1h-.1M220.55,11.75h.1M221.55,11.45h0l-.1.1M220.65,11.75h0M221.45,11.75l.1-.1h.1l.1-.1v-.1M221.65,11.45h0l-.1.1h-.1M220.65,11.75h.1M220.75,11.75h.1M220.85,11.75h.1M221.45,11.55h-.5M220.95,11.75h.5M220.65,11.45v.1l.1.1h.1l.1.1M220.95,11.55h-.1v-.1M222.45,11.45h0v.1M221.45,11.75h.1M222.55,11.45h0v.1h-.1M221.55,11.75h.1M222.65,11.45h0v.1h-.1M221.65,11.75h.1M222.75,11.45h0v.1h-.1M221.75,11.75h.1M222.85,11.45h0v.1h-.1M221.85,11.75h.1M222.95,11.45h0v.1h-.1M221.95,11.75h.1M222.95,11.75l.1-.1h.1l.1-.1v-.1M223.05,11.45v.1h-.1M222.05,11.75h.1M222.15,11.75h.1M222.25,11.75h.1M222.35,11.75h.1M222.95,11.55h-.5M222.45,11.75h.5M222.35,11.65h.1v.1M222.45,11.55h0l-.1-.1M223.75,11.45h0v.1M223.85,11.45h0v.1M224.05,11.45h0l-.1.1M222.95,11.75h0M224.15,11.45h0l-.1.1M222.95,11.75h.1M224.15,11.75l.1-.1h.1v-.1l.1-.1M224.25,11.45h0v.1h-.1M223.05,11.75h.2M223.25,11.75h.1M223.35,11.75h.1M223.45,11.75h.1M222.95,11.65h.1v.1M223.55,11.75h.1M223.05,11.65h.1l.1.1M223.65,11.75h.1M223.15,11.65h.1l.1.1M224.15,11.55h-.4M223.75,11.75h.4M223.25,11.55h0v.1h.1l.1.1M223.35,11.45v.1l.1.1.1.1M223.45,11.45v.1l.1.1h.1v.1M223.55,11.45v.1l.1.1h.1v.1M223.75,11.55h0v-.1M224.85,11.45v.1M225.05,11.45l-.1.1M225.15,11.75v-.1h.1v-.1l.1-.1M225.15,11.45v.1M224.15,11.75h0M224.15,11.75h.2M224.35,11.75h.1M224.45,11.75h.1M224.55,11.75h.1M224.65,11.75h.2M225.15,11.55h-.3M224.85,11.75h.3M224.25,11.65h0l.1.1M224.35,11.55l.1.1h.1v.1M224.55,11.55v.1h.1v.1M224.65,11.55l.1.1.1.1M224.85,11.55h0l-.1-.1M225.75,11.75l.1-.1.1-.1v-.1M225.15,11.75h0M225.15,11.75h.1M225.25,11.75h.2M225.45,11.75h.1M225.75,11.55h-.1M225.55,11.75h.2M225.15,11.75h0M225.15,11.65h.1v.1M225.35,11.65h0l.1.1M225.45,11.65h0l.1.1M225.65,11.55h-.1v-.1M225.75,11.75l.1-.1M225.95,11.75v-.1M226.05,11.75l.1-.1v-.2M225.75,11.75h0M225.85,11.75h.1M226.05,11.75h0M225.95,11.65h0v.1h.1M226.05,11.55h0v-.1M226.15,11.75v-.1l.1-.1v-.1M225.85,11.75v-.1M225.85,11.75h0M90.35,11.75h0M90.25,11.65v.1h.1M90.15,11.45v.2M90.15,11.65h0v.1h.1M90.25,11.75h0M90.25,11.75v-.1M90.15,11.45v.2M90.15,11.45l.1.1v.1l.1.1M90.75,11.75h0M90.65,11.75h.1M90.45,11.75h.1M90.45,11.55h-.1M90.35,11.75h.1M90.55,11.75l.1-.1M90.45,11.75v-.1h.1M90.45,11.45h0v.1h-.1M90.65,11.45v.2h.1v.1M91.55,11.75h0M91.45,11.75h.1M91.25,11.75h.2M91.15,11.75h.1M91.05,11.75h.1M90.95,11.55h-.2M90.75,11.75h.3M91.45,11.75v-.1h.1M91.25,11.75l.1-.1h.1v-.1M91.15,11.75l.1-.1v-.1M91.05,11.75v-.1h.1v-.1M91.05,11.45h0v.1h-.1M91.95,11.55l-.1-.1M91.75,11.55h0v-.1M91.65,11.55h0v-.1M91.35,11.45h0v.1l.1.1h.1v.1M91.55,11.55h0v-.1M92.55,11.75h.1M92.35,11.75h.2M92.25,11.75h.1M92.15,11.75h.1M92.05,11.75h.1M91.85,11.75h.2M92.55,11.75v-.1M92.35,11.75l.1-.1M91.85,11.55h-.3M91.55,11.75h.3M92.25,11.75l.1-.1.1-.1M92.15,11.75l.1-.1.1-.1v-.1M92.05,11.75v-.1h.1l.1-.1v-.1M91.85,11.75l.1-.1h.1v-.2M91.95,11.45h0v.1h-.1M93.15,11.55l-.1-.1M93.05,11.55h-.1v-.1M93.95,11.75h0M92.95,11.55h-.1v-.1M93.85,11.75h.1M92.85,11.55h-.1v-.1M93.75,11.75h.1M92.75,11.55h-.1v-.1M93.55,11.75h.2M92.35,11.45v.1l.1.1h.1l.1.1M92.65,11.55h-.1v-.1M93.45,11.75h.1M93.35,11.75h.1M93.25,11.75h.1M93.15,11.75h.1M93.05,11.75h.1M93.55,11.55h.1v-.1M93.05,11.55h-.4M92.65,11.75h.4M93.45,11.55h0l.1-.1M93.35,11.55h0l.1-.1M93.05,11.75l.1-.1h.1v-.1l.1-.1M93.15,11.45h0l-.1.1M95.45,11.75h0M95.35,11.75h.1M94.55,11.55h-.1v-.1M95.25,11.75h.1M94.45,11.55h0l-.1-.1M95.15,11.75h.1M94.35,11.55h0l-.1-.1M95.35,11.75l.1-.1M95.05,11.75h.1M94.25,11.55h0l-.1-.1M95.25,11.75l.1-.1M95.05,11.75h0M94.25,11.55h-.1l-.1-.1M95.15,11.75l.1-.1h.1M94.95,11.75h.1M94.15,11.55h-.1v-.1M95.05,11.75l.1-.1h.1M94.85,11.75h.1M94.05,11.55h-.1v-.1M95.05,11.75v-.1h.1l.1-.1M94.75,11.75h.1M93.65,11.45v.1l.1.1h.1l.1.1M93.95,11.55h-.1v-.1M94.95,11.75l.1-.1.1-.1v-.1M94.65,11.75h.1M94.85,11.75l.1-.1h.1v-.2M94.55,11.75h.1M94.75,11.75l.1-.1h.1v-.1l.1-.1M94.45,11.75h.1M94.65,11.75l.1-.1h.1v-.1l.1-.1M94.45,11.55h-.5M93.95,11.75h.5M94.55,11.75l.1-.1h.1l.1-.1v-.1M94.45,11.75l.1-.1h.1l.1-.1v-.1M94.55,11.45h0v.1h-.1M96.15,11.55v-.1M96.95,11.75h0M96.15,11.55l-.1-.1M96.85,11.75h.1M96.15,11.55h-.1v-.1h-.1M96.75,11.75h.1M96.05,11.55h-.1v-.1M96.65,11.75h.1M95.95,11.55h0l-.1-.1M96.65,11.75h0M95.85,11.55h0v-.1h-.1M96.55,11.75h.1M95.85,11.55h-.1v-.1h-.1M96.45,11.75h.1M95.75,11.55h0l-.1-.1M96.45,11.75h0M95.65,11.55h0l-.1-.1M96.35,11.75h.1M95.65,11.55h-.1v-.1h-.1M96.25,11.75h.1M95.55,11.55h0l-.1-.1M96.25,11.75h0M95.15,11.45l.1.1.1.1.1.1M95.45,11.55h0l-.1-.1M96.15,11.75h.1M96.05,11.75h.1M96.05,11.55h-.6M95.45,11.75h.6M96.05,11.75l.1-.1h.1l.1-.1v-.1M96.15,11.45v.1h-.1M204.25,11.75h0M97.85,11.55h0l-.1-.1M97.85,11.55h-.1l-.1-.1M97.75,11.55h0l-.1-.1M98.45,11.75h0M97.75,11.55h-.1v-.1h-.1M98.35,11.75h.1M97.65,11.55h0l-.1-.1M98.35,11.75h0M97.65,11.55h-.1v-.1h-.1M98.25,11.75h.1M97.55,11.55h0l-.1-.1M98.25,11.75h0M97.55,11.55h-.1v-.1h-.1M98.15,11.75h.1M97.45,11.55h0l-.1-.1M98.15,11.75h0M97.45,11.55h-.1v-.1h-.1M98.05,11.75h.1M97.35,11.55h0l-.1-.1M98.05,11.75h0M97.35,11.55h-.1v-.1h-.1M97.95,11.75h.1M97.25,11.55h0l-.1-.1M97.95,11.75h0M97.25,11.55h-.1v-.1h-.1M97.85,11.75h.1M96.85,11.45l.1.1.1.1.1.1M97.15,11.55h0l-.1-.1M97.85,11.75h0M97.85,11.55h-.7M97.15,11.75h.7M97.85,11.75l.1-.1h.1l.1-.1v-.1M97.95,11.45h0v.1h-.1M204.05,11.45v.2l.1.1M204.25,11.75h.1M204.15,11.75h0M204.35,11.75v-.1M204.15,11.75l.1-.1M204.15,11.45v.1M99.95,11.75h.1M99.95,11.75h0M99.95,11.75h0M99.95,11.75h0M99.85,11.75h.1M99.85,11.75h0M99.85,11.75h0M99.85,11.75h0M99.75,11.75h.1M99.75,11.75h0M99.75,11.75h0M99.75,11.75h0M99.75,11.75h0M98.65,11.45l.1.1.1.1.1.1h.1M99.05,11.55h-.1v-.1h-.1M99.75,11.55h-.7M99.05,11.75h.7M99.75,11.75l.1-.1h.1l.1-.1v-.1M99.85,11.45h0v.1h-.1M218.95,12.65v-.4M218.95,12.75h0v-.1M206.15,11.75v.1M224.15,11.85v-.1M227.45,12.25v-.4M202.85,11.85v.4M97.35,12.25v.4M97.35,12.65v.2h-.1l-.1.1h-.1M92.15,11.75v.1M110.25,11.85v-.1M113.55,12.25v-.4M113.55,7.55v-.1l-.1-.1v-.1h-.1v-.1h-.1M99.85,2.05l-.1.1M102.65,2.15l-.1-.1M99.75,2.85h0M99.75,2.15v.7M102.65,2.95v-.8M102.75,4.75h0l-.1-.1M99.75,4.65h-.1v.1M103.35,8.05v-.8M99.05,7.25v.8M95.45,6.45h-.1M95.35,6.45v.2M96.75,4.75h-.1M105.75,4.75h-.1M96.65,4.75v1.7M105.75,6.45v-1.7M113.55,11.45v-3.9M88.85,8.05v3.4M213.75,2.15v.7M216.55,2.85v-.7M216.55,2.95h0M213.75,2.05v.1M216.55,2.15l-.1-.1M209.25,6.45v.1M209.35,6.45h-.1M217.25,8.05v-.7M212.95,7.95v.1M227.05,7.15l-.9-.1M221.65,6.45h-.7M210.65,4.75h0M210.65,4.75v1.7M219.65,6.45v-1.1M227.45,11.45v-3.4M202.85,8.05v3.4M101.35,4.75l2.5-.1,2.3.1,2-.1h1.4l1.3-.1h2.3l.9.2.7.3.6.3.5.3.5.2.4.2.3.2.4.2.5.3.7.4.5.2.4.1.5.2.8.2.9.2.9.1.7.1h.7l.5.1M102.65,2.95h0M201.35.75l-.3-.1-.3-.1h-.2l-.2-.1h-1l-.8.1-.8.1-.7.1h-4.4l-1.7.1-5.3.2-3.3.1-3.3.1h-6.8l-3.3-.1h-10.9l-3.7.1h-3.5l-3.2-.1h-2.9l-2.8-.1h-6.2l-1.9.1h-2.1l-2.1.1h-1.9l-1.9.1h-2.1l-2.1.2-2.4.3-2.5.1-1.7.3-1.9.3-2.1.2-2.3.1-2.5.1-2.5-.1h-.2M78.15,8.45l1.5-.2,1.4-.2,1.2-.3.9-.3.4-.2.3-.1.5-.3.5-.3.4-.2.2-.1.2-.1.3-.2.3-.2.5-.2.6-.3.7-.3.8-.3.9-.1h1.2l1.3.1h1.5l1.5.1h1.5M101.35,2.85h-8.1l-2.4-.2-2.2-.3-1.9-.3-2.1-.2-2.1-.1-2-.3-1.8-.1-2-.1h-2l-2-.1h-1.9l-1.9-.1h-1.9l-4-.1-4,.1-4,.1h-8.1l-3.7-.1h-7.4l-3.9.1h-8.7l-3.5-.1-3.3-.1-3.2-.1-2.9-.1h-3.5l-1.3-.1h-.7l-.7-.1-.9-.1h-.4l-.3-.1-.3.1h-.3l-.2.1-.4.1-.3.1M228.85,3.55l1-.1.8-.1.6-.1.5-.1h.3l1.9-.3.8-.1.8-.1.2-.1h.3l.2-.1h.3l.3-.1h.4-.2.2l.3-.1h.5l.4-.1.5-.1.7-.1.9-.1,1-.1M210.95,8.45l.9-.2.8-.2.7-.2.6-.2.5-.2.4-.1.4-.2.4-.1.3-.2.4-.1.4-.2,1.2-.5,1-.4.7-.3.2-.1.2-.1.2-.1.3-.1.2-.1M238.85,1.15h-.3l-.3.1h-1.7l-.6-.1h-3.9l-.2.1h-.8l-.4-.1h-.8l-.6-.1h-1.9l-.5.1h-.7l-.3.1h-1.1l-.6.1h-.6l-.6.1h-.4l-.3.1-.3.1-.4.1-.4.1-.5.2-.5.1-.3.2-.4.2-.1.1h-.1l-.1.1h-.3l-.3-.1h-.9l-.1.1h-.2l-.2.1h-.8l-.7.1h-2.1M239.35,1.05l-.1.1h-.3l-.3.1h-.1M243.65.55h-.1l-.3-.1h-.9l-.3.1-.7.1-.8.1-.6.1-.2.1-.2.1h-.2l-.2.1-.2.1h-.1l-.1.1M244.25.95h0M213.35,2.95h-.9M217.45,3.75h-.1l-.1.1-.2.1-.4.2-.6.3-.7.4-1,.5-1.3.8-1.5,1.1M208.65,4.45h.1l.8.4,1.1.4M205.75,3.15h.2l.1.1.3.1.2.1.3.1.2.1.2.1.2.1.2.1.1.1h.1l.1.1h.2M207.55,3.65h0v.1l.1.1.1.1.4.2.2.1.2.1.2.1.3.1h.3l.4.1h1.6M194.05,2.55h.1l.6.1.5.1,1,.1,1,.2h.3l.4.1.5.1.7.1.8.1,1.1.2M190.25.85h-.1l-.6-.1-.5-.1-.3-.1h-.3l-.1-.1h-1.4l-.4.1-.5.3M190.15.85h-1.2M213.05,2.85h-.2l-.4-.1-.3-.1-.3-.1h-1.1l-.3-.1-.3-.2-.4-.2-.4-.2h-.3l-.4-.2-.5-.1-.4-.1-.5-.1-.7-.1h-1.3l-.4-.1h-.8l-.2-.1h-.6l-.3-.1h-1.3M213.75,2.85h-.6M259.15,51.35l.4-2.9M250.95,116.85l7.7-61.4M250.05,55.75l-7.5,60M192.25,116.75l20.8-61M205.35,52.15l-21.2,61.8M246.65,134.95h.3l.3.1h.8M240.45,134.15l.2.1h.4l.3.1h.5M248.65,134.95h.2l.2-.1h.1M248.05,135.05h.6l.2-.1M239.35,132.55v.5l.2.4.1.2.2.2.2.2.2.1h.2M239.65,131.15l-.3,1.4M249.15,134.85l.2-.2.2-.2.2-.3.1-.3v-.1M250.95,116.85h0l-.1.1-.2.1-.3.1-.4.1-.5.1h-.5l-.5.1-.6-.1h-.6l-.7-.1-.6-.1-.6-.1-.6-.1-.5-.2-.5-.2-.4-.1-.3-.2-.3-.2-.1-.1-.1-.1v-.1M249.85,133.75l1.9-15.3M252.35,117.85l.1-1.4M241.25,115.05l-.2,1.4M174.25,134.55h-.3l-.3-.1-.3-.2-.2-.2-.2-.2-.1-.3-.1-.3v-.3M187.55,133.55l5-14.7M187.55,133.55l-.1.2-.1.2-.2.2-.1.1-.2.1-.2.1-.2.1h-.3M192.95,118.95l.5-1.3M182.75,113.95l-.5,1.3M182.65,115.45l-4.7,6.7-4.5,6.5M173.45,128.65l-.2.2-.1.3v.2M173.15,129.35l-.2,1.8-.2,1.8M117.35,55.75h0M117.35,55.55v-.1M117.35,55.25v-.1M115.95,55.35h0M115.95,55.65h0M117.25,55.95l.2-.1M115.95,55.95h.1M115.75,55.75l.1.1.1.1M117.35,55.75h.1v-.1M117.35,55.15h.1v-.1M117.35,55.45h.1v-.1M115.75,55.25h.1l.1.1M115.75,55.55h.1l.1.1M115.75,33.45v.5M115.75,55.15v.1M115.75,55.45v.1M115.75,55.75v.1M117.45,55.65h0M117.45,55.35h0M117.45,33.95v-.5M117.45,55.85h0l-.1-.1M117.45,55.35v-.1h-.1M117.45,55.65v-.1h-.1M115.95,55.05l-.1.1h-.1M115.95,55.35l-.1.1h-.1M115.95,55.65l-.1.1h-.1M115.35,11.75l-.1.1M118.05,11.85l-.1-.1M115.25,11.85v1.5M118.05,13.35v-1.5M117.95,13.45l.1-.1M113.05,55.75v-.1M113.05,55.45h0M113.05,55.15h0M111.75,55.25h0M111.75,55.55h0M111.75,55.85h0M112.95,55.95l.3-.1M111.65,55.95h.1M111.55,55.15h0M111.55,55.45h0M111.55,55.65v.1M113.25,55.55h0M113.25,55.25h0M111.55,55.75h.1l.1.1M113.05,55.15v-.1M113.05,55.35h.1l.1-.1M113.05,55.65h.1l.1-.1M111.55,55.15l.1.1h.1M111.55,55.45h.1l.1.1M111.75,55.85h-.1M113.25,55.85l-.1-.1h-.1M113.25,55.25h-.1l-.1-.1M113.25,55.55l-.1-.1h-.1M111.55,55.05v.1M111.75,55.25l-.1.1h-.1M111.75,55.55l-.1.1h-.1M111.05,11.75l-.1.1M113.75,11.85v-.1M113.75,13.35v-1.5M113.75,13.45v-.1M110.95,13.45h.1M90.65,55.85h0M90.65,55.55h0M90.65,55.25h0M89.35,55.15h0M89.35,55.45h0M89.35,55.65v.1M90.65,55.95h.1M89.15,55.85l.3.1M89.15,33.45v.5M89.15,55.25h0M89.15,55.55h0M90.85,55.75v-.1M90.85,55.45h0M90.85,55.15h0M90.85,33.95v-.5M90.65,55.85l.1-.1h.1M90.65,55.25h.1l.1-.1M90.65,55.55l.1-.1h.1M89.35,55.05v.1M89.15,55.25l.1.1h.1M89.15,55.55l.1.1h.1M89.35,55.75h-.1l-.1.1M90.75,55.85h-.1M90.85,55.15v-.1M90.85,55.35h-.1l-.1-.1M90.85,55.65h-.1l-.1-.1M89.35,55.15l-.1.1h-.1M89.35,55.45h-.1l-.1.1M88.65,11.75v.1M91.45,11.85l-.1-.1M88.65,11.85v1.5M91.45,13.35v-1.5M91.35,13.45l.1-.1M88.65,13.35v.1M226.55,55.65h0M226.55,55.35h0M226.55,55.05h0M225.15,55.15v.1M225.15,55.45v.1M225.15,55.75h0M226.45,55.95h.1M225.05,55.85l.2.1M225.15,55.75l-.1.1M226.65,55.15h0l-.1-.1M226.65,55.45h0l-.1-.1M226.65,55.75h0l-.1-.1M225.15,55.25h-.1l-.1.1M225.15,55.55h-.1l-.1.1M224.95,55.65l.1.1h.1M226.55,55.95v-.1h.1M226.55,55.35v-.1h.1M226.55,55.65v-.1h.1M224.95,55.05l.1.1.1.1M224.95,55.35l.1.1h.1M224.95,55.05h0M224.95,55.35h0M224.95,55.65h0M226.65,55.55v-.1M226.65,55.25v-.1M224.45,11.85v1.5M227.25,13.35v-1.5M224.55,11.75l-.1.1M227.25,11.85l-.1-.1M227.15,13.45l.1-.1M224.45,13.35l.1.1M86.45,55.85h0M86.45,55.55h0M86.45,55.25h0M85.05,55.15h0M85.05,55.45h0M85.05,55.65v.1M86.35,55.95h.1M84.95,55.85l.2.1M86.45,55.85v-.1h.1M86.45,55.25h0l.1-.1M86.45,55.55v-.1h.1M85.05,55.05v.1M84.95,55.25l.1.1M84.95,55.55l.1.1M84.85,55.25h0M84.85,55.55h0M86.55,55.75v-.1M86.55,55.45h0M86.55,55.15h0M84.95,55.85h-.1M85.05,55.75h-.1v.1M86.45,55.85h0M86.55,55.15v-.1M86.55,55.45l-.1-.1v-.1M86.55,55.65h-.1v-.1M85.05,55.15l-.1.1h-.1M85.05,55.45h-.1l-.1.1M84.45,11.75l-.1.1M87.15,11.85l-.1-.1M84.35,11.85v1.5M87.15,13.35v-1.5M87.05,13.45l.1-.1M84.35,13.35l.1.1M216.75,55.85v-.1M216.75,55.95l.1-.1M215.45,55.95h.1M215.25,55.85h.1l.1.1M216.85,55.85h-.1M213.45,55.85h0M214.75,55.95l.2-.1M213.45,55.95h.1M213.35,55.75l.1.1M213.45,55.85h0M214.95,55.85v-.1M212.75,11.85v1.5M215.55,13.35v-1.5M212.75,11.75v.1M215.55,11.85l-.1-.1M215.45,13.45l.1-.1M212.75,13.35v.1M203.75,55.95h.1M203.55,55.85h.1l.1.1M203.05,11.75l-.1.1M205.85,11.85l-.1-.1M202.95,12.25v1.1M205.85,12.65v-.4M205.75,13.45l.1-.1M202.95,13.35l.1.1M223.85,53.75h.1v.1h.2v.1h.3M227.35,53.95h.1l.1-.1h.2v-.1h.1M223.85,53.35v.4M227.85,53.75v-.4M110.85,55.05h.1M113.75,55.05h.1M110.35,53.35v.4M114.35,53.75v-.4M110.35,53.75h.1l.1.1h.1l.1.1h.1M113.95,53.95h.1v-.1h.2v-.1h.1M88.45,55.05h.2M91.45,55.05h.1M88.05,53.35v.4M92.05,53.75v-.4M88.05,53.75h.1v.1h.1l.1.1h.1M91.65,53.95h0l.1-.1h.1l.1-.1h.1M84.25,55.05h.1M87.15,55.05h.1M83.75,53.35v.4M87.75,53.75v-.4M83.75,53.75h.1l.1.1h.1v.1h.2M87.35,53.95h0l.1-.1h.1l.1-.1h.1M115.15,55.05h.1M118.05,55.05h.1M114.65,53.35v.4M118.65,53.75v-.4M114.65,53.75h.1l.1.1h.1v.1h.2M118.25,53.95h.1v-.1h.1l.1-.1h.1M87.45,13.95v-.5M84.05,13.45v.5M215.85,13.95v-.5M212.45,13.45v.5M118.35,13.95v-.5M114.95,13.45v.5M114.05,13.95v-.5M110.65,13.55v.4M206.15,13.95v-.4M202.75,13.45v.5M227.55,13.95v-.5M224.15,13.45v.5M91.75,13.95v-.5M88.35,13.45v.5M242.15,29.25h.3M242.45,27.55h-.3M236.05,27.55h-.3M252.75,26.55h-.3M222.05,28.25h.3M222.35,26.55h-.3M255.35,28.25h.3M255.65,26.55h-.3M249.45,28.25h.3M249.75,26.55h-.3M236.65,27.85h1.3M239.15,24.95h-2.5M233.85,27.85h0M232.55,27.85h0M235.05,24.95h-2.5M235.05,27.85h0M236.45,24.95h-1.4M239.15,27.85h.4M239.55,24.95h-.4M241.75,24.95h-.4M253.95,28.95h-.4M253.45,27.95h-.2M250.45,27.95h-.1M251.25,28.95h-.2M248.65,29.15v.4M255.15,29.55v-.4M235.35,28.95h-.4M234.85,27.95h-.2M231.85,27.95h-.1M232.65,28.95h-.2M230.05,29.15v.4M236.55,29.55v-.4M264.45,39.25l.1-.1M262.15,39.15l.1.1M264.55,39.15v-1.2M262.15,37.95v1.2M262.25,37.85l-.1.1M264.55,37.95l-.1-.1M232.75,26.75v.1M232.75,27.05h0M232.75,27.25h0M232.75,27.45h0M232.75,27.65v.1M233.85,27.85h0M233.85,27.65v-.1M233.85,27.35h0M233.85,27.15h0M233.85,26.95h0M233.85,26.75v-.1M233.95,26.75h-.1M232.75,26.55l-.1.1h-.1M232.75,27.75h-.1l-.1.1M232.75,27.45l-.1.1h-.1M232.75,27.25l-.1.1h-.1M232.75,27.05h-.1l-.1.1M232.75,26.85h-.1l-.1.1M233.95,27.95v-.1h-.1M233.95,27.95h0M233.95,27.65h-.1M233.95,27.45h0l-.1-.1M233.95,27.25v-.1h-.1M233.95,27.05v-.1h-.1M233.85,26.65h.1M232.55,27.85h.1v.1M232.55,27.65h.1l.1.1M232.55,27.35l.1.1h.1M232.55,27.15l.1.1h.1M232.55,26.95h.1l.1.1M232.55,26.75h.2M233.85,27.85l.1-.1M233.85,27.55h.1M233.85,27.35h.1v-.1M233.85,27.15l.1-.1M233.85,26.95l.1-.1M234.05,27.75v-.1M234.05,27.45h0M234.05,27.25h0M234.05,27.05h0M234.05,26.85v-.1M232.55,26.95h0M232.55,27.15h0M232.55,27.35h0M232.55,27.55v.1M232.55,27.85h0M232.85,26.55h-.1M233.95,26.65l-.2-.1M234.45,39.25v-.1M232.05,39.15l.1.1M232.15,37.85l-.1.1M234.45,37.95v-.1M234.45,39.15v-1.2M232.05,37.95v1.2M251.35,26.75h0M251.35,26.95v.1M251.35,27.25h0M251.35,27.45h0M251.35,27.65h0M251.35,27.85v.1M252.45,27.85v-.1M252.45,27.55h0M252.45,27.35h0M252.45,27.15v-.1M252.45,26.85h0M252.45,26.65h0M251.45,26.55l-.3.1M252.55,26.65l-.2-.1M252.55,27.95v-.1M252.55,27.65h0M252.55,27.45h0M252.55,27.25h0M252.55,27.05v-.1M252.55,26.75h0M251.15,26.85h0M251.15,27.05v.1M251.15,27.35h0M251.15,27.55h0M251.15,27.75v.1M252.55,26.75h0l-.1-.1M251.35,27.65l-.1.1h-.1M251.35,27.45l-.1.1h-.1M251.35,27.25h-.1l-.1.1M251.35,27.05h-.2M251.35,26.75l-.1.1h-.1M252.55,27.85h-.1M252.55,27.65h0l-.1-.1M252.55,27.45v-.1h-.1M252.55,27.25v-.1h-.1M252.55,26.95h0l-.1-.1M252.45,26.65h.1M251.25,27.85h.1v.1M251.25,27.55l.1.1M251.25,27.35l.1.1M251.25,27.15h.1v.1M251.25,26.95h.1M251.25,26.65l.1.1M252.45,27.75h.1v-.1M252.45,27.55h.1v-.1M252.45,27.35l.1-.1M252.45,27.15l.1-.1M252.45,26.85h.1v-.1M253.05,39.25v-.1M250.65,39.15l.1.1M253.05,39.15v-1.2M250.65,37.95v1.2M250.75,37.85l-.1.1M253.05,37.95v-.1M271.25,39.25l.1-.1M268.95,39.15l.1.1M269.05,37.85l-.1.1M271.35,37.95l-.1-.1M271.35,39.15v-1.2M268.95,37.95v1.2"/>
</svg>