<?xml version="1.0" encoding="UTF-8"?>
<svg id="Layer_1" data-name="Layer 1" xmlns="http://www.w3.org/2000/svg" version="1.1" viewBox="0 0 640 218.04">
  <defs>
    <style>
      .cls-1 {
        fill: none;
        stroke: #fff;
        stroke-linecap: round;
        stroke-linejoin: round;
        stroke-width: .1px;
      }
    </style>
  </defs>
  <g id="DJ0bNC.tif">
    <g>
      <path class="cls-1" d="M292.09,131.34c-.29-.02-.6-.13-.86-.06-2.07.59-4.14,1.19-6.21,1.82-5.5,1.67-11,3.34-16.5,5.02-3.29,1.01-6.59,1.98-9.86,3.05-8.58,2.83-17.15,5.68-25.71,8.57-3.65,1.23-7.28,2.55-10.9,3.87-4.59,1.66-9.16,3.35-13.74,5.05-5.64,2.1-11.27,4.22-16.89,6.34-3.19,1.2-6.36,2.43-9.54,3.66-1.91.74-3.8,1.5-5.7,2.26"/>
      <path class="cls-1" d="M299.7,127.97c-.38,1.15-1.56,1.07-2.38,1.47-1.56.75-3.38,1.05-4.82,1.96-1.81,1.14-3.87,1.66-5.68,2.75-.84.5-1.8.79-2.71,1.17-2,.83-4.01,1.61-5.99,2.48-2.61,1.15-5.19,2.37-7.79,3.53-1.14.51-2.33.91-3.47,1.41-1.95.86-3.87,1.77-5.82,2.64-.93.42-1.89.79-2.83,1.19-2,.83-4.01,1.61-5.99,2.48-2.61,1.15-5.19,2.37-7.79,3.53-1.14.51-2.33.91-3.47,1.41-1.95.86-3.82,1.92-5.83,2.6-2.43.83-4.6,2.4-7.3,2.5-.86.03-1.71.34-2.55.59-2.68.79-5.37,1.59-8.03,2.44-7.68,2.42-15.37,4.81-23.02,7.33-4.2,1.38-8.33,2.98-12.49,4.5-1.35.49-2.68,1.05-4.02,1.57"/>
      <path class="cls-1" d="M39.38,106.14c.31-.14.61-.32.93-.43,4.95-1.66,9.9-3.3,14.85-4.95l2.54-.85c1.4,1.23,2.64,2.38,3.95,3.46,4.91,4.03,9.85,8.02,14.76,12.05,6.23,5.12,12.44,10.25,18.64,15.4,7.35,6.1,14.67,12.23,22.01,18.34,1.35,1.12,2.67,2.28,4.1,3.27.9.62,1.09,1.24.7,2.18-.22.52-.39,1.05-.56,1.5-.54.13-.95.2-1.35.33-7.99,2.69-15.97,5.39-23.96,8.1-.32.11-.61.32-.92.48"/>
      <path class="cls-1" d="M363.77,59.1c.61-.44,1.18-.97,1.84-1.31,3.56-1.86,7.13-3.7,10.72-5.48,1.94-.96,3.95-1.79,5.91-2.7,2.24-1.05,4.45-2.16,6.71-3.17,2.01-.9,4.06-1.67,6.09-2.52,2.66-1.11,5.29-2.28,7.97-3.35,1.51-.6,3.08-1.04,4.62-1.56,2.34,2.63,4.6,5.19,6.88,7.74,2.07,2.3,4.18,4.57,6.22,6.9.55.63,1.01,1.4,1.32,2.18.48,1.2-.1,2.58-1.35,3.05-2.72,1.02-5.48,1.98-8.24,2.88-3.27,1.06-6.57,2.03-9.86,3.06-4.33,1.35-8.65,2.73-12.98,4.08-1.84.57-3.69,1.13-5.56,1.61-2.17.55-4.24.24-6.09-1.07-3.84-2.73-7.65-5.49-11.48-8.23-.96-.69-1.93-1.38-3.17-2.26-.74.51-1.67,1.15-2.6,1.8"/>
      <path class="cls-1" d="M58.12,99.95c.81-.33,1.61-.66,2.42-.98.25-.1.5-.17.75-.25,6.48-2.2,12.96-4.4,19.44-6.59,2.83-.96,5.67-1.87,8.5-2.84,1-.34,1.87-.39,2.93.06,1.73.74,3.61,1.15,5.43,1.7,5.09,1.53,10.18,3.06,15.27,4.58,8.27,2.47,16.54,4.93,24.81,7.38,6.93,2.05,13.87,4.03,20.79,6.1,6.36,1.9,12.69,3.9,19.04,5.82,6.45,1.95,13.08,2.96,19.76,3.66,6.26.66,12.56.95,18.86.64,5.13-.25,10.27-.67,15.38-1.19,3.04-.31,6.04-1.17,9.08-1.37,2.38-.16,4.54-1.08,6.84-1.44.6-.09,1.21-.63,1.64-1.12,1.36-1.55,3.08-2.45,5.05-2.81.94-.17,1.42.74,1.82,1.5"/>
      <path class="cls-1" d="M310.42,128.22c-1.08-.9-2.18-.13-3.22.04-1.83.3-3.64.76-5.41,1.31-1.7.52-3.35,1.2-4.99,1.89-2.69,1.13-5.36,2.33-8.04,3.5-2.61,1.14-5.21,2.29-7.82,3.44-3.34,1.47-6.68,2.93-10,4.41-1.91.85-3.79,1.77-5.71,2.61-2.57,1.13-5.16,2.2-7.74,3.31-1.92.82-3.83,1.67-5.74,2.51-2.57,1.13-5.14,2.27-7.71,3.4-1.95.85-3.9,1.69-5.84,2.55-2.54,1.12-5.07,2.25-7.61,3.36-1.74.76-3.5,1.47-5.23,2.24-.25.11-.41.44-.62.67"/>
      <path class="cls-1" d="M521.57,77.82c-.31.04-.62.08-1.03.13l-1.05-3.14c-1.07.36-2.06.65-3.01,1.01-2.97,1.13-5.94,2.27-8.9,3.44-5.14,2.02-10.27,4.08-15.43,6.08-2.43.95-4.89,1.82-7.35,2.69-7.3,2.6-14.61,5.18-21.91,7.79-3.45,1.24-6.88,2.54-10.33,3.79-4.91,1.77-9.83,3.5-14.74,5.28-1.49.54-2.95,1.18-4.68,1.87.13.69.26,1.49.45,2.28.43,1.73-.12,2.99-1.77,3.68-3.18,1.33-6.42,2.46-9.93,2.49-1.14,0-2.24-.07-3.23-.72"/>
      <path class="cls-1" d="M407.78,39.06c.91-.46,1.82-.92,2.65-1.34,2.98,3.34,5.78,6.5,8.61,9.65,1.86,2.06,3.72,4.11,5.63,6.12,2.36,2.49,5.25,2.95,8.46,2.08,3.77-1.01,7.54-2.01,11.3-3.05,3.25-.9,6.48-1.84,9.72-2.75,1.57-.44,3.13-.89,4.7-1.33,2.62-.73,3.81-2.61,4-5.16.33-4.46.55-8.93.81-13.4.04-.69.1-1.39.14-2.08"/>
      <path class="cls-1" d="M25.87,100.01l10.06-3.35,3.11,9.35c4.63,4.96,9.41,10.1,14.21,15.21,4.59,4.89,9.22,9.74,13.83,14.62,6.6,6.99,13.19,14,19.79,20.99,2.44,2.58,4.86,5.17,7.37,7.68.62.62,1.23,1.21,1.7,1.96"/>
      <path class="cls-1" d="M60.29,99.29c1.29,1.12,2.56,2.28,3.88,3.36,6.79,5.59,13.6,11.15,20.39,16.74,9.06,7.45,18.11,14.91,27.17,22.35,4.8,3.94,9.63,7.86,14.44,11.79.75.61,1.46,1.26,2.19,1.9"/>
      <path class="cls-1" d="M189.51,132.67c-20.62,6.87-41.24,13.74-61.86,20.61-.36.12-.69.31-1.04.46"/>
      <path class="cls-1" d="M505.47,80.08l-.93-2.79c-1.94.65-3.78,1.21-5.59,1.87-2.27.83-4.52,1.75-6.78,2.6-2.12.8-4.25,1.59-6.38,2.37-2.7.99-5.4,1.97-8.1,2.94-6.19,2.23-12.39,4.44-18.58,6.67-2.85,1.02-5.69,2.05-8.54,3.08-2.88,1.04-5.76,2.07-8.64,3.12-2.35.85-4.69,1.72-7.03,2.58-.92.34-1.84.69-2.76,1.04"/>
      <path class="cls-1" d="M468.49,28.27c.06,4,.12,8,.17,12,.01.99-.03,1.99.05,2.97.12,1.69.97,2.38,2.6,2.09,4.84-.86,9.66-1.84,14.49-2.77,3.03-.58,6.07-1.15,9.11-1.72,2.55-.48,5.09-1,7.64-1.46,2.52-.46,5.05-.88,7.56-1.34.71-.13,1.4-.33,2.39-.57.11-.59.25-1.34.42-2.22-3.19-.5-6.28-.96-9.37-1.46-8.73-1.42-17.45-2.86-26.17-4.29-3.2-.53-6.39-1.16-9.61-1.55-3.36-.4-6.73-.83-10.14-.74-3.51.09-7.01.26-10.47.89-3.83.7-7.68,1.29-11.47,2.19-4.01.95-7.96,2.17-11.91,3.34-3.95,1.18-7.87,2.44-11.8,3.69-.4.13-.76.36-1.13.55"/>
      <path class="cls-1" d="M244.4,173.32c1.74-.64,3.47-1.31,5.22-1.9,1.04-.35,2.13-.56,3.19-.84,2.19-.59,4.4-1.14,6.58-1.78,1.99-.59,3.96-1.28,5.94-1.9,5.2-1.62,10.4-3.23,15.6-4.84,1.59-.49,3.18-.97,4.77-1.47,4.97-1.57,9.95-3.15,14.92-4.73,4.87-1.54,9.73-3.08,14.6-4.62,5.66-1.8,11.31-3.6,16.96-5.41,1.33-.43,2.65-.89,3.98-1.32,9.99-3.25,20-6.47,29.98-9.76,4.95-1.64,9.87-3.38,14.77-5.16,3.38-1.23,6.69-2.63,10.05-3.92,3.04-1.16,6.12-2.21,9.14-3.43,3.31-1.33,6.55-2.81,9.84-4.21,2.72-1.16,5.46-2.28,8.17-3.45,1.15-.5,2.27-1.07,3.41-1.6,1.83-.85,3.66-1.69,5.48-2.55.29-.14.55-.34.89-.56-2.79-8.37-5.55-16.66-8.42-25.26-.34-.37-.97-.16-1.68-.02-3.79.72-7.6,1.33-11.4,2.04-1.9.36-3.78.84-5.67,1.28-2.44.57-4.88,1.14-7.31,1.72-1.18.28-2.35.59-3.51.93-2.54.75-5.07,1.52-7.6,2.29-2.64.8-5.31,1.53-7.92,2.42-4.58,1.55-9.14,3.19-13.71,4.78-.86.3-1.74.51-2.62.76"/>
      <path class="cls-1" d="M488.15,73.31c-2.41.88-4.83,1.77-7.24,2.65-4.87,1.78-9.73,3.55-14.6,5.34-1.74.64-3.46,1.34-5.2,1.96-3.7,1.33-7.41,2.63-11.11,3.95-2.67.95-5.34,1.93-8,2.9-1.92.7-3.82,1.44-5.74,2.15-2.3.85-4.61,1.7-6.92,2.55"/>
      <path class="cls-1" d="M532.35,35.18c2.62-.04,5.24-.04,7.85-.12,2.99-.09,5.98-.23,8.96-.35"/>
      <path class="cls-1" d="M557.99,34.64c.85.04,1.7.09,2.55.1,7.8.11,15.61.19,23.41.33,5.51.1,11.02.29,16.53.46,1.59.05,3.18.21,4.77.31"/>
      <path class="cls-1" d="M359.74,90.77c-.11.16-.18.41-.33.45-5.24,1.72-10.49,3.44-15.74,5.14-8.2,2.66-16.4,5.31-24.6,7.96-7.16,2.31-14.32,4.61-21.48,6.92-3.35,1.08-6.71,2.12-10.04,3.23-9.5,3.18-18.99,6.38-28.48,9.6-8.88,3.01-17.74,6.06-26.61,9.1"/>
      <path class="cls-1" d="M150.29,186.1c.84-1.36,2.39-1.43,3.67-1.9,5.65-2.08,11.49-3.57,17.31-5.1,2.3-.6,4.56-1.38,6.86-2.02,2.85-.79,5.72-1.5,8.57-2.27,2.48-.68,4.95-1.39,7.42-2.11,5.16-1.51,10.3-3.07,15.46-4.54,3.53-1.01,7.1-1.9,10.65-2.85.11-.03.19-.14.29-.21"/>
      <path class="cls-1" d="M225.01,163.89c1.61-.28,3.21-.61,4.68-1.38"/>
      <path class="cls-1" d="M234.66,160.56c.45-.21.9-.42,1.34-.63"/>
      <path class="cls-1" d="M237.81,159.27l.91-.48"/>
      <path class="cls-1" d="M276.58,143.61c.58-.29,1.16-.59,1.74-.88"/>
      <path class="cls-1" d="M91.49,88.9c.78-.6,1.57-1.21,2.38-1.83-.77-2.32-1.41-4.42-2.18-6.47-.58-1.55-.98-2.13-3.2-1.41-4.53,1.45-9.02,3.06-13.53,4.6-.66.23-1.27.33-2.02.1-5.29-1.63-10.58-3.28-15.92-4.73-5.06-1.37-9.84-.25-14.21,2.48-2.16,1.35-4.19,2.96-6.1,4.65-2.84,2.52-5.53,5.23-8.27,7.86-.17.16-.27.4-.45.67.53.69,1.07,1.4,1.61,2.1"/>
      <path class="cls-1" d="M465.97,49.41c.98-.17,1.97-.3,2.94-.51,1.15-.26,2.27-.62,3.41-.88,2.11-.49,4.23-.93,6.35-1.41.96-.22,1.91-.47,2.87-.71,2.06-.52,4.11-1.07,6.17-1.57,2.43-.59,4.88-1.15,7.31-1.72,2.4-.56,4.81-1.12,7.21-1.69,2.48-.58,4.94-1.2,7.43-1.74,1.42-.31,2.87-.49,4.3-.73"/>
      <path class="cls-1" d="M323.98,122.27c-.97-.48-1.89.06-2.79.24-2.86.59-5.7,1.31-8.54,1.98-2.1.5-4.22.97-6.31,1.51-2.16.56-4.3,1.21-6.46,1.78-3.77,1-7.57,1.91-11.33,2.96-5.39,1.5-10.77,3.08-16.14,4.65-3.01.88-6.02,1.79-9,2.76-13.41,4.37-26.82,8.71-40.2,13.17-6.02,2.01-11.97,4.26-17.94,6.43-4.3,1.56-8.59,3.16-12.88,4.77-5.24,1.97-10.49,3.92-15.7,5.96-4.97,1.95-9.91,3.99-14.85,6.02-.81.33-1.58.76-2.37,1.14"/>
      <path class="cls-1" d="M150.33,179.04c-1.94.76-3.87,1.53-5.81,2.29-.07.03-.17-.02-.25-.03"/>
      <path class="cls-1" d="M466.77,28.13c-.24,5.02-.48,10.03-.72,15.05-.13,2.8-.27,5.59-.4,8.25-1.72.57-3.35,1.2-5.03,1.66-2.92.8-5.88,1.48-8.82,2.24-3.48.9-6.96,1.83-10.44,2.76-1.46.39-2.92.79-4.37,1.22-3.95,1.18-7.89,2.4-11.84,3.57-4.72,1.4-9.45,2.73-14.16,4.13-3.23.96-6.44,1.97-9.65,2.97-4.58,1.43-9.16,2.87-13.73,4.35-1.44.47-2.83,1.07-4.23,1.64-.68.28-1.25.26-1.88-.21-2.87-2.13-5.76-4.24-8.67-6.31-3.83-2.72-7.69-5.4-11.53-8.11-.25-.17-.45-.41-.77-.72-.99.5-2.04.95-3.03,1.52-5.38,3.12-10.74,6.27-16.11,9.42-6.9,4.05-13.79,8.11-20.7,12.14-2.06,1.2-4.18,2.27-6.27,3.42-4.08,2.23-8.14,4.49-12.24,6.69-2.49,1.34-5.03,2.58-7.56,3.84-2.46,1.23-4.9,2.49-7.39,3.64-2.51,1.16-5.08,2.2-7.63,3.27-3.04,1.27-6.09,2.51-9.14,3.76-.28.11-.57.19-.86.29-3.69,1.23-7.37,2.52-11.09,3.67-2.85.89-5.75,1.63-8.64,2.41-.22.06-.5-.06-.75-.09"/>
      <path class="cls-1" d="M606.5,35.67c-.81.02-1.32.6-1.96.96-2.06,1.14-4.23,2.11-6.36,3.12-3.2,1.52-6.41,3.01-9.61,4.52-2.62,1.23-5.24,2.46-7.85,3.69-2.79,1.32-5.56,2.69-8.36,3.97-2.45,1.12-4.95,2.12-7.41,3.21-.56.25-1.06.66-1.58.99"/>
      <path class="cls-1" d="M107.59,100.25c.17.14.31.35.51.42,8.25,2.79,16.51,5.6,24.77,8.35,13.16,4.39,26.34,8.75,39.51,13.11,5.1,1.69,10.21,3.37,15.31,5.05"/>
      <path class="cls-1" d="M349.98,110.62l-.98-2.93c-1.38.39-2.67.72-3.93,1.11-3.4,1.04-6.78,2.12-10.19,3.14-3.84,1.15-7.69,2.27-11.55,3.37-4.44,1.26-8.9,2.46-13.34,3.74-2.98.86-5.92,1.84-8.9,2.71-4.87,1.42-9.75,2.78-14.63,4.17-.07.02-.14.05-.22.07-3.57,1.11-7.15,2.22-10.72,3.33-7.47,2.33-14.96,4.61-22.41,7-10.98,3.53-21.94,7.1-32.89,10.72-4.27,1.41-8.49,2.97-12.74,4.47-3.56,1.26-7.13,2.51-10.69,3.8-3.77,1.38-7.52,2.78-11.26,4.23-5.37,2.08-10.71,4.21-16.07,6.3-2.54.99-5.1,1.92-7.64,2.91-1.52.59-3,1.26-4.52,1.85-3.35,1.3-6.72,2.54-10.07,3.84-4.69,1.82-9.37,3.69-14.06,5.51-2.68,1.04-5.33,2.2-8.08,3-2.33.68-3.79,2.21-5.04,3.89l-2.8.93"/>
      <path class="cls-1" d="M165.21,185.67c.8-.35,1.58-.78,2.41-1.02,2.04-.58,4.12-1.04,6.16-1.6,2.11-.58,4.2-1.26,6.32-1.85,3.72-1.03,7.46-2,11.19-3.02,1.79-.49,3.56-1.04,5.35-1.53,4.12-1.14,8.25-2.26,12.37-3.41,1.97-.55,3.92-1.16,5.88-1.71,3.64-1.03,7.26-2.19,10.95-2.98,1.89-.41,3.57-1.28,5.39-1.78,1.74-.49,3.44-1.19,5.09-1.92,1.61-.71,3.15-1.56,4.7-2.4.26-.14.39-.51.58-.77"/>
      <path class="cls-1" d="M379.86,74.75c-.26.17-.51.4-.79.49-4.5,1.44-9.01,2.86-13.52,4.27-3.75,1.18-7.51,2.34-11.26,3.51-.29.09-.57.19-.86.29-6.96,2.32-13.92,4.61-20.87,6.96-5.73,1.94-11.44,3.95-17.14,5.95-2.57.9-5.13,1.84-7.68,2.79-5.35,2.01-10.69,4.04-16.03,6.05-3.12,1.17-6.29,2.2-9.34,3.51-3.1,1.34-6.21,2.62-9.41,3.7-1.29.44-2.54,1-3.81,1.49-4.12,1.61-8.25,3.23-12.37,4.84-.07.03-.14.05-.21.07-3.35,1.19-6.7,2.38-10.04,3.59-4.41,1.58-8.82,3.19-13.24,4.76-1.39.49-2.83.84-4.23,1.31-1.51.5-2.99,1.07-4.49,1.6"/>
      <path class="cls-1" d="M120.86,158.41l2.15,6.45,1.18-.39c4.16-1.39,8.33-2.75,12.48-4.16,5.72-1.96,11.43-3.97,17.15-5.94,7.86-2.71,15.73-5.4,23.6-8.11,1.5-.52,2.99-1.07,4.48-1.61"/>
      <path class="cls-1" d="M319.85,133.2c.57,1.72,1.07,3.47,1.74,5.15.62,1.55.57,1.85-1.03,2.37-7.58,2.49-15.14,5.01-22.74,7.43-2.41.77-4.56,1.96-6.67,3.31-2.91,1.87-5.87,3.66-8.83,5.44-.4.24-.94.34-1.42.36-3.64.2-7.3.3-10.93.58-1.9.15-3.73.74-5.49,1.81l.68,2.04-3.23,1.08"/>
      <path class="cls-1" d="M106.19,174.28c-.48,1.09-1.66,1.24-2.53,1.76-2.61,1.55-5.32,2.92-7.97,4.39-.33.18-.56.54-.81.78.29,2.02,7.78,23.86,8.38,24.49,3-.36,5.99-.67,8.97-1.08,2.2-.3,4.37-.74,6.57-1.09,1.71-.27,3.42-.48,5.13-.76,3.73-.63,7.47-1.24,11.19-1.94,3.44-.65,6.87-1.37,10.29-2.11,4.31-.93,8.61-1.9,12.91-2.86,3.78-.85,7.57-1.68,11.33-2.59,3.72-.9,7.41-1.91,11.12-2.85,3.42-.87,6.84-1.7,10.25-2.59,3.08-.8,6.15-1.65,9.22-2.47,3.44-.92,6.88-1.83,10.43-2.78l.49,1.47c-1.51.39-2.9.75-4.4,1.14l-.42-1.27"/>
      <path class="cls-1" d="M355.36,112.05c-.38.05-.79.03-1.14.15-5.78,1.91-11.56,3.8-17.32,5.78-3.33,1.14-6.6,2.42-9.9,3.64-.07.03-.17-.02-.25-.03"/>
      <path class="cls-1" d="M319.8,124.79c-2.16.82-4.32,1.64-6.47,2.46"/>
      <path class="cls-1" d="M307.93,130.78c-3.05,1.36-6.09,2.76-9.17,4.05-2.65,1.12-5.36,2.1-8.03,3.17-2.64,1.06-5.26,2.15-7.9,3.21-.31.13-.68.12-1.02.17"/>
      <path class="cls-1" d="M352.48,118.5c.18.37.35.75.56,1.18-1.99.85-3.83,1.66-5.69,2.43-3.01,1.25-6.02,2.51-9.04,3.72-2.77,1.12-5.57,2.17-8.35,3.27-3.73,1.47-7.46,2.97-11.19,4.44-1.62.64-3.24,1.27-4.88,1.86-3.05,1.11-6.13,2.18-9.18,3.31-4.43,1.65-8.84,3.37-13.28,5-3.05,1.12-6.14,2.15-9.21,3.2-11.95,4.07-23.91,8.13-35.86,12.18-1.29.44-2.61.77-3.9,1.2-.32.11-.58.41-.87.63"/>
      <path class="cls-1" d="M316.03,94.82c-3.48,1.16-6.96,2.3-10.43,3.48-7.66,2.61-15.3,5.25-22.95,7.88-.29.1-.55.26-.83.39"/>
      <path class="cls-1" d="M428.24,74.64c-.1-.05-.21-.16-.28-.13-2.39.71-4.78,1.45-7.18,2.14-3.02.87-6.06,1.67-9.07,2.56-1.81.54-3.58,1.21-5.38,1.78-3.57,1.13-7.15,2.22-10.72,3.34-4.83,1.52-9.66,3.04-14.49,4.59-7.63,2.45-15.26,4.92-22.88,7.38-1.8.58-1.76.69-1.1,2.51,1.06,2.91,1.98,5.87,2.96,8.81"/>
      <path class="cls-1" d="M350.02,88.87c1.89.29,3.78.55,5.66.87,2.42.41,4.82.88,7.25,1.27,1.53.25,2.97-.35,4.44-.65,1.67-.33,3.25-.73,5.01-.18.8.25,1.89-.37,2.84-.64.43-.12.83-.38,1.26-.52,5.99-2,11.99-3.95,17.96-6.01,3.47-1.2,6.86-2.6,10.3-3.88.65-.24,1.36-.35,2.04-.51"/>
      <path class="cls-1" d="M64.64,89.01c-1.39.38-2.83.63-4.14,1.2-.71.31-1.09,1.28-.83,2.12.4,1.26.89,2.5,1.47,3.69.38.77,1.18.92,1.98.65,3.12-1.03,6.24-2.08,9.36-3.11.88-.29,1.24-.98,1.05-1.79-.27-1.17-.66-2.33-1.14-3.44-.68-1.58-1.08-1.8-2.59-1.38-.76.21-1.44.69-2.16,1.05"/>
      <path class="cls-1" d="M353.87,64.54c-.29,1.53-.43,3.1-.9,4.57-.49,1.54-.37,2.91.16,4.39,1.11,3.09,2.1,6.23,3.14,9.34l.34,1.02c-13.27,4.42-26.43,8.81-39.59,13.19l-.38-1.13"/>
      <path class="cls-1" d="M231.21,130.84c-.85.08-1.73.04-2.54.28-1.92.56-3.81,1.24-5.71,1.88-1.6.54-2.02,1.29-1.54,2.9.67,2.21,1.24,4.45,2.11,6.58.79,1.94,1.52,2.04,3.08,1.49,2.14-.75,4.31-1.41,6.44-2.18.54-.2.97-.69,1.44-1.05"/>
      <path class="cls-1" d="M367.25,134.12c-.48-1.16-.96-2.32-1.51-3.65-.9.16-1.7.2-2.43.44-5.96,1.96-11.91,3.95-17.86,5.94-1.58.53-2.02,1.4-1.51,3.01.2.61.4,1.22.61,1.83"/>
      <path class="cls-1" d="M179.79,138.3l-1.83.61c-8,2.66-16,5.3-23.99,8-8.06,2.72-16.09,5.53-24.14,8.27-5.05,1.72-10.12,3.36-15.16,5.07-2,.68-3.95,1.53-5.96,2.2-4.19,1.4-8.42,2.72-12.62,4.11-2.26.75-4.49,1.59-6.75,2.35-2.58.88-5.16,1.72-7.74,2.58l-.62.21,3.12,9.35,7.07-2.36,2.8-.93c3.62-1.21,7.24-2.42,10.87-3.61.4-.13.86-.06,1.29-.09"/>
      <path class="cls-1" d="M535.11,34.86c.05-2.81-1.11-3.86-4-3.58-.29,1.96,1.23,3.5,1.37,5.67-1.28-.35-2.51-.5-3.56-1.02-1.49-.74-2.99-.77-4.57-.73-2.82.08-5.64.07-8.46.09-1,0-2.01,0-3.05,0,.32-2.64.62-5.21.94-7.77.2-1.63.54-3.24.62-4.87.14-2.84,1.88-4.27,4.3-5.11,2-.7,4.05-1.25,6.05-1.92,1.9-.63,3.79-1.31,5.66-2.02.27-.1.46-.44.65-.62-.39-.91-.71-1.66-1.1-2.56l-4.42,1.47c-2.62.87-5.24,1.72-7.85,2.62-4.06,1.39-6.58,4.18-7.34,8.42-.68,3.77-1.24,7.57-1.85,11.36"/>
      <path class="cls-1" d="M413.6,94.2c-.25.2-.47.48-.76.6-1.33.55-2.67,1.08-4.01,1.59-2.3.86-4.62,1.68-6.92,2.55-2.83,1.08-5.65,2.19-8.47,3.29-1.3.51-2.61,1.02-3.91,1.55-.39.16-.74.4-1.11.6"/>
      <path class="cls-1" d="M527.72,35.65c.25,1.23.46,2.47.76,3.69.41,1.61.93,3.19,1.34,4.81.65,2.57,1.23,5.16,1.87,7.74.34,1.36.73,2.7,1.11,4.05.47,1.67.97,3.34,1.43,5.02.59,2.19,1.15,4.39,1.72,6.59"/>
      <path class="cls-1" d="M73.28,84.1c-.41.22-.79.49-1.22.64-6.27,2.1-12.55,4.19-18.82,6.28-5.16,1.72-10.33,3.44-15.49,5.16l-1.72.57"/>
      <path class="cls-1" d="M87.61,99.86c-.35-.08-.74-.32-1.03-.23-3.53,1.13-7.04,2.32-10.55,3.49-.04.01-.05.09-.17.33.04.17.11.51.18.81.26.05.41.14.52.1,3.47-1.18,6.93-2.39,10.41-3.57.43-.15.72-.34.68-.83"/>
      <path class="cls-1" d="M82.31,91.84c1.02.42,2.01.89,3.05,1.24,2.68.92,5.38,1.8,8.06,2.7,3.63,1.22,7.25,2.48,10.91,3.63,1.16.36,2.44.36,3.65.62,1.11.24,2.2.6,3.3.92,1.2.35,2.37.8,3.59,1.05,1.26.26,1.77.6,2.69-1.07.02-1.41-.68-2.14-1.97-2.51-3.11-.88-6.19-1.85-9.29-2.73-.96-.27-1.83.12-2.22.85-.48.88-.32,1.57.5,2.22.28.22.55.45.82.68"/>
      <path class="cls-1" d="M406.86,95.14c-.17-.02-.35-.1-.5-.06-2.56.68-5.12,1.39-7.68,2.07-2.16.57-4.33,1.11-6.49,1.69-2.6.69-5.19,1.4-7.78,2.11-2.99.83-5.98,1.66-8.97,2.51-3.67,1.05-7.34,2.12-11.01,3.19-2.36.69-4.71,1.42-7.07,2.11-1.16.34-2.35.6-3.51.95-.36.11-.67.37-1.01.56"/>
      <path class="cls-1" d="M409.03,94.83c-.47-.44-.86-.16-1.28.12-1.65,1.1-3.49,1.68-5.45,1.95-.29.04-.57.19-.86.28-4.11,1.29-8.22,2.59-12.34,3.87-2.78.86-5.58,1.67-8.35,2.55-7.78,2.49-15.54,5.01-23.31,7.52-.29.09-.59.13-1.09.23-.94,1.83-3,2.42-4.93,3.57l1.11,3.33"/>
      <path class="cls-1" d="M388.21,104.45c-2.34.86-4.69,1.7-7.03,2.59-2.69,1.03-5.36,2.1-8.04,3.15-4.12,1.61-8.25,3.22-12.37,4.84-4.05,1.59-8.11,3.18-12.16,4.77-2.75,1.08-5.5,2.15-8.25,3.23-2.75,1.08-5.5,2.15-8.25,3.23-.42.17-.84.36-1.26.54"/>
      <path class="cls-1" d="M269.08,123.24c.47-.04.96.02,1.39-.12,2.95-.95,5.89-1.94,8.82-2.94.41-.14.77-.42,1.15-.64-.04-.12-.07-.24-.11-.36-.33.01-.69-.04-.99.05-2.92.91-5.84,1.85-8.75,2.79-.66.21-1.37.37-1.65,1.14"/>
      <path class="cls-1" d="M173.89,172.27c-2.15.96-4.3,1.92-6.46,2.87-1.6.7-3.21,1.37-4.8,2.08-2.22,1-4.43,2.03-6.64,3.04-.93.43-1.87.84-2.79,1.3-.28.14-.51.4-.76.6"/>
      <path class="cls-1" d="M308.23,129.9c-.47.04-.98-.04-1.39.13-3.37,1.37-6.73,2.76-10.08,4.18-3.18,1.35-6.33,2.76-9.51,4.11-1.71.73-3.44,1.39-5.16,2.09-.14.06-.26.16-.46.29,0,.29,0,.63-.01.92-1.11.67-2.14,1.19-3.45.71-.76-.28-1.43.12-1.86.83"/>
      <path class="cls-1" d="M230.46,121.06c-.98.29-1.98.53-2.94.87-4.88,1.73-9.73,3.57-14.64,5.21-7.46,2.49-14.98,4.79-22.44,7.28-3.51,1.17-6.94,2.61-10.46,3.95l2.43,7.3c2.06-.69,4.08-1.34,6.08-2.03,1.72-.59,3.42-1.23,5.13-1.82,3.32-1.15,6.64-2.32,9.97-3.44,3.08-1.03,6.2-1.95,9.28-2.99,3.29-1.12,6.55-2.35,9.83-3.49,2.64-.92,5.31-1.78,7.96-2.66"/>
      <path class="cls-1" d="M413.99,107.21c-1.06.39-2.17.71-3.19,1.2-4.09,1.96-8.16,3.98-12.24,5.97-2.02.99-4.05,1.96-6.05,2.99-.51.27-.93.73-1.39,1.1.04.13.09.26.13.39.81-.04,1.65.04,2.43-.13,3.56-.78,7.13-1.55,10.65-2.48,2.92-.77,5.8-1.73,8.68-2.64,1.08-.34,2.12-.82,3.2-1.16,1.12-.35,2.28-.56,3.4-.93.52-.17.96-.55,1.6-.94-.36-1.08-.55-2.08-1.01-2.94-.99-1.86-3.12-2.25-5.11-1.06-.32.19-.69.32-1.04.47"/>
      <path class="cls-1" d="M327.82,117.65c2.39-.72,4.79-1.41,7.17-2.15,4.22-1.31,8.42-2.73,12.67-3.93,1.45-.41,2.89-1.06,4.47-.94,1.4.11,2.86-.16,4.09.79"/>
      <path class="cls-1" d="M375.87,114.77c-.35.16-.68.37-1.04.46-1.74.41-2.46,1.57-1.89,3.27.6,1.75,1.3,3.47,1.95,5.2.26.69.73.92,1.44.72,1.42-.4,2.88-.69,4.26-1.22,1.22-.46,1.55-1.7,1.06-2.95-.59-1.47-1.22-2.94-1.7-4.45-.49-1.54-.79-1.4-2.06-1.46-.17,0-.33-.05-.5-.07"/>
      <path class="cls-1" d="M427.06,67.87c3.42-.98,6.83-1.98,10.26-2.93,2.33-.65,4.68-1.25,7.03-1.87,2.13-.56,4.25-1.12,6.38-1.65,3.05-.76,6.12-1.5,9.28-2.28l3.8,11.4c-.23.12-.46.29-.72.36-2.58.63-5.16,1.24-7.74,1.88-1.21.3-2.42.63-3.62.97-1.82.51-3.63,1.06-5.45,1.57-.51.14-1.05.2-1.58.29"/>
      <path class="cls-1" d="M487.66,59.26c-1.85.42-3.71.84-5.56,1.25-2.19.49-4.38.97-6.56,1.47-1.03.24-2.06.51-3.08.79-1.68.46-3.34.98-5.02,1.42-3.26.87-6.52,1.71-9.79,2.55-2.02.52-4.04,1.02-6.06,1.54-3.71.95-7.41,1.91-11.12,2.87"/>
      <path class="cls-1" d="M555.61,59.44c-2.62,1.11-5.23,2.23-7.86,3.33-1.92.81-3.86,1.59-5.77,2.41-2.27.97-4.51,2-6.78,2.97-2.79,1.19-5.6,2.34-8.39,3.52-1.54.65-3.06,1.33-4.59,2.01-.94.42-1.87.86-2.8,1.29"/>
      <path class="cls-1" d="M227.03,168.53c-.41.45-.76.98-1.23,1.35-1.22.94-2.45,1.88-3.77,2.68-1.2.73-2.51,1.29-3.79,1.88-3.1,1.45-6.14,3.08-9.34,4.26-6.81,2.51-13.71,4.77-20.57,7.14"/>
      <path class="cls-1" d="M550.78,40.62c.01.39-.05.81.05,1.18.47,1.75,1.02,3.48,1.48,5.24.37,1.43.61,2.9,1,4.33.13.47.57.84.87,1.26"/>
      <path class="cls-1" d="M322.03,140.11c4.31-.08,8.63-.16,12.94-.25,1.98-.04,3.97-.11,6.05-.17.28.98.54,1.88.8,2.79"/>
      <path class="cls-1" d="M121.35,190.72c.73-.2,1.46-.41,2.19-.61"/>
      <path class="cls-1" d="M125.6,189.85c1-.11,2.01-.17,2.99-.35,2.96-.55,5.92-1.1,8.86-1.76,2.73-.62,5.43-1.4,8.15-2.09.92-.23,1.87-.35,2.79-.6.48-.13.91-.43,1.36-.65,0-.09,0-.18-.01-.26.64.23,1.28.45,1.92.68"/>
      <path class="cls-1" d="M144.05,181.37c-2.24.94-4.47,1.89-6.71,2.83-2.87,1.2-5.73,2.4-8.61,3.58-.91.37-1.85.68-2.75,1.06-.25.11-.44.37-.65.56"/>
      <path class="cls-1" d="M149.97,188.36c.68.01,1.38.13,2.04.02,2.36-.42,4.72-.89,7.07-1.39,1.15-.24,2.26-.63,3.41-.87.83-.17,1.69-.21,2.48-.3,2.69,1.35,16.98,1.06,21.12-1.03-1.02-1.67-2.98-.86-4.46-1.79-.13-.49-.29-1.15-.46-1.81"/>
      <path class="cls-1" d="M423.22,75.72l-1.97-5.91-3.87,1.29c-4.73,1.58-9.47,3.16-14.2,4.73-.68.23-1.38.4-2.08.57-.58.15-.75.46-.5,1.01"/>
      <path class="cls-1" d="M417.15,84.78c2.73,8.2,5.47,16.41,8.2,24.62.14.43.22.88.33,1.32"/>
      <path class="cls-1" d="M504.88,41.7c.97,3.38,1.95,6.76,2.89,10.14.27.99.43,2.01.67,3.15-1.6.29-3.21.57-4.82.86"/>
      <path class="cls-1" d="M372.51,82.46c-.16.13-.29.32-.47.39-3.7,1.33-7.4,2.68-11.12,3.94-2.11.72-4.28,1.28-6.41,1.92-.25.08-.48.23-.72.35"/>
      <path class="cls-1" d="M383.93,128.21c-.02-.19-.02-.39-.08-.57-.81-2.68-1.12-3.32-4.09-2.23-2.02.74-4.09,1.37-6.13,2.06-1.46.49-1.84,1.27-1.36,2.72.21.65.43,1.29.64,1.93"/>
      <path class="cls-1" d="M210.82,182.65c1.48-.45,2.96-.93,4.45-1.36,1.89-.54,3.8-1.03,5.7-1.55,2.19-.59,4.39-1.16,6.58-1.78,2.11-.6,4.19-1.29,6.3-1.91,2.47-.72,4.94-1.42,7.42-2.11.95-.26,1.92-.47,2.82-.69.69.69,1.3,1.29,1.97,1.96,1.99-.5,3.94-.98,5.89-1.49,1.87-.49,3.74-.97,5.59-1.53.47-.14,1.01-.49,1.23-.89.38-.73.54-1.58.79-2.38"/>
      <path class="cls-1" d="M247.82,115.4l2.31,6.93c-4.87,1.62-9.65,3.21-14.57,4.86-.06-.15-.19-.47-.33-.79"/>
      <path class="cls-1" d="M365.18,113.56c.53,1.7,1.02,3.4,1.58,5.09,1.55,4.7,3.12,9.39,4.69,14.08"/>
      <path class="cls-1" d="M113.72,168.19c1.64,5.03,3.27,10.06,4.91,15.08"/>
      <path class="cls-1" d="M100.91,198.97c3.8-1.03,7.61-2.05,11.4-3.09,1.28-.35,2.54-.76,3.8-1.14"/>
      <path class="cls-1" d="M108.67,162.71c4.47,13.42,8.94,26.84,13.41,40.25"/>
      <path class="cls-1" d="M112.93,185.53c-4.87,1.9-9.73,3.8-14.6,5.7"/>
      <path class="cls-1" d="M101.98,202.19c1.54-.27,3.09-.53,4.63-.83,1.31-.25,2.6-.57,3.91-.81,1.96-.36,3.92-.67,5.88-1.02.37-.07.72-.23,1.08-.35"/>
      <path class="cls-1" d="M111.67,181.77c-4.82,2.04-9.64,4.09-14.45,6.13"/>
      <path class="cls-1" d="M99.69,195.31c5.01-1.47,10.02-2.94,15.03-4.41"/>
      <path class="cls-1" d="M118.19,201.69c-3.2.55-6.41,1.1-9.61,1.65-1.96.34-3.92.67-5.88,1"/>
      <path class="cls-1" d="M109.06,173.2l.56,1.68c-1.95,1.03-3.83,2.01-5.69,3.01-2.8,1.52-5.6,3.05-8.39,4.58"/>
      <path class="cls-1" d="M465.81,51.44c1.42-.29,2.85-.53,4.25-.89,3.01-.77,6-1.62,9.01-2.38,3.63-.93,7.26-1.86,10.87-2.88,3.72-1.05,7.5-1.88,11.25-2.83,1.5-.38,2.98-.86,4.49-1.24,2.31-.6,4.64-1.16,6.96-1.72.37-.09.75-.14,1.34-.25.11-1.21.23-2.44.34-3.66"/>
      <path class="cls-1" d="M248.5,117.8c-4.77,1.59-9.54,3.18-14.31,4.77"/>
      <path class="cls-1" d="M228.29,159.4c-.08.11-.15.27-.25.31-2.14.88-4.29,1.73-6.41,2.63-2.38,1-4.75,2.02-7.1,3.09-1.53.69-3.02,1.47-4.52,2.21"/>
      <path class="cls-1" d="M353.8,76.15c-.41.1-.82.16-1.22.29-7.75,2.57-15.49,5.16-23.24,7.74l-14.74,4.91"/>
      <path class="cls-1" d="M233.12,176.06c-.58-1.52-1.09-3.07-1.78-4.54-.55-1.18-1.08-1.31-2.3-.9-1.8.59-3.58,1.2-5.38,1.78-.36.12-.76.11-1.14.15"/>
      <path class="cls-1" d="M351.42,88.76c.02-.72.61-.81,1.11-.96,1.78-.52,3.58-.98,5.34-1.56,2.91-.96,5.76-2.08,8.69-2.97,1.96-.59,4.01-.89,6.02-1.32"/>
      <path class="cls-1" d="M374.29,81.69c1.93-.3,3.86-.61,5.79-.91,2.88-.45,5.76-.89,8.64-1.33,2.58-.39,5.17-.74,7.74-1.15,3.78-.6,7.56-1.24,11.33-1.86"/>
      <path class="cls-1" d="M484.11,60.09c.1.41.16.82.29,1.22,2.27,6.85,4.55,13.69,6.83,20.53"/>
      <path class="cls-1" d="M321.41,98.05c-1.71-.36-3.16.52-4.69.99-.62.19-1.17.63-1.68,1.13,2.38-.05,4.56-.7,6.51-2.05"/>
      <path class="cls-1" d="M233.68,129.66c2.33-.02,4.38-.93,6.43-1.86-.01-.13-.03-.27-.04-.4-.59,0-1.22-.15-1.75.03-1.51.49-2.98,1.11-4.45,1.71-.15.06-.22.3-.33.45"/>
      <path class="cls-1" d="M143.44,180.26c-2.65,1.12-5.31,2.25-7.96,3.37-1.12.47-2.24.92-3.37,1.36-2.82,1.1-5.64,2.19-8.46,3.3-.92.36-1.82.76-2.73,1.14"/>
      <path class="cls-1" d="M261.84,118.37c2.41.19,4.39-.94,6.4-1.97-.02-.12-.04-.25-.06-.37-.64.05-1.33-.02-1.92.17-1.44.47-2.83,1.07-4.23,1.64-.11.05-.15.27-.22.42"/>
      <path class="cls-1" d="M428.95,74.64c.62,1.62,1.3,3.23,1.85,4.88,1.43,4.3,2.8,8.62,4.2,12.93"/>
      <path class="cls-1" d="M389.82,109.65c-3.8,1.27-7.61,2.53-11.4,3.81-.39.13-.74.4-1.12.6"/>
      <path class="cls-1" d="M271.66,114.86c.48,0,.99.11,1.43-.02,1.45-.42,2.88-.92,4.3-1.43.23-.08.38-.38.5-.8-.44.04-.89.04-1.32.14-1.66.41-3.37.72-4.77,1.82"/>
      <path class="cls-1" d="M110.2,177.36c-4.7,2.4-9.4,4.8-14.1,7.2"/>
      <path class="cls-1" d="M419.77,84.74c.65-.22,1.3-.4,1.93-.65,1.96-.8,3.8.35,4.33,1.91,1.1,3.22,2.15,6.45,3.23,9.67l2.54,7.63c.26.79.5,1.59.8,2.36.15.39.4.74.6,1.11"/>
      <path class="cls-1" d="M529.58,62.38c1.26-.84,1.28-.99.86-2.44-.14-.47-.27-.95-.47-1.4-.46-1.05-1.15-1.41-2.25-1.03-2.43.84-4.84,1.74-7.25,2.65-.78.29-1.13.94-.96,1.74.15.7.4,1.38.67,2.04.49,1.17,1.27,1.44,2.47.98,2.08-.8,4.18-1.56,6.27-2.33.14-.05.3-.08.55-.14l1.27,3.83"/>
      <path class="cls-1" d="M197.44,118.81c.02.19.02.39.08.57,1.25,3.88,2.48,7.77,3.76,11.64.64,1.94,1.36,3.85,2.03,5.77.16.46.24.95.36,1.43"/>
      <path class="cls-1" d="M480.06,48.3c1.29,3.87,2.58,7.74,3.87,11.61"/>
      <path class="cls-1" d="M224.36,130.02c-.35.16-.68.34-1.04.46-5.08,1.74-10.16,3.47-15.24,5.2-4.26,1.45-8.51,2.93-12.77,4.37-3.76,1.27-7.53,2.51-11.29,3.77-.65.22-1.27.5-1.9.75"/>
      <path class="cls-1" d="M528.55,38.48c4.01-.52,8.03-1.04,12.16-1.57-.1-.52-.21-1.09-.33-1.66"/>
      <path class="cls-1" d="M327.65,93.82c1.8,5.41,3.6,10.82,5.41,16.23.22.64.5,1.27.75,1.9"/>
      <path class="cls-1" d="M535.13,64.7c-1.52.59-3.05,1.14-4.55,1.76-2.14.88-4.26,1.81-6.39,2.72-2.55,1.09-5.08,2.21-7.64,3.25-2.1.85-4.25,1.58-6.38,2.38-1.21.46-2.4.95-3.7,1.46l.97,2.91"/>
      <path class="cls-1" d="M410.06,76.4c-.44.95-1.33,1.25-2.22,1.59-.38.15-.7.44-1.05.67.05.15.11.31.16.46.61-.05,1.25.02,1.81-.16,2.37-.78,4.71-1.64,7.07-2.45,1.59-.55,1.66-.69.94-2.23-.11-.24-.17-.5-.25-.75"/>
      <path class="cls-1" d="M143.8,189.58c-.33-.48-.66-.97-1.1-1.6l-2.96.99c.42,1.08.81,2.1,1.19,3.09,2.09.02,2.83-.59,2.83-2.22"/>
      <path class="cls-1" d="M158.98,185.11c.3.5.61.99.91,1.49"/>
      <path class="cls-1" d="M189.76,136.65c-.9,2.17-.49,2.75,1.67,3.98.76-.25,1.64-.5,2.48-.84,1.65-.66,2.49-1.59,1.62-3.46-1.29-1.28-2.62-1.09-4.02-.51-1.41.58-2.93.89-4.16,1.87-1.21.96-1.41,1.5-.97,2.84,1.51.75,3.07,1.04,4.66,0"/>
      <path class="cls-1" d="M184.74,116.94c.06.42.06.86.19,1.25,1.78,5.38,3.57,10.75,5.36,16.13"/>
      <path class="cls-1" d="M407.86,95.28c.24,0,.5.06.71-.01,1.43-.49,2.85-1.02,4.27-1.53.07-.03.15-.08.21-.07,1.48.43,2.68-.61,4.05-.79.77-.1,1.51-.47,2.26-.73"/>
      <path class="cls-1" d="M238.83,163.77c.95,2.87,1.91,5.73,2.86,8.6.13.39.2.81.29,1.22"/>
      <path class="cls-1" d="M439.64,68.69c-.21-.41-.42-.82-.69-1.33-1.53.39-3.07.78-4.73,1.21.58,1.73,1.04,3.38,1.7,4.94.16.38,1,.7,1.48.65.81-.08,1.58-.49,2.37-.73.92-.28.99-.91.75-1.69-.29-.98-.57-1.96-.86-2.94"/>
      <path class="cls-1" d="M214.84,176.42c.14.67.28,1.35.45,2.18-2.27.63-4.45,1.25-6.76,1.89-.11-.47-.2-.87-.29-1.28"/>
      <path class="cls-1" d="M149.14,188.03c.08.49.11,1,.26,1.47.83,2.55,1.69,5.09,2.53,7.63"/>
      <path class="cls-1" d="M122.9,164.89l-2.58.86-9.36,3.12"/>
      <path class="cls-1" d="M87.48,79.73l3.04,9.14"/>
      <path class="cls-1" d="M375.79,114.56c-.42.06-.86.06-1.25.19-2.66.87-5.31,1.76-7.96,2.64"/>
      <path class="cls-1" d="M355.27,70.17c-.23.16-.45.31-.81.55.44,2.53,1.89,4.87,2.15,7.77.23.06.7.17,1.17.28"/>
      <path class="cls-1" d="M48.46,92.84c.44,1.21.9,2.41,1.32,3.62.6,1.75,1.17,3.51,1.76,5.27"/>
      <path class="cls-1" d="M78.69,82.77l2.97,8.92"/>
      <path class="cls-1" d="M89.73,169.01l2.97,8.92"/>
      <path class="cls-1" d="M88.55,169.41c.67,2.13,1.33,4.25,2.01,6.38.26.83.55,1.65.82,2.47"/>
      <path class="cls-1" d="M358.64,69.16c.4.16.81.31,1.3.5l2.06,6.18c-.2.3-.44.66-.68,1.02"/>
      <path class="cls-1" d="M140.07,190.58c-.75.13-1.51.26-2.26.39"/>
      <path class="cls-1" d="M131.05,192.57c-.88.23-1.75.49-2.64.69-1.92.46-3.85.89-5.77,1.33"/>
      <path class="cls-1" d="M241.54,117.01c-.26.17-.51.4-.79.49-3.19,1.08-6.38,2.14-9.57,3.19-.11.04-.24,0-.36,0"/>
      <path class="cls-1" d="M36.84,100.3c-2.36.82-4.71,1.64-7.06,2.48-.39.14-.77.33-1.15.5"/>
      <path class="cls-1" d="M530.99,31.45c-1.36.1-2.73.19-4.09.29-.38.03-.76.1-1.33.01l-2.26,3.21"/>
      <path class="cls-1" d="M358.25,69.06l2.65,7.95"/>
      <path class="cls-1" d="M435.05,78.22c1.33-.32,2.66-.63,3.98-.97,1.36-.35,2.7-.74,4.05-1.11"/>
      <path class="cls-1" d="M200.23,120.74c-.22-.01-.45-.03-.79-.05l2.22,6.68,2.96-.99c-.54-1.63-1.07-3.2-1.59-4.78-.22-.67-.4-1.27-1.35-.79-.26.13-.73-.16-1.29-.3.1.45.14.76.23,1.05.59,1.79,1.19,3.58,1.79,5.38"/>
      <path class="cls-1" d="M259.13,155.1c1.35,4.05,2.7,8.1,4.05,12.15"/>
      <path class="cls-1" d="M119.92,187.14l5.12,15.37"/>
      <path class="cls-1" d="M34.69,96.71c-.96-.87-2.06-.54-3.08-.26-1.64.45-3.25,1.01-4.84,1.61-.56.21-1.03.69-1.44.97l3.46,10.39,10.09-3.36"/>
      <path class="cls-1" d="M94.83,90.65c-.33.19-.65.44-1.01.56-1.82.63-3.66,1.22-5.48,1.84-.36.12-.7.31-1.04.46"/>
      <path class="cls-1" d="M384.3,92.38c2.76,8.28,5.51,16.55,8.27,24.83"/>
      <path class="cls-1" d="M233.56,161.58c.48.12.97.38,1.43.33,1.92-.18,3.83-.45,5.74-.69"/>
      <path class="cls-1" d="M355.05,70.6c.79,2.48,1.58,4.97,2.36,7.45"/>
      <path class="cls-1" d="M355.44,88.62c2.26.44,4.53.85,6.77,1.34.86.19,1.9-.07,2.55.81"/>
      <path class="cls-1" d="M320.07,125.24c-.35.27-.66.63-1.05.81-2.03.95-4.07,1.87-6.13,2.76-.41.18-.9.16-1.36.23"/>
      <path class="cls-1" d="M228.45,121.85l6.7,20.1"/>
      <path class="cls-1" d="M124.15,104.05c.94-.43,1.89-.87,2.83-1.3-.06-.14-.11-.28-.17-.42-1.35.38-2.79.44-4.06,1.34q.69.57,1.26.3"/>
      <path class="cls-1" d="M130.99,192.05c-.6,0-1.2-.06-1.79.01-2.25.28-4.5.61-6.74.92-.15.02-.29.09-.43.14"/>
      <path class="cls-1" d="M45.74,96.14l-.25-.75-6.24,2.08c.02.22.04.58.07.93"/>
      <path class="cls-1" d="M360.7,100.12c.58,1.88,1.17,3.75,1.76,5.62.12.4.26.79.39,1.18"/>
      <path class="cls-1" d="M420.53,76.97c.7,2.23,1.41,4.47,2.11,6.7"/>
      <path class="cls-1" d="M192.58,145.14c-.3-.06-.63-.23-.89-.16-2.04.52-4.12.95-5.79,2.36,2.37-.17,4.65-.62,6.61-2.06"/>
      <path class="cls-1" d="M258.14,129.51c-.49-.04-1.02-.21-1.46-.08-1.42.4-2.81.89-4.2,1.39-.33.12-.61.4-.91.61.03.1.06.2.08.3.3,0,.62.08.89,0,1.69-.54,3.38-1.11,5.06-1.68.14-.05.24-.23.36-.35"/>
      <path class="cls-1" d="M46.88,93.49c1.01,2.93,2.03,5.85,3.04,8.78"/>
      <path class="cls-1" d="M425.19,63c1.27,3.8,2.53,7.6,3.8,11.39"/>
      <path class="cls-1" d="M152.53,147.62l2.08,6.23"/>
      <path class="cls-1" d="M279.73,110.02c.66,2.09,1.31,4.18,1.97,6.27"/>
      <path class="cls-1" d="M417.25,75.73c.8-.14,1.6-.28,2.59-.46-.25-.89-.39-1.61-.67-2.27-.1-.22-.6-.49-.82-.41-2.55.84-5.08,1.73-7.61,2.64-.22.08-.34.41-.51.63"/>
      <path class="cls-1" d="M331.23,98.12c2.37,0,4.42-.88,6.38-2.03-.03-.12-.06-.24-.1-.37-.65.12-1.32.17-1.94.37-1.4.46-2.78.98-4.16,1.5-.15.06-.22.3-.33.45"/>
      <path class="cls-1" d="M428.49,74.68c2.16-.68,4.32-1.39,6.49-2.03,1.74-.51,3.51-.94,5.27-1.41"/>
      <path class="cls-1" d="M37.13,99.37c2.81-1.02,5.62-2.03,8.43-3.05"/>
      <path class="cls-1" d="M443.12,63.71c1.24,3.73,2.48,7.45,3.72,11.18"/>
      <path class="cls-1" d="M499.99,58.62c.66.02,1.23-.06,1.72-.65.24-.3.83-.31,1.48-.53.09-.33.25-.88.39-1.38-.96-1.51-1.85-1.73-3.76-1.21-1.8.48-3.63.82-5.45,1.24-1.11.26-2.2.57-3.3.86"/>
      <path class="cls-1" d="M489.72,57.2c-1.45-.18-1.61.98-1.98,1.94.67,1.6,1.07,1.79,2.78,1.51,3-.49,5.96-1.22,8.93-1.88.21-.05.36-.34.54-.52"/>
      <path class="cls-1" d="M268.18,119.48c-.48.36-.91.88-1.44,1.04-1.42.42-2.88.68-4.33,1"/>
      <path class="cls-1" d="M212.82,127.3l1.97,5.91"/>
      <path class="cls-1" d="M554.18,53.34c.08.73.12,1.47.26,2.18.17.89.37,1.79.65,2.65.15.47.51.87.77,1.3"/>
      <path class="cls-1" d="M267.86,119.23c-1.59.08-3.11.37-4.49,1.24-.47.3-1.2.2-1.35.94"/>
      <path class="cls-1" d="M69.01,89.22c-.07-1.01-1-.63-1.51-.93"/>
      <path class="cls-1" d="M64.85,89.29c-.75.5-.91,1.2-.64,2,.31.89.6,1.8,1.01,2.64.46.93,1.35.35,2.03.36.49,0,.98-.37,1.47-.57,1.25-.51,1.52-1.08,1.11-2.4-.21-.68-.45-1.36-.68-2.04"/>
      <path class="cls-1" d="M186.33,179.83l2.72,8.17"/>
      <path class="cls-1" d="M230.89,118.41s.04.08.03.11c-.86,2.7.39,5.06,1.18,7.49.1.32.15.67.22,1"/>
      <path class="cls-1" d="M222.39,124.11c.7,1.99,1.41,3.99,2.11,5.99.1.28.12.6.18.89"/>
      <path class="cls-1" d="M221.29,173.19c-.66,2.18.66,3.98,1.14,5.95"/>
      <path class="cls-1" d="M201.63,120.99l1.86,5.59"/>
      <path class="cls-1" d="M313.81,87.8c.78,2.21,1.55,4.42,2.33,6.63.15.43.29.86.43,1.29"/>
      <path class="cls-1" d="M391.88,73.14c.57,1.84,1.15,3.68,1.72,5.52"/>
      <path class="cls-1" d="M26.87,103.02c.56-.18,1.15-.55,1.51.21l1.86,5.59"/>
      <path class="cls-1" d="M173.5,170.01l2.54,7.63"/>
      <path class="cls-1" d="M356.81,78.01c.35.08.69.17,1.04.25-.02.15-.03.31-.06.62l5.34-1.78c.14-.8.25-1.41.35-2.03"/>
      <path class="cls-1" d="M224.34,179.1l.39,1.17c1.02-.28,1.99-.54,3.13-.84-.1-.49-.2-.95-.29-1.4"/>
      <path class="cls-1" d="M109.51,175.09c.44,1.13.91,2.24,1.3,3.39,1.87,5.55,3.74,11.1,5.54,16.66.7,2.15,1.73,4.21,1.97,6.51.06.58.43,1.13.66,1.69"/>
      <path class="cls-1" d="M393.25,118.89c.54,1.73,1.07,3.46,1.61,5.2"/>
      <path class="cls-1" d="M414.74,106.96c.61,1.71,1.22,3.42,1.83,5.12"/>
      <path class="cls-1" d="M414.02,107.32c-.18,1.97.4,3.69,1.72,5.16"/>
      <path class="cls-1" d="M137.17,103.3c-.61,2.11-1.22,4.23-1.83,6.34"/>
      <path class="cls-1" d="M214.07,120.67c-1.01.03-2.02.06-3.19.1.94,1.76.97,3.64,2.31,4.99.05-1.7-.73-3.2-1.17-4.77"/>
      <path class="cls-1" d="M291.63,137.82l1.68,5.05"/>
      <path class="cls-1" d="M216.44,120.59c-.68-.03-1.36-.07-2.31-.11l1.41,4.23"/>
      <path class="cls-1" d="M416.59,65.5c.6,1.67,1.19,3.34,1.79,5.02"/>
      <path class="cls-1" d="M356.23,85.97c.07-.12.14-.23.21-.34-1.21-.57-4.58.42-6.39,1.93.52.23,1.04.45,1.56.67"/>
      <path class="cls-1" d="M311.37,89.09c.23.56.46,1.12.75,1.81-.39.3-.8.61-1.36,1.04l-.68-2.06"/>
      <path class="cls-1" d="M549.27,35.04c.41,1.65.3,3.45,1.4,4.91"/>
      <path class="cls-1" d="M303.54,121.2c.5,1.62,1,3.25,1.5,4.87"/>
      <path class="cls-1" d="M148.61,174.24l1.58,4.73"/>
      <path class="cls-1" d="M163.06,168.47c.5,1.61.99,3.21,1.49,4.82"/>
      <path class="cls-1" d="M181.82,161.27l1.54,4.62"/>
      <path class="cls-1" d="M175.43,169.36l2.54,7.63"/>
      <path class="cls-1" d="M219.66,147.47c.47,1.52.93,3.03,1.4,4.55"/>
      <path class="cls-1" d="M122.07,98.89l-1.72,5.59"/>
      <path class="cls-1" d="M525.02,58.76l1.47,4.41"/>
      <path class="cls-1" d="M262.76,133.35l1.43,4.3"/>
      <path class="cls-1" d="M213.18,120.85l1.43,4.3"/>
      <path class="cls-1" d="M217.59,120.45c-.27,0-.55,0-1.08-.01l1.19,3.56"/>
      <path class="cls-1" d="M363.03,107.11l2.08,6.23"/>
      <path class="cls-1" d="M531.07,12.68c.49-.21.98-.43,1.58-.69-.21-.51-.36-.9-.58-1.44l-1.54.51"/>
      <path class="cls-1" d="M384.92,75.58l1.36,4.08"/>
      <path class="cls-1" d="M218.92,120.49c.28.98.56,1.96.85,3l1.58-.53-.88-2.66c-.79.01-1.67.03-2.67.05-.05,1.21.5,2.24.97,3.29"/>
      <path class="cls-1" d="M361.79,69.67c.23,1.04.42,2.09.7,3.11.09.36.37.67.56,1.01"/>
      <path class="cls-1" d="M535.31,64.53c.97-.44,1.93-.91,2.91-1.31.23-.09.55.03.84.05l.06.44c-1.24.46-2.49.93-3.73,1.39"/>
      <path class="cls-1" d="M523.98,64.6c.48,1.31.95,2.63,1.43,3.94"/>
      <path class="cls-1" d="M282.08,157.24l1.32,3.98"/>
      <path class="cls-1" d="M142.44,176.53c.69,1.96,1.38,3.92,2.08,5.87.03.07.12.12.17.18"/>
      <path class="cls-1" d="M215.4,120.7l1.22,3.65"/>
      <path class="cls-1" d="M369.71,92.7c.36,1.19.72,2.39,1.07,3.58"/>
      <path class="cls-1" d="M326.72,85.29l.39,1.18,1.51-.5-.39-1.18"/>
      <path class="cls-1" d="M232.61,118.19c.1.41.16.82.29,1.22.74,2.26,1.5,4.52,2.25,6.77"/>
      <path class="cls-1" d="M132.54,180.55l1.15,3.44"/>
      <path class="cls-1" d="M144.88,182.77c1.51.33,3.01.67,4.52,1"/>
      <path class="cls-1" d="M434.94,78.26c-.2-.37-.4-.75-.61-1.14-.28.02-.55.03-1.01.06l1.11,3.34c.41-.22.75-.4.94-.5-.17-.69-.28-1.17-.4-1.64"/>
      <path class="cls-1" d="M365.3,79.84l1.11,3.33"/>
      <path class="cls-1" d="M150.94,182.3c-.85-.38-1.71-.77-2.6-1.17-1.08.31-2.3.47-3,1.6"/>
      <path class="cls-1" d="M444.59,75.64c-.19-.38-.38-.75-.59-1.18l-1.11.37.91,2.72c.34.02.71.04,1.19.07-.13-.67-.24-1.27-.36-1.87"/>
      <path class="cls-1" d="M306.42,91.81c.25.63.51,1.26.86,2.12,1.14-.54,2.44-1.02,3.48-2.01"/>
      <path class="cls-1" d="M305.31,92.42l.73,2.18c.3-.18.65-.4.99-.61"/>
      <path class="cls-1" d="M116.08,184.24c1.22-.64,2.47-.99,3.88-.59.77.22,1.6.28,2.4.41"/>
      <path class="cls-1" d="M517.63,75.67c.37.99.74,1.98,1.11,2.97"/>
      <path class="cls-1" d="M299.32,95.61l.63,1.88c2.33-.53,4.04-1.81,5.87-2.85"/>
      <path class="cls-1" d="M362.3,70.81l.97,2.9"/>
      <path class="cls-1" d="M514.69,73.31l.93,2.79"/>
      <path class="cls-1" d="M360.18,68.41l.54-.18c-.04-.11-.08-.21-.12-.32-1.71.73-3.41,1.46-5.12,2.18"/>
      <path class="cls-1" d="M281.48,140.9c-1.03.06-1.99.3-2.65,1.18"/>
      <path class="cls-1" d="M520.39,71.05c.26.91.53,1.82.79,2.72"/>
      <path class="cls-1" d="M489.78,57.72c-.08.11-.15.24-.25.32-1.16.82-1.17,1.04-.07,1.94"/>
      <path class="cls-1" d="M524.97,12.32c.33.88.67,1.77,1,2.65"/>
      <path class="cls-1" d="M528.2,11.25c.23.92.45,1.84.68,2.76"/>
      <path class="cls-1" d="M526.26,11.89c.25.87.5,1.74.75,2.62"/>
      <path class="cls-1" d="M358.35,77.98c1.52-.47,3.04-.93,4.55-1.4"/>
      <path class="cls-1" d="M111.35,171.84c-1.1.53-2.2,1.05-3.3,1.58"/>
      <path class="cls-1" d="M433.54,78.72c-.87.25-1.75.5-2.62.75"/>
      <path class="cls-1" d="M220.1,120.45c.24.84.48,1.67.72,2.51"/>
      <path class="cls-1" d="M529.56,11.03c.2.85.41,1.7.61,2.54"/>
      <path class="cls-1" d="M144.84,183.02c.24.84.48,1.67.72,2.51"/>
      <path class="cls-1" d="M150.72,179.51c-.38.29-.77.57-1.15.86-.32.25-.62.52-.93.79"/>
      <path class="cls-1" d="M343.5,79.7c.11.49.23.97.35,1.48-.54.1-.88.16-1.26.23-.19-.39-.4-.8-.6-1.21"/>
      <path class="cls-1" d="M357.46,68.84l-2.37.79"/>
      <path class="cls-1" d="M65.53,90.62l.79,2.36"/>
      <path class="cls-1" d="M67.79,89.87c.23.8.45,1.6.68,2.4"/>
      <path class="cls-1" d="M368.89,90.23c.21.76.43,1.53.64,2.29"/>
      <path class="cls-1" d="M149.57,184.31c-.03-1.19,1.37-2.35,2.65-2.05,1.04.25,2.01.74,3.02,1.12"/>
      <path class="cls-1" d="M68.9,89.26l-4.52,1.51"/>
      <path class="cls-1" d="M493.86,59.23c-.74,0-1.57-.16-1.72.93"/>
      <path class="cls-1" d="M495.91,58.9c-1.11-.21-1.54,0-1.76.82"/>
      <path class="cls-1" d="M186,184.95c.34.28.68.56,1.14.93.23-.02.59-.05.94-.07"/>
      <path class="cls-1" d="M499.46,58.08c-.55.23-1.59-.29-1.47.97"/>
      <path class="cls-1" d="M308.86,90.52c.26.67.53,1.34.79,2.01"/>
      <path class="cls-1" d="M307.64,91.17c.26.67.53,1.34.79,2.01"/>
      <path class="cls-1" d="M390.35,125.24c-1.02-.15-1.57.25-1.6,1.31"/>
      <path class="cls-1" d="M304.2,93.03c.19.69.38,1.39.57,2.08"/>
      <path class="cls-1" d="M302.98,93.68c.19.69.38,1.39.57,2.08"/>
      <path class="cls-1" d="M301.76,94.32c.26.67.53,1.34.79,2.01"/>
      <path class="cls-1" d="M501,54.82c.11.97-.75.84-1.23.98-1.28.35-2.6.58-3.9.84-.16.03-.33-.04-.5-.06"/>
      <path class="cls-1" d="M65.31,93.56c1.52-.47,3.04-.93,4.55-1.4"/>
      <path class="cls-1" d="M495.12,56.18c-.24,1.02-1.13.63-1.76.82"/>
      <path class="cls-1" d="M280.96,104.36c.19.69.38,1.39.57,2.08"/>
      <path class="cls-1" d="M177.22,177.6c.46,1.31.93,2.61,1.09,3.99"/>
      <path class="cls-1" d="M300.54,94.97l.64,1.93"/>
      <path class="cls-1" d="M363.25,74.02c.57.8,1.01,1.63.51,2.63-.06.12-.25.17-.38.26"/>
      <path class="cls-1" d="M227.64,163.55c.04,1.39.76,2.57,1.16,3.85"/>
      <path class="cls-1" d="M520.57,78.03c-.51.25-1.04.48-1.54.76-.24.14-.44.37-.65.56"/>
      <path class="cls-1" d="M501.18,55.36c1.43.33,1.56.54,1.25,1.97"/>
      <path class="cls-1" d="M493.11,56.61c-.27.75-.96.65-1.54.75"/>
      <path class="cls-1" d="M158.65,182.84c.04.59.07,1.17.11,1.76"/>
      <path class="cls-1" d="M497.66,58.44c-.68.12-1.6-.21-1.72.93"/>
      <path class="cls-1" d="M489.38,60.48c.06-.18.09-.5.18-.52.76-.13,1.53-.21,2.29-.31"/>
      <path class="cls-1" d="M47.42,95.82c-.48.12-.96.24-1.43.36"/>
      <path class="cls-1" d="M401.66,80.63l.43,1.29"/>
      <path class="cls-1" d="M377.12,114.24l-1.08.36"/>
      <path class="cls-1" d="M213.53,125.5l6.35-2.11"/>
      <path class="cls-1" d="M360.68,68.48c.21.08.41.16.62.25.1-.1.21-.2.31-.29.07.33.14.65.21.98"/>
      <path class="cls-1" d="M360.76,67.98c.25.16.5.31.75.47"/>
      <path class="cls-1" d="M493.9,61.84c-.32.47-.75.89-.95,1.41-.31.79.37,2.06,1.24,2.3,1.08.3,1.89.14,2.47-1.16.43-.96.16-1.92-.68-2.4-.3-.17-.63-.29-1.06-.49l-.91.3"/>
      <path class="cls-1" d="M244.19,140.73c.05.65.1,1.29.16,2.04l6.71-2.24-.63-1.88-6.13,2.04"/>
      <path class="cls-1" d="M510.61,59.98c-.85.32-1.69.67-2.55.96-1.42.49-1.77,1.07-1.43,2.51.1.4.22.8.39,1.18.67,1.48,1.26,1.73,2.79,1.22,1.43-.48,2.88-.93,4.3-1.44.57-.21,1.11-.53,1.68-.81-.11-1.67-.28-3.21-1.84-4.53-.96.26-2.09.56-3.23.87"/>
      <path class="cls-1" d="M454.17,51.67c-.09.31-.19.62-.28.93.1.08.19.15.29.23,3.24-.8,6.48-1.6,9.79-2.42l-.39-1.16c-3.13.8-6.22,1.6-9.3,2.39"/>
      <path class="cls-1" d="M351.44,122.55c-.24.12-.47.26-.72.36-1.24.5-1.67,1.4-1.25,2.69.59,1.79,1.18,3.59,1.79,5.37.45,1.32,1.38,1.8,2.72,1.36,2.95-.96,5.89-1.95,8.82-2.94,1.57-.53,2.03-1.46,1.5-3-.64-1.86-1.24-3.73-1.99-5.55-.52-1.28-1.05-1.42-2.45-.97-2.45.79-4.88,1.62-7.32,2.43-.32.11-.67.15-1,.22"/>
      <path class="cls-1" d="M141.12,172.2c-.44.23-.87.5-1.33.67-2.48.92-4.98,1.81-7.45,2.74-.84.32-1.59.78-1.42,1.94.88.92,1.87.59,2.84.19.7-.29,1.38-.65,2.08-.92,2.54-.98,5.1-1.92,7.63-2.92.48-.19.88-.57,1.33-.86l-.43-1.28c-1.09-.68-2.09.17-3.15.41"/>
      <path class="cls-1" d="M209.51,143.2c-1.26,1.37-1.07,3.85.48,4.95.41.29,1.11.37,1.62.28.73-.13,1.41-.53,2.12-.78.88-.3,1.2-.97,1.05-1.79-.15-.89-.32-1.84-.77-2.59-.47-.79-1.39-1.08-2.36-.78-.68.22-1.36.45-2.04.68"/>
    </g>
  </g>
</svg>