<?xml version="1.0" encoding="UTF-8"?>
<svg id="Layer_1" data-name="Layer 1" xmlns="http://www.w3.org/2000/svg" version="1.1" viewBox="0 0 1500 500">
  <defs>
    <style>
      .cls-1 {
        fill: none;
        stroke: #fff;
        stroke-miterlimit: 10;
        stroke-width: .2px;
      }
    </style>
  </defs>
  <path class="cls-1" d="M1460.47,23.74c-93.66-2.75-207.74-6.06-219.27-6.15h-1.11c-13.35,0-35.34,1.97-47.37,3.16-.46-1.21-1.6-2.02-2.9-2.02h-33.45c-1.64,0-2.99,1.29-3.09,3.05-7.03-.25-33.32-1.02-88.98-1.02-49.73,0-109.01.61-176.2,1.83-.79,0-1.43.62-1.46,1.4-.02.78.57,1.42,1.35,1.47,6.17.35,151.8,8.57,222.5,13.78.29.02.59.03.88.03,1.1,0,2.2-.16,3.27-.47,9.68-2.78,22.67-5.56,38.63-8.26v3.5c0,1.72,1.39,3.12,3.1,3.12h7.57v13.71h-11.11c-1.36,0-2.65.59-3.55,1.63l-4.48,5.13-.14.17h.01c-.11.2-.17.4-.17.61v11.64c0,.83.57,1.54,1.38,1.75v.37c-.81.21-1.38.91-1.38,1.73v3.38c0,1.02.83,1.84,1.84,1.84h.36v1.19h-52.78c-1.06,0-2.13.04-3.17.1-.63.04-1.12.56-1.12,1.19v1.53c-1.81.18-3.63.46-5.44.84v-1.23c0-.37-.17-.71-.46-.94-.21-.16-.47-.25-.73-.25-.1,0-.2.01-.29.03l-210.5,53.4c-2.39.57-4.85.86-7.29.86-7.97,0-15.55-3.04-21.4-8.59-.15-.14-.29-.29-.53-.53l-11.58-12.25c-.22-.24-.54-.37-.87-.37-.27,0-.52.09-.73.25l-1.21.94-1.94-2.05,1.02-.79c.27-.21.43-.52.46-.85.03-.33-.09-.67-.32-.91l-4.64-4.91c-4.54-4.81-10.95-7.57-17.57-7.57h-129.15c-6.63,0-13.03,2.76-17.57,7.57l-4.62,4.91c-.23.24-.35.58-.32.91.03.33.19.64.46.85l1.02.79-1.94,2.05-1.21-.93c-.21-.16-.46-.25-.73-.25-.33,0-.64.14-.87.37l-11.64,12.3c-.15.16-.31.32-.52.5-5.8,5.53-13.38,8.58-21.35,8.58-2.44,0-4.89-.29-7.28-.86l-210.28-53.3c-.16-.08-.33-.12-.51-.12-.23,0-.45.06-.65.18-.35.22-.57.61-.57,1.04v1.2c-1.83-.39-3.65-.67-5.42-.84v-1.53c0-.63-.49-1.16-1.13-1.19-1.06-.06-2.11-.1-3.17-.1h-52.78v-1.19h.36c1.02,0,1.84-.83,1.84-1.84v-3.38c0-.83-.58-1.53-1.4-1.74v-.36c.82-.2,1.4-.92,1.4-1.76v-11.64c0-.21-.06-.41-.17-.6l.02-.02-4.63-5.3c-.9-1.04-2.2-1.63-3.57-1.63h-11.09v-13.71h7.55c1.72,0,3.12-1.4,3.12-3.12v-3.48c15.79,2.64,28.78,5.42,38.63,8.24,1.08.31,2.18.47,3.28.47.29,0,.58-.01.88-.03,71.49-5.27,220.98-13.69,222.49-13.78.78-.05,1.38-.69,1.36-1.47-.02-.79-.65-1.41-1.42-1.41-67.22-1.21-126.52-1.83-176.25-1.83-55.73,0-81.94.77-88.95,1.02-.04-1.69-1.42-3.05-3.12-3.05h-33.43c-1.3,0-2.45.81-2.9,2.02-9.78-.96-33.62-3.16-47.63-3.16h-.85c-11.63.1-125.66,3.4-219.27,6.16-2.44.08-3.74,2-3.76,3.84-.02,1.84,1.23,3.78,3.66,3.92,75.66,4.24,148.93,10.51,217.79,18.62,1.94.23,3.91.34,5.87.34,6.67,0,13.17-1.29,19.32-3.83l25.49-10.54c.6.67,1.43,1.05,2.3,1.05h6.79v13.71h-10.33c-1.37,0-2.67.59-3.57,1.63l-4.48,5.13-.14.17h.02c-.11.2-.17.4-.17.61v11.64c0,.84.58,1.55,1.4,1.76v.36c-.82.2-1.4.91-1.4,1.74v3.38c0,1.02.83,1.84,1.84,1.84h.36v1.19h-8.91c-1.77,0-3.43.67-4.69,1.88l-16,15.27c-.41.41-.72.85-.8,1.1l-.11.18c-.1.18-.18.36-.23.53v.06c-.08.18-.13.36-.17.54-.24,1.08-.07,2.26.49,3.31l13.47,23.27c1.29,2.21,3.68,3.59,6.23,3.62l17.32.1c1.72,0,3.39-.64,4.57-1.75h66.42c2.7,0,5.24-1.33,6.78-3.56l4.45-6.62h2.71c1.12,0,2.26.21,3.4.63.09.03.2.05.3.05.42,0,.85-.24,1.1-.49l.98-1.36.11.05c.21.1.42.2.63.33l4.4,2.68-.76,1.08c-.19.27-.26.61-.19.93.07.32.27.6.55.77l87.36,53c.1.15.23.27.37.36l98.48,59.76-56.89,37.08,4.94-13.73c.78-2.17.05-4.53-1.8-5.87l-3.31-2.41c-1.49-1.11-3.22-1.84-4.99-2.11-.23-.05-.45-.08-.56-.08-.24-.05-.49-.08-.71-.08,0,0-4.13-.25-4.13-.25-.11,0-.22-.01-.33-.01-2.14,0-4.02,1.34-4.79,3.41l-79.42,220.78c-2.06,5.75.88,12.1,6.55,14.14,1.18.43,2.41.64,3.67.64,1.91,0,3.81-.52,5.6-1.58l-.14-.15h.35c.62-.36,1.2-.79,1.76-1.32,1.27-1.2,2.21-2.66,2.81-4.33l13.11-36.42,43.13-119.92c13.57-14.2,33.6-33.39,51.96-44.15,31.62-10.3,52.85-15.63,64.94-18.31l13.09,7.95c1.9,1.16,3.83,2.17,5.73,3,.55.3,1.12.53,1.65.75,1.4.62,2.84,1.18,4.4,1.71,5.87,2.01,12.02,3.03,18.27,3.03h170.62c6.23,0,12.34-1,18.15-2.98h0s1.91-.71,1.91-.71c.89-.33,1.79-.67,2.62-1.05.56-.23,1.12-.46,1.58-.71,1.98-.87,3.94-1.89,5.82-3.04l12.95-7.92c12.25,2.66,33.5,7.99,65.07,18.29,18.31,10.72,38.37,29.92,51.93,44.07l43.17,119.99,13.09,36.41c.2.57.46,1.09.73,1.62.53.95,1.23,1.87,2.21,2.81.49.46,1.04.88,1.77,1.33l.2.12c1.68.99,3.58,1.51,5.5,1.51,1.25,0,2.48-.22,3.66-.64,5.68-2.05,8.62-8.39,6.56-14.14l-79.44-220.77c-.73-2.04-2.67-3.41-4.84-3.41h-.27s-4.03.26-4.03.26c-.26,0-.54.03-.71.07-.23.01-.44.05-.58.08-1.86.29-3.57,1-5.08,2.12l-3.32,2.42c-1.83,1.34-2.55,3.7-1.77,5.87l4.94,13.73-56.89-37.08,98.48-59.76c.12-.07.23-.18.26-.27l87.48-53.09c.28-.17.48-.45.55-.78.07-.32,0-.66-.19-.93l-.76-1.08,4.4-2.68c.21-.13.43-.23.65-.34l.1-.05,1.09,1.51c.22.24.54.37.87.37.14,0,.28-.02.41-.07,1.13-.42,2.28-.63,3.4-.63l2.53-.09,4.6,6.71c1.54,2.23,4.08,3.56,6.8,3.56l66.27-.05c1.33,1.16,3.01,1.8,4.73,1.8l17.32-.1c2.55-.02,4.94-1.41,6.23-3.62l13.49-23.31c.54-1.02.7-2.18.46-3.27-.05-.22-.12-.44-.17-.6-.04-.15-.13-.34-.26-.61l-.18.11.07-.32c-.09-.17-.16-.26-.21-.33l-.15-.18c-.11-.16-.21-.31-.45-.53l-15.93-15.22c-1.26-1.22-2.93-1.89-4.7-1.89h-8.91v-1.19h.36c1.01,0,1.82-.83,1.82-1.84v-3.38c0-.83-.57-1.54-1.38-1.74v-.36c.81-.21,1.38-.92,1.38-1.75v-11.64c0-.21-.06-.42-.18-.61l.02-.02-4.6-5.29c-.9-1.03-2.2-1.63-3.57-1.63h-10.34v-13.71h6.81c.87,0,1.7-.38,2.3-1.05l25.49,10.55c6.15,2.54,12.65,3.83,19.32,3.83,1.96,0,3.93-.12,5.87-.34,68.83-8.11,142.1-14.38,217.78-18.62,2.44-.14,3.7-2.08,3.67-3.93-.02-1.84-1.32-3.76-3.77-3.84ZM1153.27,28.12c-16.22,2.73-29.44,5.56-39.29,8.39-.86.25-1.73.38-2.6.38-.24,0-.47,0-.71-.03-53.87-3.97-151.81-9.72-197.08-12.33,56.84-.92,107.61-1.39,150.97-1.39,53.1,0,79.61.7,88.71,1v3.97ZM328.8,24.16c7.01-.25,33.27-1.02,88.95-1.02,43.26,0,93.95.47,150.73,1.39-45.27,2.61-143.22,8.36-197.07,12.33-.24.02-.48.03-.72.03-.87,0-1.72-.12-2.6-.38-10.04-2.88-23.26-5.7-39.29-8.37v-3.97ZM289.13,33.87l-25.58,10.58c-5.86,2.42-12.05,3.65-18.39,3.65-1.87,0-3.75-.11-5.6-.33-68.9-8.12-142.23-14.39-217.94-18.64-1.05-.06-1.42-.82-1.41-1.51,0-.7.39-1.45,1.45-1.49,93.58-2.75,207.57-6.06,219.22-6.15h.99c13.29,0,35.24,1.96,47.26,3.15v10.74ZM1146.89,74.46h52.41v2.27h-52.41v-2.27ZM1148.26,72.07v-.19h49.66v.19h-49.66ZM1197.12,79.12v1.19h-48.03v-1.19h48.03ZM660.61,107.4c4.09-4.33,9.86-6.82,15.84-6.82h129.15c5.97,0,11.75,2.49,15.84,6.82l3.73,3.96-17.47,13.56c-.78.59-1.74.92-2.7.92h-127.95c-.98,0-1.93-.32-2.69-.91l-17.48-13.56,3.72-3.95ZM657.31,114.69l15.6,12.11c1.17.91,2.65,1.41,4.15,1.41h127.95c1.48,0,2.95-.5,4.15-1.41l15.6-12.11,1.95,2.06-15.81,12.27c-1.56,1.2-3.36,1.87-5.38,1.99-.11.02-.22.02-.45.02h-128.08c-.15,0-.31,0-.57-.04-1.92-.11-3.73-.79-5.25-1.97l-15.82-12.27,1.95-2.06ZM399.96,100.05c.08-.44.14-.89.17-1.32.06-.59.11-1.19.11-1.8v-12.65l209.17,53.04c2.56.64,5.2.96,7.85.96,8.53,0,16.87-3.38,22.9-9.3.22-.2.43-.41.64-.63l10.85-11.47,1.05.81.14.13,16.86,13.08c1.88,1.47,4.18,2.34,6.45,2.46.3.05.6.06.9.06h127.95c.3,0,.61,0,.77-.04,2.38-.13,4.66-.98,6.58-2.47l18.05-14.02,10.56,11.19.31.31c.2.21.41.41.59.58,6.05,5.92,14.42,9.31,22.95,9.31,2.68,0,5.35-.33,7.94-.99l209.03-53.03v12.66c0,.6.02,1.18.11,1.75.11,1.14.34,2.27.72,3.47l-197.14,84.76c-10.11,4.36-20.84,6.57-31.88,6.57h-225.16c-11.04,0-21.77-2.21-31.88-6.57l-180.31-77.54-16.83-7.22c.2-.64.37-1.31.53-2.11ZM292.25,34.77c-.31,0-.6-.2-.7-.53-.02-.06-.03-.15-.03-.21v-12.19c0-.41.33-.73.73-.73h33.43c.4,0,.73.33.73.73v12.19c0,.41-.33.73-.73.73h-33.43ZM315.74,37.15v13.71h-14.32v-13.71h14.32ZM286.94,54.06c.45-.52,1.1-.81,1.77-.81h40.51c.67,0,1.33.3,1.78.81l2.75,3.15h-49.57l2.75-3.15ZM282.75,59.6h52.43v9.9h-52.43v-9.9ZM333.79,71.88v.19h-49.64v-.19h49.64ZM282.75,74.46h52.43v2.27h-52.43v-2.27ZM332.98,79.12v1.19h-48.03v-1.19h48.03ZM270.61,83.91c.82-.79,1.9-1.22,3.05-1.22h114.49c.64,0,1.28.02,1.91.04v14.2c0,.46-.05.94-.14,1.45-.03.18-.08.37-.13.56h-134.92l15.74-15.03ZM364.97,123.51c-1.1,1.59-2.9,2.53-4.82,2.53h-64.39l4.06-6.28c.53-.94,1.54-1.52,2.64-1.52h66.13l-3.63,5.27ZM377.46,116.36c-1.12-.33-2.25-.5-3.37-.5h-71.62c-1.95,0-3.75,1.03-4.68,2.67l-4.57,7.05c-.18.29-.4.55-.68.82-.89.89-2.12,1.4-3.38,1.4l-17.31-.1c-1.71-.02-3.32-.95-4.19-2.43l-13.44-23.23c-.11-.21-.19-.45-.23-.71h134.31l-10.85,15.03ZM381.84,115.42c-.16-.1-.33-.18-.49-.26l-.07-.04,10.48-14.6c.23-.49.4-1.06.51-1.76.12-.66.17-1.26.17-1.85v-11.4c1.84.19,3.66.48,5.42.88v10.53c0,.53-.04,1.03-.09,1.57-.03.34-.07.67-.13,1.07-.03.09-.05.18-.05.25-.19.89-.44,1.75-.76,2.64-.46,1.23-1.07,2.4-1.82,3.47l-8.63,12.26-4.53-2.76ZM573.08,237.42l6.29,3.82-70.21,45.13,3.37-9.48,60.55-39.46ZM500.49,252.8c.41-1.12,1.43-1.84,2.58-1.84v-.21l.15.21,4.18.26c.1,0,.22.01.43.05.06,0,.11.01.17.02l-64.65,179.71c-.39,1.07-1.15,1.94-2.13,2.46l-7.08,3.76,66.35-184.43ZM437.18,479.37c-.47,1.32-1.21,2.46-2.19,3.39-.53.48-1.06.87-1.57,1.17l-.24.12c-1,.53-2.05.87-3.11,1l12.36-34.37c.39-1.08,1.16-1.96,2.18-2.47l4.65-2.4-12.08,33.57ZM450.52,442.47l-7,3.61c-1.55.79-2.73,2.13-3.33,3.78l-12.64,35.14c-.42-.07-.89-.17-1.36-.34-4.44-1.6-6.74-6.58-5.12-11.09l11.8-32.96,9.47-5.03c1.5-.8,2.66-2.13,3.26-3.75l64.72-179.91c.74.3,1.42.68,2.03,1.12l3.33,2.42c.98.71,1.37,1.97.95,3.13l-66.1,183.88ZM546.55,277.56c-17.31,10.11-36.02,27.61-48.89,40.78l10.12-28.25,73.86-47.48,14.71,8.93c-11.83,6.11-33.6,17.37-46.23,24.03-1.18.62-2.37,1.3-3.56,1.99ZM559.19,273.5c12.31-6.43,28.17-14.63,38.43-19.93l1.12-.58,10.94,6.64c-10.07,2.26-26.78,6.47-50.49,13.87ZM636.64,271.94l-.15-.05c-.83-.3-1.65-.62-2.56-1.02-.48-.19-.96-.39-1.49-.68-1.88-.83-3.74-1.8-5.54-2.9l-152.2-92.36,3.84-5.1c1.52-2.01,3.83-3.16,6.33-3.16,1.24,0,2.49.3,3.6.88l143.85,73.33c2.67,1.37,4.32,4.07,4.32,7.06v24.01ZM872.39,259.63l10.92-6.63c11.29,5.81,27.27,14.07,39.6,20.51-23.72-7.41-40.45-11.62-50.52-13.89ZM935.56,277.59c-1.2-.72-2.4-1.4-3.6-2.02-11.75-6.19-31.53-16.43-46.26-24.01l14.71-8.92,73.81,47.38,10.19,28.33c-12.91-13.19-31.63-30.7-48.86-40.76ZM1048.95,484.08l-.1.19-.19-.33c-.5-.3-1.04-.7-1.55-1.15-.69-.67-1.25-1.39-1.66-2.13-.21-.4-.42-.82-.58-1.29l-12.06-33.57,4.66,2.41c1.01.51,1.78,1.39,2.15,2.47l12.38,34.37c-1.03-.13-2.06-.45-3.05-.97ZM974.36,251.26c.1-.02.21-.03.37-.03l4.1-.25.15-.21v.21c1.15,0,2.18.74,2.57,1.83l66.37,184.44-7.08-3.76c-1-.53-1.76-1.41-2.13-2.46l-64.66-179.72c.07,0,.17-.02.3-.04ZM965.45,258.6c-.42-1.16-.04-2.42.94-3.14l3.33-2.42c.61-.45,1.29-.83,2.04-1.12l64.72,179.91c.57,1.61,1.72,2.95,3.26,3.76l9.37,4.91,11.9,33.07c1.62,4.52-.68,9.49-5.12,11.1-.47.17-.94.27-1.36.34l-12.65-35.12c-.57-1.65-1.75-3-3.31-3.79l-6.91-3.5-66.2-183.99ZM969.46,276.78l3.46,9.61-70.24-45.14,6.31-3.83,60.47,39.36ZM855.18,267.29c-1.8,1.09-3.69,2.08-5.63,2.94-.44.24-.9.43-1.49.67-.84.37-1.71.69-2.57,1.01l-.06.02v-23.99c0-2.98,1.66-5.69,4.32-7.06l143.85-73.33c1.11-.57,2.36-.88,3.61-.88,2.49,0,4.79,1.15,6.3,3.15l3.86,5.12-152.19,92.36ZM1009.36,173.61l-3.95-5.23c-1.96-2.61-4.95-4.1-8.2-4.1-1.62,0-3.24.39-4.69,1.14l-143.85,73.33c-3.47,1.78-5.62,5.3-5.62,9.18v24.84c-5.41,1.76-11.03,2.66-16.71,2.66h-170.62c-5.65,0-11.26-.89-16.69-2.66v-24.84c0-3.88-2.15-7.4-5.62-9.18l-143.84-73.33c-1.45-.75-3.07-1.14-4.69-1.14-3.25,0-6.25,1.5-8.23,4.11l-3.93,5.21-85.78-52.06,10.04-14.25c.59-.84,1.12-1.79,1.62-2.92l197.05,84.72c10.41,4.49,21.46,6.76,32.82,6.76h225.16c11.37,0,22.41-2.27,32.82-6.76l197.03-84.72c.5,1.13,1.03,2.08,1.62,2.93l10.05,14.25-85.78,52.06ZM1100.73,115.16c-.17.08-.34.16-.51.26l-4.54,2.76-8.65-12.26c-.71-1.02-1.31-2.15-1.76-3.32l-.21-.03.17-.19c-.52-1.41-.84-2.71-.96-4.02-.07-.47-.09-.95-.09-1.44v-10.53c1.74-.39,3.57-.69,5.44-.88v11.4c0,.57.06,1.17.19,1.91.08.52.23,1.02.51,1.73l.14.25,10.34,14.3-.07.03ZM1121.91,126.04c-1.93,0-3.74-.94-4.83-2.53l-3.61-5.27h66.11c1.11,0,2.12.59,2.69,1.58l4.01,6.22h-64.37ZM1227.86,101.99l-13.46,23.27c-.87,1.49-2.47,2.42-4.19,2.44l-17.31.1c-1.27,0-2.51-.51-3.4-1.4-.31-.31-.52-.57-.69-.83l-4.51-6.99c-.97-1.68-2.78-2.72-4.73-2.72h-71.6c-1.11,0-2.24.17-3.36.49l-10.87-15.03h134.32c-.04.25-.11.48-.21.67ZM1208.41,82.69c1.15,0,2.23.43,3.05,1.22l15.72,15.03h-134.9c-.05-.18-.1-.37-.13-.55-.09-.53-.14-1-.14-1.46v-14.2c.63-.02,1.27-.04,1.91-.04h114.49ZM1199.3,69.5h-52.41v-9.9h52.41v9.9ZM1193.35,53.25c.67,0,1.33.3,1.77.81l2.74,3.15h-49.55l2.75-3.15c.45-.52,1.09-.81,1.75-.81h40.53ZM1166.32,50.86v-13.71h14.3v13.71h-14.3ZM1190.55,34.03c0,.06-.02.15-.05.24-.09.29-.37.49-.69.49h-33.45c-.39,0-.71-.33-.71-.73v-12.19c0-.41.32-.73.71-.73h33.45c.41,0,.73.33.73.73v12.19ZM1460.43,29.13c-75.71,4.25-149.03,10.52-217.92,18.64-1.84.22-3.72.33-5.59.33-6.35,0-12.55-1.23-18.41-3.64l-25.58-10.58v-10.74c9.78-.96,33.55-3.15,47.47-3.15h.78c11.55.1,125.59,3.4,219.21,6.15,1.06.04,1.45.79,1.46,1.48,0,.69-.37,1.46-1.43,1.52Z"/>
  <path class="cls-1" d="M997.11,166.92c-1.2,0-2.38.28-3.41.82l-143.85,73.33c-2.59,1.33-4.2,3.96-4.2,6.86v21.95c0,.4.2.77.53.99.2.13.43.2.67.2.15,0,.3-.03.45-.09,2.72-1.1,5.33-2.41,7.78-3.88l52.16-31.64,98.7-59.91c.29-.18.49-.47.55-.79.06-.33-.01-.67-.22-.94l-2.91-3.88c-1.45-1.89-3.78-3.03-6.23-3.03ZM853.82,265.07c-1.84,1.11-3.78,2.12-5.8,3.01v-20.15c0-2,1.11-3.82,2.91-4.74l143.86-73.33c.75-.39,1.56-.59,2.4-.59,1.65,0,3.24.79,4.25,2.12l2.12,2.82-149.74,90.87Z"/>
  <path class="cls-1" d="M632.22,241.07l-143.85-73.33c-1.08-.55-2.29-.84-3.5-.84-2.4,0-4.7,1.14-6.14,3.05l-2.93,3.87c-.2.27-.28.61-.22.94.06.33.26.62.55.8l150.89,91.55c2.43,1.47,5.04,2.77,7.75,3.88.14.06.29.09.45.09.24,0,.47-.07.67-.2.33-.22.53-.59.53-.99v-21.95c0-2.91-1.61-5.53-4.19-6.86ZM634.02,268.08c-2.01-.9-3.95-1.91-5.78-3.01l-149.76-90.86,2.13-2.82c1-1.32,2.58-2.11,4.24-2.11.84,0,1.67.2,2.42.58l143.85,73.33c1.78.92,2.89,2.73,2.89,4.74v20.15Z"/>
  <path class="cls-1" d="M707.68,116.79h66.71c1.34,0,2.54-.64,3.13-1.66.49-.85.49-1.83,0-2.68l-2.88-5.02c-.58-1.04-1.8-1.69-3.16-1.69h-60.91c-1.36,0-2.56.65-3.14,1.68l-2.89,5.03c-.49.85-.49,1.83,0,2.68.59,1.02,1.79,1.66,3.13,1.66ZM706.61,113.64l2.9-5.04c.15-.28.59-.47,1.06-.47h60.91c.49,0,.93.19,1.09.48l2.89,5.03c.06.11.06.19,0,.3-.13.23-.52.47-1.07.47h-66.71c-.55,0-.94-.24-1.07-.47-.06-.11-.06-.19,0-.3Z"/>
  <path class="cls-1" d="M741.03,182.38c4.69,0,8.5-3.82,8.5-8.52s-3.81-8.5-8.5-8.5-8.5,3.82-8.5,8.5,3.82,8.52,8.5,8.52ZM741.03,167.73c3.37,0,6.12,2.74,6.12,6.12s-2.74,6.14-6.12,6.14-6.12-2.75-6.12-6.14,2.74-6.12,6.12-6.12Z"/>
  <path class="cls-1" d="M762.26,178.31c2.45,0,4.44-2,4.44-4.45s-1.99-4.44-4.44-4.44-4.45,1.99-4.45,4.44,2,4.45,4.45,4.45ZM762.26,171.8c1.13,0,2.05.92,2.05,2.05s-.92,2.07-2.05,2.07-2.07-.93-2.07-2.07.93-2.05,2.07-2.05Z"/>
  <path class="cls-1" d="M778.75,178.31c2.46,0,4.46-2,4.46-4.45s-2-4.44-4.46-4.44-4.44,1.99-4.44,4.44,1.99,4.45,4.44,4.45ZM778.75,171.8c1.14,0,2.07.92,2.07,2.05s-.93,2.07-2.07,2.07-2.05-.93-2.05-2.07.92-2.05,2.05-2.05Z"/>
  <path class="cls-1" d="M719.81,178.31c2.46,0,4.46-2,4.46-4.45s-2-4.44-4.46-4.44-4.44,1.99-4.44,4.44,1.99,4.45,4.44,4.45ZM719.81,171.8c1.14,0,2.07.92,2.07,2.05s-.93,2.07-2.07,2.07-2.05-.93-2.05-2.07.92-2.05,2.05-2.05Z"/>
  <path class="cls-1" d="M703.3,178.31c2.46,0,4.45-2,4.45-4.45s-2-4.44-4.45-4.44-4.44,1.99-4.44,4.44,1.99,4.45,4.44,4.45ZM703.3,171.8c1.14,0,2.07.92,2.07,2.05s-.93,2.07-2.07,2.07-2.05-.93-2.05-2.07.92-2.05,2.05-2.05Z"/>
  <path class="cls-1" d="M660.49,236.85h-3.26c-2.03,0-3.69,1.65-3.69,3.67v9.35c0,1.42.88,2.77,2.18,3.35l3.27,1.48c.47.21.98.32,1.49.32.71,0,1.4-.21,2.01-.6,1.05-.68,1.68-1.84,1.68-3.09v-10.81c0-2.02-1.65-3.67-3.67-3.67ZM661.78,251.33c0,.45-.22.85-.59,1.09-.22.14-.46.21-.71.21-.18,0-.35-.04-.52-.11l-3.27-1.48c-.46-.2-.77-.67-.77-1.17v-9.35c0-.71.58-1.28,1.3-1.28h3.26c.72,0,1.28.56,1.28,1.28v10.81Z"/>
  <path class="cls-1" d="M673.13,236.85h-3.26c-2.03,0-3.69,1.65-3.69,3.67v15.04c0,1.43.85,2.75,2.18,3.37l3.26,1.45c.48.22,1,.33,1.52.33.7,0,1.39-.2,1.99-.59,1.06-.68,1.69-1.84,1.69-3.11v-16.49c0-2.02-1.65-3.67-3.69-3.67ZM674.43,257.01c0,.46-.22.86-.59,1.1-.21.14-.45.21-.7.21-.18,0-.37-.04-.55-.12l-3.24-1.45c-.48-.22-.79-.69-.79-1.2v-15.04c0-.71.58-1.28,1.3-1.28h3.26c.72,0,1.3.58,1.3,1.28v16.49Z"/>
  <path class="cls-1" d="M685.77,236.85h-3.24c-2.03,0-3.69,1.65-3.69,3.67v20.72c0,1.46.85,2.78,2.16,3.37l3.27,1.48c.48.21.98.32,1.5.32.72,0,1.42-.21,2.02-.6,1.05-.68,1.67-1.84,1.67-3.08v-22.19c0-2.02-1.65-3.67-3.69-3.67ZM687.07,262.71c0,.44-.21.84-.59,1.08-.22.14-.47.22-.72.22-.18,0-.36-.04-.52-.11l-3.27-1.48c-.45-.2-.75-.68-.75-1.19v-20.72c0-.72.57-1.28,1.3-1.28h3.24c.72,0,1.3.58,1.3,1.28v22.19Z"/>
  <path class="cls-1" d="M698.4,236.85h-3.24c-2.03,0-3.69,1.65-3.69,3.67v24.08c0,2.03,1.65,3.69,3.69,3.69h3.24c2.03,0,3.69-1.65,3.69-3.69v-24.08c0-2.02-1.65-3.67-3.69-3.67ZM699.71,264.6c0,.72-.58,1.3-1.3,1.3h-3.24c-.72,0-1.3-.58-1.3-1.3v-24.08c0-.71.58-1.28,1.3-1.28h3.24c.72,0,1.3.58,1.3,1.28v24.08Z"/>
  <path class="cls-1" d="M711.04,236.85h-3.24c-2.03,0-3.69,1.65-3.69,3.67v24.08c0,2.03,1.65,3.69,3.69,3.69h3.24c2.03,0,3.69-1.65,3.69-3.69v-24.08c0-2.02-1.65-3.67-3.69-3.67ZM712.35,264.6c0,.73-.57,1.3-1.3,1.3h-3.24c-.72,0-1.3-.58-1.3-1.3v-24.08c0-.71.58-1.28,1.3-1.28h3.24c.73,0,1.3.56,1.3,1.28v24.08Z"/>
  <path class="cls-1" d="M723.7,236.85h-3.26c-2.03,0-3.69,1.65-3.69,3.67v24.08c0,2.03,1.65,3.69,3.69,3.69h3.26c2.03,0,3.69-1.65,3.69-3.69v-24.08c0-2.02-1.65-3.67-3.69-3.67ZM725,264.6c0,.72-.58,1.3-1.3,1.3h-3.26c-.72,0-1.3-.58-1.3-1.3v-24.08c0-.71.58-1.28,1.3-1.28h3.26c.72,0,1.3.58,1.3,1.28v24.08Z"/>
  <path class="cls-1" d="M736.34,236.85h-3.24c-2.03,0-3.69,1.65-3.69,3.67v24.08c0,2.03,1.65,3.69,3.69,3.69h3.24c2.03,0,3.69-1.65,3.69-3.69v-24.08c0-2.02-1.65-3.67-3.69-3.67ZM737.64,264.6c0,.72-.58,1.3-1.3,1.3h-3.24c-.73,0-1.3-.57-1.3-1.3v-24.08c0-.72.57-1.28,1.3-1.28h3.24c.72,0,1.3.58,1.3,1.28v24.08Z"/>
  <path class="cls-1" d="M748.98,236.85h-3.24c-2.03,0-3.69,1.65-3.69,3.67v24.08c0,2.03,1.65,3.69,3.69,3.69h3.24c2.03,0,3.69-1.65,3.69-3.69v-24.08c0-2.02-1.65-3.67-3.69-3.67ZM750.28,264.6c0,.72-.58,1.3-1.3,1.3h-3.24c-.72,0-1.3-.58-1.3-1.3v-24.08c0-.71.58-1.28,1.3-1.28h3.24c.72,0,1.3.58,1.3,1.28v24.08Z"/>
  <path class="cls-1" d="M761.61,236.85h-3.24c-2.03,0-3.69,1.65-3.69,3.67v24.08c0,2.03,1.65,3.69,3.69,3.69h3.24c2.03,0,3.69-1.65,3.69-3.69v-24.08c0-2.02-1.65-3.67-3.69-3.67ZM762.92,264.6c0,.73-.57,1.3-1.3,1.3h-3.24c-.72,0-1.3-.58-1.3-1.3v-24.08c0-.71.58-1.28,1.3-1.28h3.24c.73,0,1.3.56,1.3,1.28v24.08Z"/>
  <path class="cls-1" d="M774.27,236.85h-3.26c-2.03,0-3.69,1.65-3.69,3.67v24.08c0,2.03,1.65,3.69,3.69,3.69h3.26c2.03,0,3.69-1.65,3.69-3.69v-24.08c0-2.02-1.65-3.67-3.69-3.67ZM775.57,264.6c0,.72-.58,1.3-1.3,1.3h-3.26c-.72,0-1.3-.58-1.3-1.3v-24.08c0-.71.58-1.28,1.3-1.28h3.26c.72,0,1.3.58,1.3,1.28v24.08Z"/>
  <path class="cls-1" d="M786.91,236.85h-3.26c-2.02,0-3.67,1.65-3.67,3.67v24.08c0,2.03,1.65,3.69,3.67,3.69h3.26c2.03,0,3.69-1.65,3.69-3.69v-24.08c0-2.02-1.65-3.67-3.69-3.67ZM788.21,264.6c0,.72-.58,1.3-1.3,1.3h-3.26c-.71,0-1.28-.58-1.28-1.3v-24.08c0-.72.56-1.28,1.28-1.28h3.26c.72,0,1.3.58,1.3,1.28v24.08Z"/>
  <path class="cls-1" d="M799.54,236.85h-3.24c-2.03,0-3.69,1.65-3.69,3.67v22.19c0,1.25.62,2.4,1.67,3.08.6.39,1.3.6,2.02.6.52,0,1.03-.11,1.51-.32l3.22-1.47c1.33-.58,2.19-1.9,2.19-3.37v-20.72c0-2.02-1.65-3.67-3.69-3.67ZM800.85,261.24c0,.53-.3.99-.78,1.19l-3.23,1.47c-.17.08-.35.11-.54.11-.25,0-.5-.08-.72-.22-.37-.24-.59-.64-.59-1.08v-22.19c0-.71.58-1.28,1.3-1.28h3.24c.72,0,1.3.58,1.3,1.28v20.72Z"/>
  <path class="cls-1" d="M812.18,236.85h-3.24c-2.03,0-3.69,1.65-3.69,3.67v16.49c0,1.26.63,2.43,1.69,3.11.6.39,1.29.59,1.99.59.53,0,1.04-.11,1.52-.33l3.25-1.46c1.32-.6,2.17-1.92,2.17-3.36v-15.04c0-2.02-1.65-3.67-3.69-3.67ZM813.49,255.56c0,.52-.3.98-.77,1.19l-3.25,1.46c-.18.08-.36.12-.54.12-.24,0-.48-.07-.7-.21-.38-.24-.6-.65-.6-1.1v-16.49c0-.71.58-1.28,1.3-1.28h3.24c.72,0,1.3.58,1.3,1.28v15.04Z"/>
  <path class="cls-1" d="M824.84,236.85h-3.26c-2.03,0-3.69,1.65-3.69,3.67v10.81c0,1.25.62,2.4,1.67,3.08.6.4,1.3.6,2.02.6.52,0,1.02-.11,1.51-.32l3.26-1.47c1.31-.58,2.16-1.9,2.16-3.35v-9.35c0-2.02-1.65-3.67-3.67-3.67ZM826.12,249.88c0,.5-.3.97-.75,1.17l-3.26,1.47c-.17.08-.35.11-.54.11-.25,0-.5-.08-.72-.22-.37-.25-.59-.64-.59-1.09v-10.81c0-.71.58-1.28,1.3-1.28h3.26c.72,0,1.28.56,1.28,1.28v9.35Z"/>
  <path class="cls-1" d="M964.29,126.2l15.43,10.34c1.14.76,2.47,1.16,3.83,1.16.89,0,1.75-.16,2.48-.47l66.08-25.79c1.68-.66,2.88-2.1,3.21-3.86.33-1.78-.25-3.56-1.56-4.77l-5.11-4.76c-.97-.89-2.22-1.38-3.53-1.38-.43,0-.86.05-1.29.16l-77.96,20.03c-2,.53-3.46,2.13-3.82,4.17-.33,2.05.53,4.04,2.24,5.17ZM964.4,121.43c.2-1.12.97-1.96,2.07-2.25l77.94-20.02c.24-.06.48-.09.72-.09.7,0,1.37.27,1.9.75l5.11,4.76c.71.66,1.02,1.6.84,2.58-.18.94-.83,1.72-1.74,2.08l-66.11,25.8c-.44.19-.97.29-1.52.29-.92,0-1.83-.27-2.56-.75l-15.43-10.34c-.93-.61-1.39-1.68-1.21-2.79Z"/>
  <path class="cls-1" d="M965.73,124.04l15.43,10.33c.69.48,1.51.73,2.37.73.53,0,1.05-.1,1.55-.29l66.06-25.8c.85-.32,1.47-1.05,1.61-1.9.18-.91-.11-1.8-.77-2.39l-5.12-4.76c-.48-.44-1.1-.69-1.75-.69-.17,0-.35.02-.65.08l-77.94,20.04c-.99.24-1.7,1-1.91,2.04-.15.79.07,1.89,1.1,2.6ZM967.12,121.71l77.91-20.04.1-.22v.21l.13.05,5.13,4.77-.09.3-66.07,25.8c-.22.09-.45.13-.69.13-.37,0-.73-.11-1.03-.32l-15.53-10.51c.03-.15.09-.16.15-.18Z"/>
  <path class="cls-1" d="M429.95,111.44l66.06,25.78c.78.32,1.63.48,2.52.48,1.36,0,2.68-.4,3.83-1.16l15.42-10.33c1.73-1.15,2.59-3.13,2.23-5.18-.33-2.03-1.79-3.62-3.81-4.17l-77.97-20.03c-.42-.11-.85-.16-1.29-.16-1.31,0-2.56.49-3.54,1.39l-5.09,4.75c-1.32,1.22-1.91,3.01-1.58,4.79.35,1.74,1.55,3.18,3.21,3.84ZM429.94,104.56l5.09-4.75c.53-.49,1.21-.75,1.91-.75.23,0,.47.03.69.09l77.95,20.02c1.1.29,1.89,1.16,2.06,2.26.19,1.11-.26,2.18-1.2,2.79l-15.43,10.34c-.74.49-1.64.76-2.53.76-.56,0-1.11-.11-1.6-.31l-66.07-25.78c-.9-.36-1.56-1.14-1.75-2.08-.18-.97.13-1.91.86-2.59Z"/>
  <path class="cls-1" d="M430.89,109.01l66.07,25.8c.5.2,1.03.3,1.57.3.85,0,1.67-.25,2.36-.73l15.46-10.34c1.02-.7,1.23-1.81,1.09-2.61-.21-1.03-.91-1.78-1.89-2.02l-78.04-20.06c-.15-.03-.31-.04-.48-.04-.68,0-1.36.24-1.86.68l-5.07,4.74c-.66.59-.96,1.46-.81,2.41.18.86.78,1.57,1.6,1.89ZM431.71,106.47l5.05-4.72c.06-.05.12-.08.17-.09l78.04,20.05c.05.01.11.03.05.35l-15.46,10.35c-.3.21-.66.32-1.02.32-.24,0-.47-.05-.69-.13l-66.2-25.9c-.02-.12.03-.18.07-.22Z"/>
</svg>