<?xml version="1.0" encoding="UTF-8"?>
<svg id="Layer_1" xmlns="http://www.w3.org/2000/svg" viewBox="0 0 3570.4322 3113.6206">
  <defs>
    <style>
      .cls-1 {
        fill: none;
        fill-rule: evenodd;
        stroke: #fff;
        stroke-miterlimit: 10;
      }
    </style>
  </defs>
  <path class="cls-1" d="M.2887,3113.2124s31.9815-22.623,47.375-49.2871c18.3067-31.7061,22.1065-69.6289,45.5782-88.9707,23.7509-19.5703,53.0156-21.6875,85.0107-44.3662,17.71-12.5508,44.3037-49.3506,62.458-66.582,14.8711-14.1163,46.8086-22.7256,58.0303-40.419,19.1787-30.2412,24.5635-70.8965,49.1943-87.9961,19.6152-13.6201,65.416-16.5078,85.7871-24.084,68.3301-25.415,108.9619-29.8222,126.9492-37.4931,63.3389-27.0215,34.8379-60.791,110.8389-128.3262,76.0039-67.5342,101.3369-81.04,120.3467-178.9785,19.0019-97.9297-3.1738-141.8311,91.8379-145.2061,95.0029-3.3779,164.6816,16.8819,180.5117,6.753,15.8359-10.1309-98.1709-87.795-98.1709-101.3077,0-13.5058-19.002,6.753-44.3369,6.753s-15.8364-30.3877-41.1699-6.753c-25.3409,23.6436-69.67,94.5547-31.6719,74.295,38.0034-20.2657,45.918-165.4717,74.418-261.71,28.5073-96.2461,66.5048-121.5732,69.6767-214.4424,3.167-92.8623,25.335-261.7109,31.666-275.2178,6.3316-13.5048-26.916-1.6835,93.4287,5.0616,120.3389,6.7607,204.2539-11.8125,188.4258-45.585-15.8364-33.7715,15.8281-50.6533-76.0014-11.8144-91.8457,38.833-199.5215,27.0126-193.1885-8.4444,6.3457-35.4619,95.0112-182.354,104.5141-270.1553,9.4991-87.8017,96.5889-118.1958,77.5865-150.2758-19.0039-32.0806-74.4204-50.6538-125.0952-21.9497-50.6597,28.7026-71.2442,82.7324-60.1651,75.979,11.0801-6.7535,36.4209-42.209,76.002-52.3374,39.5883-10.1289,72.8349-3.376,72.8349,11.8203s-53.8335,163.7822-72.8349,214.436c-18.9942,50.6519-25.3335,70.9116-26.9161,59.0903-1.583-11.8222,93.42-28.7041,96.586-20.2592,3.165,8.437-1.5747,79.3564-9.4971,87.8012-7.9219,8.4366-115.5898,74.295-117.1787,54.0293-1.583-20.2568,64.9277-64.1577,101.3428-67.5415,36.4209-3.3774,139.3462,0,163.0903-23.6352,23.7583-23.6348,38.0054-48.9683,28.5068-43.9009-9.5053,5.0679-42.7519,42.2153-114.0053,45.5845-71.2608,3.3838-106.0991-13.5044-115.5899-13.5044-9.5049,0-63.3447,32.0786-72.8354,57.4048-9.5054,25.3359-7.9224,67.5439-44.3433,103-36.4228,35.4619-140.9228-20.2598-147.2558-64.1602-6.3379-43.9009,26.9179-124.9492,47.5019-133.3921,20.585-8.4385,167.8418,30.395,136.1748,47.2827-31.6728,16.8819-134.5918-45.5923-131.4258-72.603,3.1651-27.019,66.5044-163.7886,93.4219-175.6089,26.916-11.8144,93.4287,43.9004,115.5879,35.4639,22.1699-8.4453,30.0898-54.0313,50.6768-69.2276,20.5849-15.1982,37.9975-35.456,106.0849-42.2089,68.085-6.7613,102.9248,1.6835,95.0088,11.8125-7.9199,10.1367-82.3408,3.3774-114.0049,25.3271-31.6723,21.9512-19.0019,111.436,64.9136,111.436s232.769-42.2085,270.7666-72.603c38.0117-30.3877,144.0967-140.1387,137.7651-168.8433-6.333-28.7026-53.8335-33.77-57.0073-52.3374-3.1655-18.58,26.9155-35.4619,38.0039-37.1538,11.0816-1.686,52.251,40.523,38.0059,48.9683-14.2539,8.4453-12.6709-23.6357,20.5845-35.4561,33.249-11.8203,72.8354-25.3271,74.4184-48.9697,1.5825-23.6333-1.583-30.3945-1.583-30.3945,0,0-20.5845,87.8096-53.8398,92.8691-33.2491,5.0689-36.4146-81.0488-26.918-87.7998,9.5054-6.7529-28.4985,43.8985-39.5864,25.3252-11.0816-18.5742,9.5048-48.9599,9.5048-37.1474,0,11.8222-71.2612,145.2138-125.0947,182.3618-53.834,37.1411-96.5859,67.5356-102.9253,74.2885-6.3315,6.7535-6.3315,18.5738-1.5766,18.5738,4.748,0,15.83-15.1958-19.0083-6.7534-34.8257,8.4453-68.0811,11.8144-90.2486,5.0615-22.1699-6.7529-20.5849-20.2573-20.5849-27.0108,0-5.2236,29.6533-3.7187,52.0063-13.4111,41.9473-18.1914,26.7061-120.5176-6.0884-160.5054-11.0791-13.5063,1.583-23.6352,1.583-23.6352,0,0-12.6621,21.9492-42.7519,43.9009-30.084,21.9492-33.2578,45.5922-30.084,64.1577,3.166,18.5742-15.8359-38.833-23.7583,0-7.9141,38.8398,15.8364,42.2173,15.8364,47.2763,0,5.0694-47.5009,18.5743-82.333-21.9428-34.8379-40.5318-20.5844-87.7993-20.5844-87.7993,0,0-3.1734-28.7046,31.6645-74.2969,34.832-45.5928,98.1768-21.9497,98.1768-21.9497,0,0,20.5869-40.5249,42.7461-28.7022,22.1699,11.8203,50.6767,38.8306-9.4966,74.2866-60.1734,35.4551-104.5083,70.9195-110.8423,99.6221-6.3369,28.7046,3.168,57.4072-11.0791,82.7334-14.2534,25.3272-63.3452,118.1963-49.0918,150.2764,14.2539,32.0776,74.4189,20.2573,74.4189,43.9004s-55.417,57.4048-25.3271,65.8501c30.0752,8.4448,114.0068-86.1094,114.0068-75.981s4.7403,82.7339-17.4189,104.6831c-22.1695,21.9512,99.7519,37.1499,115.5879,37.1499s14.2475-64.1665,14.2475-64.1665c0,0,36.4204-10.1308,36.4204-1.6855s0,74.2885-9.5048,67.5356c-9.4903-6.7534,39.5952-10.1289,68.0957-21.9497,28.4985-11.814,26.916-48.9614,50.6684-69.2212,23.75-20.2656,63.3447-27.019,38.0034-32.0859-25.333-5.0679-72.8354,0-104.5083,35.4555-31.6723,35.4639-93.4223,21.9512-136.1743,1.6919-42.7544-20.2578-60.165-30.3945-74.4189-11.8208-14.253,18.5738-38.0059,133.3941-61.7559,178.9781-23.7588,45.5927-30.0898,59.0986-19.0019,70.9121,11.08,11.8222,277.104,38.8388,313.5185,87.8086,36.4209,48.9619,14.2539,403.5429,4.7569,420.4248-9.5049,16.8818-77.5923-15.1983-82.3409,3.376-4.748,18.5732-17.4189,65.8496,0,74.2949,17.4107,8.4443,159.9248,33.7636,161.5078,23.6347,1.5826-10.1289-69.6699-65.8496-87.0893-72.6035-17.4126-6.7529-53.8335,1.6924-66.5044-52.3369-12.6621-54.0381-30.084-256.6514-18.9956-270.1572,11.0815-13.5127,18.9956,0,9.4907,0-9.4907,0-76.0015-1.6914-139.332-10.1289-63.3472-8.4453-147.271,3.376-163.0991-21.9512-15.836-25.333,3.166-113.126,9.4975-65.8496,6.3306,47.2754-72.8359,211.0576-107.6743,266.7793-34.832,55.7148-104.502,187.417-117.1665,234.6934-12.6768,47.2763-41.1694,108.0585-41.1694,124.9482s107.6679,74.2891,150.4199,40.5176c42.7544-33.7647,107.6758-108.0596,142.5054-108.0596s74.4267,40.5234,117.1816,0c42.7519-40.5166,52.251-62.4736,85.5059-65.8516,33.2558-3.3759,267.6005-5.0615,286.603-33.7724,18.9936-28.7022-63.3394-55.7129-23.7525-146.8897,39.5884-91.1787,66.5044-104.6914,82.3404-143.5244,15.8301-38.831-82.3404-261.7099-114.0132-336.0049-31.6641-74.289-44.3345-91.1709,9.5054-168.8432,53.8335-77.6729,110.8413-81.0484,186.8427-70.9195,76.001,10.1304,82.3404,30.396,167.8472-6.7534,85.5059-37.147,82.3325-54.0293,171.0064-114.812,88.6718-60.7822,129.8413-74.2949,180.5175-70.9189,50.6685,3.3769,114.0054-3.376,190.0152,3.3769,75.9951,6.7598,91.831-33.7632,145.6709-50.6533,53.8339-16.8818-34.8379-57.4072-34.8379-57.4072,0,0-20.5845,30.3965-96.586,48.9702-76.0034,18.5654-134.6001,16.8818-77.5927,27.0107,57.0058,10.1284,96.5947-37.1479,53.8403-40.5229-42.7603-3.378-297.6904-1.6861-313.5269-30.3965-15.8276-28.6943,41.1714-141.8228,60.1817-141.8228,18.9936,0,93.4204,0,174.1699-59.0986,80.7583-59.0972,11.0879-138.4531,7.9224-163.7798-3.1719-25.3271,31.6665-70.9199,28.4926-47.2783-3.1577,23.6348-85.498,84.4258-172.5893,111.436-87.0894,27.0191-107.6738-10.1284-99.7515-3.3755,7.9077,6.753-242.2744,84.4239-245.4336,135.0772-3.1718,50.6543-3.1718,341.0688-14.2534,359.6426-5.5469,9.2871-3.9556,13.5127,3.7627,14.5644,7.7183,1.0533,21.5723-1.0517,40.5664-4.4355,38.0112-6.7534,45.9282-27.0108,42.7622-15.1983-3.168,11.8223,39.5781,81.0562-1.5913,97.938-41.1709,16.8819-210.5928,20.2593-185.2515-16.8818,25.3272-37.1558,82.3326-20.2661,101.334-45.5923,19.0044-25.3271-1.5825-21.9492,20.5869-33.7725,22.1597-11.8203,69.67,3.378,76.0015-37.1474,6.3394-40.5166,17.419-236.3848,15.8364-246.5137-1.583-10.1289-25.333-11.8203-1.583-10.1289,23.75,1.6836,308.7705-23.6431,389.5283-118.1953,35.9288-42.0713,37.3736-78.4634,27.3521-105.8955-12.4956-34.2227-42.8408-54.5088-46.3545-54.5088-6.3311,0-36.4204,18.5732-64.9277,27.0166-28.5005,8.4453-128.2544-82.7402-178.9204-136.7617-50.6763-54.0371-69.67-74.2949-114.0152-72.6026-44.3349,1.6836-82.3325,89.4849-93.4204,47.2676-3.4355-13.1045.7554-27.1855,8.6484-40.4795,17.5201-29.5156,53.2745-55.1181,64.1954-57.4424,15.8281-3.3837,33.247,20.2579,25.333,8.4371-7.9219-11.8208,6.331-40.523,28.5009-67.5415,22.167-27.0127,110.8394-52.3399,161.5157-59.0992,50.6601-6.7534,98.1626-3.3691,93.4204,16.8902-4.7481,20.2573-102.9253,84.4238-134.5918,86.1157-31.6724,1.6855-63.3447-8.4453-88.6802,0-25.3271,8.4365-60.165,23.6348-20.5762,18.5674,39.5806-5.0611,66.4961,3.3838,102.917-6.7534,36.4151-10.1285,120.3467-82.7334,158.3443-82.7334s96.5942,72.6049,96.5942,72.6049c0,0-31.6748-1.6855-91.8398,45.5904-60.1709,47.2783-77.5923,69.2275-50.6744,97.9326,26.9161,28.7021,120.3384,126.6318,155.1768,114.8115,34.8379-11.8203,110.8413-60.7822,102.9253-108.061-7.9224-47.2759-91.8379-106.3726-91.8379-106.3726,0,0,109.251,28.7022,115.5898,75.9785,6.3379,47.2784,1.5831,86.1094-104.5097,150.2754-106.085,64.1602-159.9253,48.9624-188.4258,28.7027-28.5068-20.2657-39.5864-25.3267-39.5864-25.3267,0,0-69.6704-5.0674-80.75-5.0674-11.0879,0-33.2632-27.0107-33.2632-27.0107,0,0,83.9233-45.5928,55.4224-20.2598-28.4986,25.3213-139.3404,25.3213-139.3404,40.5171s31.6665-18.5737,36.4151-54.0298c4.7568-35.4551-39.5865-102.9971-91.8374-70.9111-52.251,32.0805-74.4185,157.0293-104.5083,199.2358-30.0835,42.2085-144.0909,92.8628-150.4219,109.7525-6.3311,16.8818,30.0835,47.2763,30.0835,47.2763,0,0-22.1695-62.4741-50.6685-40.5224-28.5005,21.9492-61.7558,35.455-55.4165,48.9594,6.3316,13.5064,45.9116-21.9497,63.3389-23.6328,17.4106-1.6919,34.8301,42.2085,53.834,47.2759,19.0014,5.0615,107.6738-77.6724,153.5937-111.4424,45.9175-33.7656,93.4204-133.3877,114.0049-180.664,20.5869-47.2759,31.6665-99.6221-4.7485-111.4366-36.4209-11.8203-45.92-16.8877-66.5044-37.1474-20.5845-20.2569-14.2534-42.2085-39.5948-32.0801-25.3266,10.1309-25.3266,23.6357-55.4086,3.3779-30.0894-20.2656-57.0079-101.3134-57.0079-123.2651s53.834-13.5044,64.9161-21.9492c11.0859-8.439,7.9199-23.6353,7.9199-18.5674s-14.2529,20.2593,11.0879,33.7637c25.3354,13.5141,42.7461,32.0883,42.7461,32.0883,0,0-15.8282-25.3354,6.3315-25.3354,22.1753,0,25.3413,28.7104,23.7583,40.5249-1.583,11.8208,41.1714,16.8882,42.7544-13.5059,1.5825-30.3886,3.1655-111.4365-36.4214-143.5146-39.5801-32.0801-55.4165,8.437-55.4165,8.437,0,0,6.3311-25.3272-45.9199-20.2593-52.251,5.0611-66.5044,50.6538-66.5044,50.6538,0,0-20.585-27.019-36.4209-6.7534-15.8364,20.2656-25.335,67.5357,7.9141,69.2217,33.2548,1.6914,90.2627-43.8945,128.2607-45.5869,37.9956-1.6836,69.6758-23.6348,74.4185,18.582,4.748,42.2007,14.2534,82.7256,30.0898,94.5464,15.8276,11.8208-42.7544,48.9683-42.7544,79.3647s112.4238,184.0391,134.5918,214.4253c22.1694,30.3965,22.1694,40.5254,76.0093,45.5928,53.834,5.0693,253.3393-54.0298,266.0181-11.8208,12.6621,42.2168-39.5948,214.4336-102.9273,251.5811-63.3369,37.1499-38.0039-57.4048,53.8335-30.3858,91.8398,27.0108,205.8447,74.2871,205.8447,74.2871,0,0-9.497,37.149,20.5869,54.0313,30.0899,16.8877,76.0074,28.7085,87.0953,28.7085,11.0815,0,107.6757-148.5904,177.3378-175.6089,69.6783-27.0108,123.5123-37.1392,126.6817-57.4053,3.1616-20.2588,41.1636-94.5537,82.3325-114.8135,41.1714-20.2578,107.6763-23.6411,110.8457-47.2763,3.1616-23.6348,34.8301-124.9488,34.8301-124.9488,0,0,167.6431-103.6254,218.3091-73.229,14.9946,41.1944-154.9663,194.8023-154.9663,323.1182s-357.8555,273.5327-310.355,327.5703c47.5024,54.0293,259.6826,263.396,171.0127,273.5327-88.6739,10.1289-737.8804-101.3076-623.8755,30.3882,113.999,131.7022,278.6807,293.7988,202.6792,310.6807-76.0015,16.8818-560.5347-148.5918-566.874-111.4365-6.3316,37.1416,22.1753,94.5546-28.4986,101.3076-50.6684,6.7509-139.3403-43.9004-104.5024,16.8818,34.832,60.7822,205.8389,205.9971,158.3359,226.2539-47.5024,20.2598-243.8481-23.6406-218.5093,50.6543,25.3355,74.2949,361.0235,266.7705,323.0176,276.9082-38.0039,10.1309,541.5391,216.1279,503.5352,141.8301-38.0039-74.2949-69.6699-178.9776,3.1655-151.9678,39.4819,14.6475,120.1099,5.6192,277.999,71.2149,29.7813,12.372,66.2784,125.5478,97.5474,148.4912,108.7895,79.8271,232.1514,118.3476,232.1514,118.3476"/>
</svg>