<?xml version="1.0" encoding="UTF-8"?>
<svg id="svg8" xmlns="http://www.w3.org/2000/svg" viewBox="0 0 105.72 119.89">
  <defs>
    <style>
      .cls-1 {
        fill: #fff;
        stroke-width: 0px;
      }
    </style>
  </defs>
  <path class="cls-1" d="M51.53,0c.87,0,1.74,0,2.62,0,1.33.64,2.71,1.21,3.99,1.94,5.94,3.39,11.86,6.83,17.78,10.25,8.53,4.92,17.05,9.86,25.59,14.77,2.67,1.54,4.2,3.74,4.2,6.88,0,17.39.02,34.79,0,52.18,0,2.83-1.17,5.07-3.65,6.52-3.68,2.16-7.4,4.27-11.08,6.43-.79.46-1.39.41-2.14-.11-7.77-5.39-15.57-10.74-23.35-16.12-2.54-1.75-2.07-1.62-3.98.37-1.44,1.49-1.43,1.51.25,2.67,7.11,4.9,14.21,9.79,21.32,14.69.7.48,1.38,1.01,2.25,1.64-.59.39-.96.67-1.36.9-7.58,4.39-15.16,8.78-22.75,13.16-1.77,1.02-3.53,2.08-5.36,3-2.13,1.07-4.3.91-6.42-.13-2.07-1.02-3.6-2.21-4.21-4.82-2.39-10.27-5.09-20.47-7.68-30.69-.17-.65-.39-1.29-.66-2.16-.94.65-1.65,1.22-2.43,1.66-1.21.68-1.45,1.52-1.09,2.9,2.25,8.56,4.4,17.14,6.56,25.71.14.55.19,1.12.32,1.98-.72-.36-1.15-.55-1.55-.78-11.36-6.56-22.7-13.14-34.1-19.65C2.35,91.89.71,90.2,0,87.65,0,72.39,0,57.13,0,41.86c1.47,1,3.08,1.86,4.38,3.04,2.71,2.47,5.52.73,8.29.74.05-.15.09-.29.14-.44-4.27-3.03-8.54-6.06-12.81-9.1,0-1.31,0-2.62,0-3.92.69-2.27,1.99-4.01,4.09-5.2,3.76-2.12,7.48-4.3,11.22-6.45.36-.21.76-.36,1.28-.6.2.63.39,1.11.51,1.6,1.77,6.97,3.54,13.94,5.3,20.91.45,1.77.59,1.86,2.43,1.69.26-.02.52-.07.78-.11,1.89-.3,1.88-.3,1.42-2.12-1.95-7.64-3.87-15.29-5.86-22.92-.3-1.16-.09-1.81.99-2.42,6.03-3.42,11.99-6.94,18.02-10.36C43.93,4.06,47.75,2.06,51.53,0ZM84.88,44.44c.05.11.1.22.15.34-.26.32-.51.65-.79.96-8.97,9.86-17.96,19.72-26.9,29.61-.8.89-1.34.91-2.27.26-4.21-2.96-8.45-5.86-12.7-8.76-.41-.28-1.04-.69-1.38-.56-1.42.55-2.78,1.29-4.38,2.07.63.48.95.75,1.3.99,5.92,4.08,11.86,8.13,17.75,12.26,1.05.74,1.65.67,2.5-.27,12.42-13.68,24.87-27.33,37.31-40.99.53-.58,1.01-1.22,1.74-2.1-29.03,3.66-57.67,7.27-86.31,10.88.37.66.77.98,1.18,1.27,4.57,3.27,9.14,6.55,13.74,9.79.91.64,1.43,1.41,1.7,2.5,1.35,5.5,2.77,10.99,4.17,16.48.11.44.25.87.38,1.3.99-2.14,1.75-4.26,2.36-6.42.21-.75.22-1.65.04-2.41-.96-4.03-1.97-8.04-3.06-12.03-.2-.73-.73-1.49-1.33-1.96-1.85-1.45-3.81-2.76-5.72-4.14-.4-.29-.75-.63-1.12-.95.03-.12.06-.24.1-.36,20.52-2.58,41.04-5.16,61.55-7.75Z"/>
</svg>